<svg width="31" height="32" viewBox="0 0 31 32" fill="none" xmlns="http://www.w3.org/2000/svg">
<g id="Logo">
<path d="M13.1372 28.8521C13.3199 28.3346 13.407 27.7822 13.3935 27.2272C13.4213 25.689 13.7951 24.1823 14.4813 22.8417C15.1659 21.5034 16.142 20.3731 17.3221 19.5526C17.759 19.2948 18.1439 18.9422 18.4534 18.5161C18.7628 18.0899 18.9905 17.5992 19.1226 17.0735C19.2547 16.5478 19.2884 15.9981 19.2218 15.4576C19.1552 14.9172 18.9896 14.3972 18.735 13.9292C18.3949 13.304 17.9055 12.7915 17.3221 12.4505C16.9877 12.1953 16.6664 11.9204 16.3601 11.6259L15.5926 10.7992C14.1863 9.17297 13.3976 7.01732 13.3878 4.77283C13.4024 4.21769 13.3157 3.66497 13.1329 3.14728C12.9501 2.62959 12.6748 2.15741 12.3235 1.7586C11.9737 1.36024 11.5545 1.04348 11.0909 0.82724C10.6274 0.610998 10.129 0.499704 9.62547 0.500001C9.12224 0.500781 8.62428 0.612569 8.16102 0.828751C7.69776 1.04493 7.27862 1.36112 6.9284 1.7586C6.57765 2.15811 6.30285 2.63056 6.12009 3.1483C5.93734 3.66604 5.85029 4.21867 5.86404 4.77387C5.87225 5.49455 6.05271 6.20018 6.3873 6.81987C6.72073 7.43851 7.19679 7.94932 7.7673 8.30063C10.0773 9.9085 11.6847 12.9827 11.6847 16.0062C11.679 18.2312 10.9053 20.3708 9.52025 21.9923L7.77294 23.6994C7.20271 24.0497 6.72643 24.5601 6.392 25.1801C6.05662 25.7991 5.8772 26.5059 5.86874 27.2272C5.85437 27.7823 5.94114 28.335 6.12393 28.8526C6.30673 29.3703 6.58185 29.8425 6.9331 30.2414C7.28297 30.6397 7.70217 30.9564 8.1657 31.1726C8.62924 31.3888 9.12761 31.5002 9.6311 31.5C10.1345 31.4994 10.6326 31.3876 11.0961 31.1714C11.5595 30.9553 11.9788 30.639 12.3291 30.2414C12.6797 29.842 12.9544 29.3697 13.1372 28.8521Z" fill="#3B9F9D"/>
<path d="M18.2399 7.072C17.8256 6.38793 17.6049 5.58297 17.6049 4.76043C17.6055 3.65862 18.0023 2.6018 18.7087 1.8206C19.3229 1.14091 20.1329 0.71752 20.9999 0.623059C21.8669 0.528598 22.7368 0.768957 23.4602 1.3029C24.08 1.76057 24.5625 2.40997 24.8468 3.1691C25.1312 3.92909 25.2055 4.76448 25.0602 5.57067C24.915 6.37686 24.5568 7.118 24.0305 7.7013C23.5057 8.28299 22.8353 8.67948 22.1048 8.84016C21.3742 9.00083 20.6167 8.91841 19.929 8.6034C19.2406 8.28808 18.6527 7.75511 18.2399 7.072Z" fill="#3B9F9D"/>
<path d="M19.278 23.7686C19.897 23.3119 20.6251 23.068 21.3691 23.068V23.0659C21.8637 23.0666 22.3533 23.1746 22.8098 23.3839C23.2664 23.5931 23.6809 23.8994 24.0295 24.2853C24.6457 24.9671 25.029 25.8621 25.1146 26.819C25.2002 27.7758 24.9828 28.7358 24.4992 29.5367C24.0865 30.2207 23.4982 30.7544 22.8092 31.0701C22.1215 31.3851 21.364 31.4676 20.6335 31.3069C19.9029 31.1462 19.2325 30.7497 18.7077 30.168C18.1812 29.5846 17.8229 28.8433 17.6777 28.0369C17.5324 27.2305 17.6068 26.3949 17.8914 25.6348C18.1758 24.8757 18.6583 24.2263 19.278 23.7686Z" fill="#3B9F9D"/>
<path d="M30.3659 13.6833C30.7791 14.3671 30.9998 15.1707 31 15.9929C30.9994 17.095 30.6026 18.1521 29.8962 18.9336C29.5474 19.3193 29.1329 19.6256 28.6764 19.8348C28.2199 20.044 27.7303 20.1521 27.2358 20.153C26.4909 20.153 25.763 19.9091 25.1446 19.4524C24.5249 18.9947 24.0424 18.3453 23.758 17.5862C23.4734 16.826 23.3991 15.9904 23.5443 15.184C23.6895 14.3776 24.0479 13.6363 24.5744 13.0529C25.0992 12.471 25.7698 12.0744 26.5005 11.9137C27.2313 11.7531 27.989 11.8356 28.6768 12.1508C29.3654 12.4664 29.9532 12.9998 30.3659 13.6833Z" fill="#3B9F9D"/>
<path d="M1.67241 12.5352C2.29148 12.0785 3.01859 11.8346 3.76355 11.8346C4.258 11.8358 4.7474 11.9442 5.20375 12.1536C5.66009 12.363 6.07442 12.6693 6.42303 13.055C7.03893 13.7366 7.42202 14.6312 7.50761 15.5877C7.59318 16.5441 7.376 17.5037 6.89274 18.3043C6.48002 18.9878 5.89218 19.5211 5.20367 19.8368C4.51568 20.1502 3.75854 20.2318 3.02831 20.0712C2.29808 19.9106 1.62769 19.515 1.10218 18.9347C0.575829 18.3514 0.217618 17.6102 0.072406 16.804C-0.0728064 15.9978 0.00143329 15.1625 0.285829 14.4025C0.570089 13.643 1.0526 12.9932 1.67241 12.5352Z" fill="#3B9F9D"/>
</g>
</svg>
