<svg xmlns="http://www.w3.org/2000/svg" xmlns:xlink="http://www.w3.org/1999/xlink" width="24" height="24" viewBox="0 0 24 24"><defs><style>.a{fill:#5238a0;}.b{fill:#5878bf;opacity:0;}.c{clip-path:url(#a);}.d,.e{fill:none;stroke:#533b9a;}.d{stroke-miterlimit:10;}</style><clipPath id="a"><rect class="a" width="22.8" height="23.052"/></clipPath></defs><rect class="b" width="24" height="24"/><g transform="translate(0.6 0.474)"><g class="c" transform="translate(0 0)"><path class="a" d="M227.447,7.386c-.018-.368-.007-.709-.056-1.041a1.746,1.746,0,0,0-1.38-1.46.565.565,0,0,0-.608.171.958.958,0,0,1-1.443-.025.492.492,0,0,0-.448-.174,1.785,1.785,0,0,0-1.585,1.618c-.017.289,0,.581,0,.886a4,4,0,0,1-1.449-3.678,4.223,4.223,0,1,1,6.972,3.7m-1.132-4.394-.04,0c0-.178.013-.358,0-.535a1.614,1.614,0,0,0-3.171-.2,5.857,5.857,0,0,0-.048,1.139,1.568,1.568,0,0,0,1.331,1.515,1.587,1.587,0,0,0,1.826-1.1,5.5,5.5,0,0,0,.1-.816" transform="translate(-206.095 0)"/><path class="a" d="M227.459,217.168c-.021-.38-.012-.739-.067-1.087a1.736,1.736,0,0,0-1.545-1.43.521.521,0,0,0-.361.134,1.01,1.01,0,0,1-1.576-.013.509.509,0,0,0-.342-.126,1.771,1.771,0,0,0-1.633,1.619c-.017.289,0,.581,0,.888a4,4,0,0,1-1.442-3.706,4.223,4.223,0,0,1,8.1-1.036,4.181,4.181,0,0,1-1.129,4.757m-4.422-4.417.024,0c0,.162-.008.325,0,.487a1.593,1.593,0,0,0,1.582,1.484,1.572,1.572,0,0,0,1.635-1.417,6.99,6.99,0,0,0,0-1.07,1.548,1.548,0,0,0-1.41-1.408A1.582,1.582,0,0,0,223.114,212a5.79,5.79,0,0,0-.077.747" transform="translate(-206.104 -196.132)"/><path class="a" d="M6.979,112.182c0-.3.006-.546,0-.795a1.774,1.774,0,0,0-1.44-1.724.531.531,0,0,0-.564.168.958.958,0,0,1-1.443,0,.545.545,0,0,0-.565-.172,1.8,1.8,0,0,0-1.5,1.735c-.008.249,0,.5,0,.762a4.1,4.1,0,0,1-1.359-4.1,4.225,4.225,0,0,1,8.1-.461,4.191,4.191,0,0,1-1.23,4.591m-1.146-4.411h.014c0-.138,0-.276,0-.414a1.582,1.582,0,0,0-1.57-1.542,1.569,1.569,0,0,0-1.654,1.447,7.157,7.157,0,0,0-.005.949,1.566,1.566,0,0,0,1.551,1.507,1.582,1.582,0,0,0,1.66-1.364,4.005,4.005,0,0,0,0-.583" transform="translate(-0.001 -97.958)"/><path class="a" d="M252.008,85.8c0-.187-.009-.374,0-.559a1.164,1.164,0,0,1,.862-1.057.332.332,0,0,1,.255.053,1.59,1.59,0,0,0,2.134.007.321.321,0,0,1,.252-.048,1.172,1.172,0,0,1,.829,1.087c.015.372.012.746,0,1.119a.306.306,0,0,1-.14.218,4.139,4.139,0,0,1-4.048,0,.346.346,0,0,1-.143-.24A5.329,5.329,0,0,1,252,85.8h.005" transform="translate(-235.597 -78.694)"/><path class="a" d="M35.792,190.674a1.128,1.128,0,0,0,0,.219c.08.4-.11.587-.467.732a4.255,4.255,0,0,1-3.687-.14.3.3,0,0,1-.2-.316c.015-.332,0-.665.006-1a1.189,1.189,0,0,1,.873-1.154.328.328,0,0,1,.253.05,1.565,1.565,0,0,0,2.109.017.278.278,0,0,1,.328-.048,1.166,1.166,0,0,1,.773,1.055c.013.194,0,.389,0,.584h0" transform="translate(-29.397 -176.703)"/><path class="a" d="M256.365,295.624a.959.959,0,0,0,0,.194c.088.418-.115.618-.489.766a4.265,4.265,0,0,1-3.687-.159.269.269,0,0,1-.173-.28c.011-.373,0-.746.011-1.119a1.159,1.159,0,0,1,.834-1.054.383.383,0,0,1,.3.063,1.572,1.572,0,0,0,2.091,0,.286.286,0,0,1,.329-.049,1.211,1.211,0,0,1,.784,1.1c.007.178,0,.357,0,.535Z" transform="translate(-235.615 -274.826)"/><path class="a" d="M269.472,26.082c0-.121,0-.243,0-.364a1,1,0,0,1,1-1.006.993.993,0,0,1,1.057.946,6.287,6.287,0,0,1-.006.9.974.974,0,0,1-1.076.89.986.986,0,0,1-.978-.949c-.006-.137,0-.275,0-.413h0" transform="translate(-251.933 -23.102)"/><path class="a" d="M269.183,236.029a4.1,4.1,0,0,1,.072-.647.99.99,0,0,1,1.135-.693.957.957,0,0,1,.866.873,6.166,6.166,0,0,1,0,.97.983.983,0,0,1-1.038.884,1,1,0,0,1-1.012-.947c-.008-.145,0-.291,0-.437l-.021,0" transform="translate(-251.664 -219.408)"/><path class="a" d="M51.07,131.057a4.223,4.223,0,0,1-.057.625.985.985,0,0,1-1.078.746.973.973,0,0,1-.939-.91,6.332,6.332,0,0,1,0-.922.98.98,0,0,1,1.045-.9,1,1,0,0,1,1.009.947c.007.137,0,.275,0,.413h.018" transform="translate(-45.792 -121.255)"/><line class="d" y1="5" x2="9" transform="translate(5.926 3.552)"/><path class="e" d="M7.74,4.469,0,0" transform="translate(7.152 13.869)"/><path class="e" d="M0,6.393.005,0" transform="translate(18.561 7.832)"/></g></g></svg>