<svg xmlns="http://www.w3.org/2000/svg" xmlns:xlink="http://www.w3.org/1999/xlink" width="24" height="24" viewBox="0 0 24 24"><defs><style>.a,.b{fill:#fff;}.b{opacity:0;}.c{clip-path:url(#a);}</style><clipPath id="a"><rect class="a" width="21.335" height="21.335"/></clipPath></defs><rect class="b" width="24" height="24"/><g transform="translate(1.333 1.332)"><g class="c"><path class="a" d="M13.077,13.077h6.758a1.382,1.382,0,0,1,1.5,1.5q0,2.634,0,5.268a1.381,1.381,0,0,1-1.486,1.491H9.743a1.38,1.38,0,0,1-1.482-1.473c0-.645,0-1.289,0-1.968h-6.4A1.727,1.727,0,0,1,0,16.043Q0,11.71,0,7.377a.686.686,0,0,1,.178-.485q.9-1.029,1.776-2.074a.5.5,0,0,0,.108-.284c.013-.356,0-.713,0-1.093-.124,0-.229,0-.334,0a.336.336,0,0,1-.351-.354q-.007-1.365,0-2.731A.336.336,0,0,1,1.735,0c.05,0,.1,0,.151,0h9.31c.41,0,.506.1.506.5q0,1.2,0,2.408c0,.44-.084.524-.526.528h-.159c0,.411,0,.817,0,1.222,0,.053.063.109.1.156.6.7,1.2,1.389,1.784,2.095a.753.753,0,0,1,.161.441c.011,1.813.007,3.627.007,5.44Zm-.7-5.49H.7v7.542H8.261c0-.219,0-.425,0-.632a1.374,1.374,0,0,1,1.427-1.42c.753,0,1.505,0,2.258,0h.433ZM14.8,20.647h5.053a.7.7,0,0,0,.8-.791q0-2.645,0-5.29a.708.708,0,0,0-.808-.8H9.754a.7.7,0,0,0-.806.8q0,2.634,0,5.269a.711.711,0,0,0,.818.812H14.8M11,.706H2.079V2.744H11Zm.966,6.167c-.036-.05-.054-.078-.076-.1-.433-.506-.865-1.014-1.3-1.514a.323.323,0,0,0-.219-.088q-3.826-.007-7.653,0a.377.377,0,0,0-.246.124c-.408.462-.806.932-1.207,1.4-.044.052-.084.107-.142.181ZM8.252,15.845H.7a1.125,1.125,0,0,0,1.23,1.372c2.019-.031,4.039-.011,6.059-.011h.259ZM2.765,4.459h7.542V3.453H2.765Z" transform="translate(0 0)"/><path class="a" d="M249.677,50.736a1.547,1.547,0,0,1-.932,1.362,1.16,1.16,0,0,1-1.333-.312c-.49-.493-.985-.981-1.473-1.475a1.174,1.174,0,0,1,.033-1.784,1.207,1.207,0,0,1,1.823-.083c.512.5,1.014,1.012,1.52,1.52a1.161,1.161,0,0,1,.362.773m-2.788-.442.892-.894c-.171-.169-.351-.362-.548-.537a.457.457,0,0,0-.626.007,2.24,2.24,0,0,0-.243.242.462.462,0,0,0,0,.643c.172.191.358.368.524.538m.537.548c.176.17.346.342.525.506a.493.493,0,0,0,.631.057.682.682,0,0,0,.385-.725.452.452,0,0,0-.087-.17c-.183-.2-.373-.389-.549-.571l-.9.9" transform="translate(-231.439 -45.305)"/><path class="a" d="M275.569,146.659a1.152,1.152,0,0,1,.336-.812c.525-.529,1.046-1.062,1.582-1.58a1.189,1.189,0,0,1,1.67-.007,1.233,1.233,0,0,1,.493,1.325,1.414,1.414,0,0,1-.318.547c-.5.525-1.014,1.033-1.53,1.54a1.171,1.171,0,0,1-1.709,0,1.352,1.352,0,0,1-.522-1.017m2.79-.5c.162-.168.334-.341.5-.519a.478.478,0,0,0,.063-.627c-.227-.337-.508-.476-.765-.378a.39.39,0,0,0-.131.071c-.2.187-.386.378-.566.555l.9.9m-1.43-.375-.424.432c-.045.046-.109.085-.129.141a1.026,1.026,0,0,0-.1.4.835.835,0,0,0,.6.579.5.5,0,0,0,.341-.079c.209-.188.388-.41.573-.612l-.859-.859" transform="translate(-259.739 -135.654)"/><path class="a" d="M75.353,159.2c0,.346,0,.661,0,.976a.351.351,0,0,1-.394.4q-.634.006-1.268,0c-.277,0-.4-.13-.4-.415,0-.313,0-.627,0-.961-.326,0-.632,0-.938,0s-.437-.119-.438-.443c0-.4,0-.8,0-1.2,0-.294.124-.415.42-.417s.615,0,.956,0c0-.305,0-.6,0-.9,0-.368.106-.475.469-.476H74.9c.339,0,.454.113.456.447,0,.3,0,.6,0,.929.317,0,.622,0,.927,0,.336,0,.448.115.449.453,0,.4,0,.8,0,1.2,0,.28-.128.4-.409.407-.314,0-.627,0-.966,0m.68-1.376c-.32,0-.62,0-.92,0-.334,0-.447-.116-.448-.454,0-.3,0-.609,0-.911h-.688c0,.316,0,.622,0,.928s-.12.436-.444.437c-.305,0-.611,0-.918,0v.688c.314,0,.614,0,.914,0,.334,0,.446.116.447.454,0,.3,0,.609,0,.911h.688c0-.317,0-.622,0-.928s.119-.435.443-.437c.305,0,.611,0,.924,0Z" transform="translate(-67.781 -146.807)"/><path class="a" d="M167.786,252.637a1.031,1.031,0,1,1,1.008,1.043,1.036,1.036,0,0,1-1.008-1.043m1.373,0a.343.343,0,1,0-.329.351.346.346,0,0,0,.329-.351" transform="translate(-158.148 -237.164)"/><path class="a" d="M216.735,253.681a1.031,1.031,0,1,1,1.026-1.047,1.036,1.036,0,0,1-1.026,1.047m.337-1.014a.343.343,0,1,0-.354.326.347.347,0,0,0,.354-.326" transform="translate(-203.308 -237.165)"/><path class="a" d="M265.682,252.652a1.031,1.031,0,1,1-1.017-1.034,1.035,1.035,0,0,1,1.017,1.034m-.689,0a.343.343,0,1,0-.337.343.346.346,0,0,0,.337-.343" transform="translate(-248.477 -237.164)"/><path class="a" d="M312.561,253.681a1.031,1.031,0,1,1,1.037-1.036,1.035,1.035,0,0,1-1.037,1.036m.349-1.03a.343.343,0,1,0-.339.341.346.346,0,0,0,.339-.341" transform="translate(-293.64 -237.165)"/><path class="a" d="M169.847,312.552a1.031,1.031,0,1,1-1.02-1.031,1.035,1.035,0,0,1,1.02,1.031m-1.033.343a.343.343,0,1,0-.341-.339.347.347,0,0,0,.341.339" transform="translate(-158.147 -293.627)"/><path class="a" d="M216.728,313.584a1.031,1.031,0,1,1,1.036-1.037,1.036,1.036,0,0,1-1.036,1.037m.347-1.036a.343.343,0,1,0-.332.348.346.346,0,0,0,.332-.348" transform="translate(-203.312 -293.627)"/><path class="a" d="M265.682,312.556a1.031,1.031,0,1,1-1.015-1.036,1.035,1.035,0,0,1,1.015,1.036m-1.037-.347a.343.343,0,1,0,.348.332.346.346,0,0,0-.348-.332" transform="translate(-248.477 -293.626)"/><path class="a" d="M313.6,312.547a1.031,1.031,0,1,1-1.026-1.024,1.035,1.035,0,0,1,1.026,1.024m-1.022-.336a.343.343,0,1,0,.334.346.347.347,0,0,0-.334-.346" transform="translate(-293.639 -293.628)"/></g></g></svg>