<svg xmlns="http://www.w3.org/2000/svg" xmlns:xlink="http://www.w3.org/1999/xlink" width="24" height="24" viewBox="0 0 24 24"><defs><style>.a,.b{fill:#5878bf;}.b{opacity:0;}.c{clip-path:url(#a);}</style><clipPath id="a"><rect class="a" width="22" height="22" transform="translate(-0.366 -0.366)"/></clipPath></defs><rect class="b" width="24" height="24"/><g transform="translate(1.313 1.366)"><g class="c"><path class="a" d="M12.247,0c.141.038.284.072.424.115a2.447,2.447,0,0,1,1.736,2.323c.013,1.352.006,2.7,0,4.057a.677.677,0,0,1-.668.72.692.692,0,0,1-.681-.735c0-1.317,0-2.634,0-3.952a1.115,1.115,0,0,0-.932-1.158,1.144,1.144,0,0,0-.21-.017H6.363a.128.128,0,0,0-.092.033c.494.166.99.326,1.482.5a1.775,1.775,0,0,1,1.22,1.389,2.489,2.489,0,0,1,.031.5q0,6.752,0,13.5v.288c.084,0,.151.012.219.012q1.32,0,2.639,0A1.119,1.119,0,0,0,13.058,16.4q.006-1.944,0-3.888a.755.755,0,0,1,.215-.6.671.671,0,0,1,1.133.432c.005.063,0,.127,0,.19q0,1.912,0,3.825a2.475,2.475,0,0,1-2.581,2.576H9.005c0,.275-.011.527,0,.778A1.83,1.83,0,0,1,6.521,21.52c-1.731-.6-3.479-1.163-5.217-1.746a1.8,1.8,0,0,1-1.268-1.4A.366.366,0,0,0,0,18.3V1.522A6.32,6.32,0,0,1,.43.653,1.772,1.772,0,0,1,1.563,0ZM7.654,11.716q0-3.993,0-7.985c0-.367-.086-.484-.434-.6L2.063,1.41c-.451-.15-.711.04-.711.518q0,8,0,15.992a.505.505,0,0,0,.427.587L3.258,19l3.7,1.235c.29.1.525.045.628-.167a.911.911,0,0,0,.067-.387q.005-3.982,0-7.964"/><path class="a" d="M284.377,131.178c-.083-.088-.132-.144-.185-.2q-1.007-1.009-2.014-2.018a.666.666,0,0,1-.15-.776.636.636,0,0,1,.667-.381.835.835,0,0,1,.425.2q1.7,1.675,3.381,3.369a.659.659,0,0,1-.009.963q-1.67,1.675-3.347,3.343a.676.676,0,1,1-.943-.965q1-1,2-2c.048-.049.094-.1.176-.186h-.26q-3.3,0-6.608,0a.677.677,0,1,1-.006-1.351q1.615,0,3.23,0h3.642Z" transform="translate(-265.072 -122.387)"/></g></g></svg>