<?xml version="1.0" encoding="UTF-8"?><svg id="Capa_1" xmlns="http://www.w3.org/2000/svg" xmlns:xlink="http://www.w3.org/1999/xlink" viewBox="0 0 28 28"><defs><style>.cls-1{fill:none;}.cls-2{fill:rgba(88,120,191,0);}.cls-3{clip-path:url(#clippath);}.cls-4{fill:#5878bf;}</style><clipPath id="clippath"><rect class="cls-1" x="3" y="3" width="22" height="22"/></clipPath></defs><rect id="Rectángulo_2974" class="cls-2" x="2" y="2" width="24" height="24"/><g id="Grupo_2895"><g class="cls-3"><g id="Grupo_2895-2"><path id="Trazado_5895" class="cls-4" d="M10.73,18.72h-1.23c-.29,.05-.57-.15-.62-.44,0-.03,0-.06,0-.1-.04-.29-.06-.58-.11-.86-.02-.09-.08-.17-.16-.21-.2-.14-.44-.23-.68-.25-.2,.02-.39,.26-.58,.4-.64,.5-.71,.49-1.29-.08l-1.68-1.68c-.26-.17-.33-.52-.16-.78,.03-.04,.06-.08,.1-.12,.17-.22,.35-.43,.5-.66,.04-.08,.06-.18,.03-.27-.02-.46-.41-.81-.86-.79-.03,0-.06,0-.09,0-.15,0-.31-.02-.45-.06-.25-.03-.44-.25-.43-.5v-2.95c0-.25,.19-.47,.44-.49,.32-.05,.65-.08,.97-.13,.08-.02,.16-.07,.2-.15,.11-.22,.28-.47,.26-.68s-.25-.41-.41-.6c-.49-.58-.44-.78,.08-1.28,.58-.56,1.14-1.14,1.72-1.71,.18-.25,.52-.3,.76-.13,.03,.02,.06,.05,.08,.07,.23,.18,.45,.36,.69,.53,.08,.04,.16,.05,.25,.03,.1-.03,.19-.06,.28-.11q.43-.18,.48-.65c.03-.22,.05-.43,.09-.65,.03-.26,.25-.46,.51-.45,.97,0,1.95,0,2.92,0,.26,0,.48,.19,.51,.45,.05,.32,.07,.63,.13,.95,.02,.09,.08,.17,.16,.22,.2,.14,.44,.23,.68,.26,.2-.02,.4-.25,.58-.4,.61-.52,.8-.43,1.29,.08,.54,.56,1.1,1.1,1.65,1.65,.36,.36,.38,.56,.07,.96-.16,.21-.33,.41-.48,.62-.04,.08-.06,.18-.03,.27,.11,.52,.38,.84,.96,.77,.12,0,.23,.01,.35,.04,.3,0,.55,.24,.55,.54,0,.03,0,.06,0,.09v1.23c2.14,.26,4.05,1.48,5.19,3.31,.89,1.38,1.26,3.02,1.05,4.65-.4,3.29-3,5.88-6.3,6.27-3.9,.43-7.43-2.35-7.92-6.24m13.22-.88c0-3.38-2.74-6.11-6.12-6.1-3.38,0-6.11,2.74-6.1,6.12,0,3.38,2.74,6.11,6.12,6.1,0,0,0,0,0,0,3.37-.01,6.1-2.75,6.1-6.12m-12.64-3c-2.19,.25-4.17-1.33-4.42-3.52-.25-2.19,1.33-4.17,3.52-4.42h0c1.02-.12,2.06,.17,2.87,.81,1.12,.86,1.71,2.25,1.54,3.65,.89-.41,1.86-.64,2.84-.67v-.82c-.28-.03-.54-.07-.81-.1-.27,0-.51-.18-.59-.43-.15-.41-.33-.81-.5-1.21-.12-.23-.08-.52,.1-.71,.18-.22,.35-.44,.5-.63l-1.42-1.41c-.2,.16-.43,.33-.65,.51-.18,.17-.45,.2-.67,.09-.4-.17-.8-.35-1.21-.5-.27-.08-.46-.34-.46-.62-.02-.26-.06-.53-.1-.79h-1.99c-.03,.28-.07,.54-.1,.81,0,.27-.18,.51-.43,.59-.41,.16-.82,.33-1.23,.51-.22,.11-.49,.07-.67-.09-.22-.18-.45-.36-.65-.51l-1.41,1.41c.16,.2,.33,.43,.51,.65,.17,.18,.2,.45,.09,.67-.17,.4-.35,.8-.5,1.21-.09,.27-.34,.46-.62,.46-.26,.02-.53,.07-.79,.1v1.99c.28,.03,.54,.07,.81,.1,.27,0,.51,.18,.59,.44,.15,.41,.33,.81,.5,1.21,.12,.23,.08,.52-.1,.71-.18,.22-.35,.44-.49,.63l1.42,1.41c.21-.16,.44-.34,.67-.52,.17-.15,.42-.19,.63-.09,.41,.17,.82,.35,1.23,.5,.27,.09,.46,.34,.46,.62,.02,.27,.06,.53,.1,.79h.78c.07-.49,.12-.97,.22-1.43s.29-.93,.44-1.4m-.45-1c.32-.07,.64-.13,.95-.2,.21-.06,.4-.18,.53-.35,.32-.35,.67-.67,1-1,.08-.08,.15-.17,.2-.27,.43-.98,.28-2.13-.41-2.96-.64-.87-1.73-1.3-2.8-1.09-1.47,.25-2.52,1.56-2.43,3.05,.11,1.57,1.39,2.79,2.96,2.83"/><path id="Trazado_5896" class="cls-4" d="M14.53,20.11h-.89c-.44,.04-.82-.28-.86-.72,0-.05,0-.09,0-.14v-1.72c-.03-.48,.34-.89,.83-.92,.03,0,.06,0,.09,0h.83c-.16-1.17,.3-2.34,1.21-3.09,.64-.54,1.46-.8,2.29-.75,1.86,.12,3.28,1.72,3.16,3.59,0,.08-.01,.17-.02,.25h.78c.48-.05,.92,.31,.96,.79,0,.06,0,.11,0,.17v1.68c.03,.43-.29,.81-.72,.85-.04,0-.08,0-.12,0h-1.35c-.29,.04-.56-.17-.6-.46,0-.05,0-.1,0-.15,0-1.14,0-2.28,0-3.43,0-1.25-1.02-2.26-2.27-2.26-1.21,0-2.2,.96-2.26,2.17-.02,1.43,0,2.85,0,4.28-.02,.29,.2,.53,.49,.55,.03,0,.06,0,.08,0h2.36c.29-.02,.53,.2,.55,.48,0,.08,0,.17-.04,.25-.08,.2-.27,.32-.48,.31-.84,0-1.69,.02-2.53,0-.81-.04-1.45-.69-1.48-1.5v-.24m-.68-1.07h.67v-1.37h-.67v1.37Zm8-1.36h-.67v1.37h.67v-1.37Z"/></g></g></g></svg>