<svg xmlns="http://www.w3.org/2000/svg" xmlns:xlink="http://www.w3.org/1999/xlink" width="24" height="24" viewBox="0 0 24 24"><defs><style>.a,.b{fill:#fff;}.b{opacity:0;}.c{clip-path:url(#a);}</style><clipPath id="a"><rect class="a" width="22.094" height="22.844"/></clipPath></defs><rect class="b" width="24" height="24"/><g transform="translate(0.953 0.578)"><g class="c"><path class="a" d="M180.281,0c.318.065.644.1.953.2a5.667,5.667,0,0,1,4.261,4.859,6,6,0,0,1-1.584,5.227,7.077,7.077,0,0,1-3.4,1.893c-.357.1-.722.167-1.087.228-.275.046-.451-.08-.481-.3-.033-.244.1-.4.379-.452a7.783,7.783,0,0,0,3.437-1.378,5.049,5.049,0,0,0,2-3.616,5.23,5.23,0,0,0-.907-3.762A5.085,5.085,0,0,0,174.7,4.977a4.951,4.951,0,0,0,1.778,4.818c.271.234.313.326.182.656-.12.3-.267.594-.412.886-.117.235-.084.333.164.414a.387.387,0,1,1-.185.75,1,1,0,0,1-.713-1.426q.148-.3.311-.591a.2.2,0,0,0-.058-.286,5.582,5.582,0,0,1-1.828-3.307,5.713,5.713,0,0,1,1.855-5.378A5.587,5.587,0,0,1,179.019.04a.427.427,0,0,0,.1-.04Z" transform="translate(-163.481)"/><path class="a" d="M3.255,105.184a2.739,2.739,0,0,1-.676-1.387,1.49,1.49,0,0,1,1.487-1.812,1.381,1.381,0,0,1,1.26,1.161,2.17,2.17,0,0,1-.454,1.819c-.068.088-.141.171-.213.257a3.721,3.721,0,0,0,4.517-1.055c-.289-.178-.584-.346-.864-.535a13.439,13.439,0,0,1-5.449-6.852,7.306,7.306,0,0,1-.083-4.893,6.465,6.465,0,0,1,1.681-2.568,1.825,1.825,0,0,1,2.2-.265,7.42,7.42,0,0,1,2.768,2.78,1.789,1.789,0,0,1-.471,2.335,2.047,2.047,0,0,0-.753,2.42,4.5,4.5,0,0,0,3.269,3.086,1.889,1.889,0,0,0,2.115-.746,1.881,1.881,0,0,1,2.556-.451,7.816,7.816,0,0,1,2.613,2.664,1.829,1.829,0,0,1-.28,2.255,6.478,6.478,0,0,1-3.808,1.965,7.356,7.356,0,0,1-2.636-.123.384.384,0,0,1-.322-.437.37.37,0,0,1,.436-.316c.406.042.808.121,1.215.146a5.654,5.654,0,0,0,3.646-1c.049-.033.1-.07.158-.115-.034-.06-.063-.117-.1-.171a11.714,11.714,0,0,0-1.98-2.287.677.677,0,0,1-.2-.283.334.334,0,0,1,.166-.4.393.393,0,0,1,.492.063,12.143,12.143,0,0,1,1.822,1.985c.131.18.257.364.385.545a1.019,1.019,0,0,0,.39-1.334,6.443,6.443,0,0,0-2.595-2.6,1.009,1.009,0,0,0-1.25.257,2.8,2.8,0,0,1-3.36,1.037,5.271,5.271,0,0,1-3.52-3.7,2.7,2.7,0,0,1,.35-2.3c.082-.124.04-.2-.024-.295a11.639,11.639,0,0,0-2.3-2.568.65.65,0,0,1-.2-.279.333.333,0,0,1,.16-.4.371.371,0,0,1,.474.046c.471.442.96.87,1.4,1.344.407.441.757.934,1.136,1.409a.963.963,0,0,0,.348-1.36A5.592,5.592,0,0,0,7.571,90.7a11.994,11.994,0,0,0-1.279-.963,1.008,1.008,0,0,0-1.306.15,5.719,5.719,0,0,0-1.766,4.889,10.229,10.229,0,0,0,2.531,5.547,13.051,13.051,0,0,0,4.1,3.311c.338.174.391.387.169.7a4.446,4.446,0,0,1-4.367,1.979,3.986,3.986,0,0,1-1.579-.5.3.3,0,0,0-.3,0,2.734,2.734,0,0,1-2.812-.224,2.928,2.928,0,0,1-.9-1.063.385.385,0,1,1,.672-.37,2.055,2.055,0,0,0,1.327,1.1,2.064,2.064,0,0,0,1.195-.076m.706-.387a1.526,1.526,0,0,0,.612-1.469.628.628,0,0,0-.579-.578.643.643,0,0,0-.632.553,1.658,1.658,0,0,0,.6,1.494" transform="translate(0 -83.505)"/><path class="a" d="M221.963,55.006c0-.543-.062-1.071.377-1.465a1.252,1.252,0,0,1,.814-.31,1.388,1.388,0,0,1,1.247.446c.321.391.213.859.247,1.329.218,0,.423,0,.629,0a1.1,1.1,0,0,1,1.1.942,2.5,2.5,0,0,1,.019.687,1.147,1.147,0,0,1-1.184,1.045c-.184,0-.368,0-.574,0,0,.553.072,1.1-.415,1.5a1.6,1.6,0,0,1-1.145.25.987.987,0,0,1-.95-.589,6.263,6.263,0,0,1-.237-1.159c-.078,0-.217-.01-.354,0a1.187,1.187,0,0,1-1.325-1.333,3,3,0,0,1,.045-.507,1.1,1.1,0,0,1,1.077-.836c.2,0,.4,0,.628,0m1.915,2.779c0-.134,0-.268,0-.4,0-.351.129-.479.487-.483.268,0,.536,0,.8,0,.34,0,.455-.121.46-.455,0-.052,0-.1,0-.156,0-.4-.118-.52-.513-.521-.275,0-.55,0-.826,0a.374.374,0,0,1-.412-.416c0-.223,0-.446,0-.669,0-.605-.068-.672-.681-.664-.326,0-.445.119-.449.441,0,.283,0,.565,0,.848-.007.325-.145.459-.466.46-.29,0-.58,0-.87,0a.4.4,0,0,0-.433.429c0,.089,0,.178,0,.268.007.287.137.426.421.432s.58,0,.87,0c.332.005.472.146.478.48,0,.29,0,.58,0,.87a.375.375,0,0,0,.346.416c.438.061.686-.029.762-.281a.658.658,0,0,0,.02-.176c0-.141,0-.283,0-.424" transform="translate(-207.077 -50.053)"/></g></g></svg>