<?xml version="1.0" encoding="UTF-8"?><svg id="Capa_1" xmlns="http://www.w3.org/2000/svg" xmlns:xlink="http://www.w3.org/1999/xlink" viewBox="0 0 28 28"><defs><style>.cls-1{fill:none;}.cls-2{fill:rgba(88,120,191,0);}.cls-3{clip-path:url(#clippath);}.cls-4{fill:#5878bf;}</style><clipPath id="clippath"><rect class="cls-1" x="4" y="3.77" width="19.74" height="21.23"/></clipPath></defs><rect id="Rectángulo_3032" class="cls-2" x="2" y="2" width="24" height="24"/><g id="Grupo_2793"><g class="cls-3"><g id="Grupo_2792"><path id="Trazado_5345" class="cls-4" d="M5.95,25c-.11-.03-.22-.06-.33-.09-.93-.28-1.57-1.12-1.6-2.09-.02-1.54,0-3.08,0-4.62,0-.42,.33-.77,.75-.78,.42,0,.77,.33,.78,.75,0,.02,0,.03,0,.05,0,1.47,0,2.93,0,4.39-.06,.42,.23,.8,.65,.86,.07,.01,.15,.01,.22,0h14.94c.42,.06,.8-.23,.86-.65,.01-.07,.01-.15,0-.22v-4.39c-.02-.42,.3-.78,.72-.8s.78,.3,.8,.72c0,.03,0,.05,0,.08,0,.66,0,1.33,0,1.99,0,.8-.01,1.6,0,2.4,.05,1.15-.76,2.17-1.9,2.36-.02,0-.03,.02-.05,.03H5.95Z"/><path id="Trazado_5346" class="cls-4" d="M13.11,19.3V4.76c0-.14,0-.29,.03-.43,.1-.35,.43-.59,.8-.55,.36,.03,.64,.31,.68,.67,.01,.11,.01,.22,.01,.33v14.58c.08-.08,.13-.12,.18-.17,.75-.75,1.51-1.5,2.26-2.26,.27-.32,.75-.36,1.07-.08,.32,.27,.36,.75,.08,1.07-.01,.01-.02,.03-.04,.04-.21,.23-.44,.44-.66,.66l-3.03,3.03c-.26,.35-.74,.42-1.09,.17-.06-.05-.12-.1-.17-.17-1.22-1.22-2.43-2.43-3.65-3.65-.32-.28-.35-.76-.08-1.08,.28-.32,.76-.35,1.08-.08,.03,.02,.05,.05,.08,.08,.74,.74,1.48,1.49,2.23,2.23,.05,.06,.09,.12,.13,.18l.07-.05"/></g></g></g></svg>