<svg xmlns="http://www.w3.org/2000/svg" xmlns:xlink="http://www.w3.org/1999/xlink" width="24" height="24" viewBox="0 0 24 24"><defs><style>.a,.b{fill:#fff;}.b{opacity:0;}.c{clip-path:url(#a);}</style><clipPath id="a"><rect class="a" width="18.1" height="22.844"/></clipPath></defs><rect class="b" width="24" height="24"/><g transform="translate(2.95 0.578)"><g class="c"><path class="a" d="M83.633,90.644c-.1-.035-.209-.065-.31-.1a1.907,1.907,0,0,1-1.245-1.431c-.274-1.237-.537-2.476-.805-3.714a.5.5,0,0,0-.577-.461c-.944,0-1.889-.022-2.833,0a3.34,3.34,0,0,1-3.4-3.329c-.02-1.888-.011-3.777,0-5.665a1.438,1.438,0,0,1,1.516-1.49c.453,0,.907,0,1.358.036a2.216,2.216,0,0,1,1.4.7c.463.463.966.892,1.378,1.4a1.824,1.824,0,0,0,1.782.728,3.233,3.233,0,0,1,.931.033,1.406,1.406,0,0,1,1.163,1.489,1.389,1.389,0,0,1-1.3,1.32c-.846.032-1.7.029-2.541-.015a2.108,2.108,0,0,1-1.38-.7c-.146-.148-.283-.3-.468-.5-.01.133-.019.195-.019.256q0,.669,0,1.338c0,.417.161.585.576.587q1.472,0,2.944,0a3.364,3.364,0,0,1,3.442,3.042q.28,2,.61,4a2,2,0,0,1-.842,2.177,5.149,5.149,0,0,1-.706.305ZM75.42,78.833h0c0,.937-.006,1.874,0,2.811A2.344,2.344,0,0,0,77.257,83.9a5.238,5.238,0,0,0,1,.069c.892.012,1.785-.011,2.676.023A1.366,1.366,0,0,1,82.2,85.12q.4,1.847.8,3.694a.977.977,0,0,0,1.17.851,1,1,0,0,0,.749-1.206q-.33-2.11-.654-4.221a2.383,2.383,0,0,0-2.508-2.159H78.813a1.427,1.427,0,0,1-1.5-1.474c-.011-.907,0-1.814,0-2.721a.511.511,0,0,1,.32-.534.5.5,0,0,1,.576.174c.409.411.822.818,1.23,1.231a1.3,1.3,0,0,0,.873.445c.765.024,1.531.027,2.3.013a.439.439,0,0,0,.411-.512.448.448,0,0,0-.487-.416c-.446,0-.893-.008-1.339,0a1.605,1.605,0,0,1-1.238-.505c-.625-.637-1.262-1.261-1.892-1.894a1.46,1.46,0,0,0-1.118-.46c-.3.008-.595,0-.892,0-.481,0-.629.147-.629.62q0,1.394,0,2.788" transform="translate(-67.792 -67.8)"/><path class="a" d="M5.577,130.469c-.281-.058-.563-.109-.842-.175a6.186,6.186,0,0,1,.258-12.084c.434-.084.711.077.724.422a.468.468,0,0,1-.432.5,5.081,5.081,0,0,0-2.873,1.542,5.016,5.016,0,0,0-1.187,5.183A4.96,4.96,0,0,0,5.166,129.4a5.173,5.173,0,0,0,5.912-3.259c.134-.343.348-.489.61-.416a.481.481,0,0,1,.316.688,6.106,6.106,0,0,1-2.462,3.076,5.975,5.975,0,0,1-2.636.944.635.635,0,0,0-.124.04Z" transform="translate(0 -107.625)"/><path class="a" d="M69.642,2.863A2.86,2.86,0,1,1,66.856,0a2.848,2.848,0,0,1,2.787,2.864M66.789,4.748A1.893,1.893,0,1,0,66.773.962a1.893,1.893,0,0,0,.016,3.787" transform="translate(-58.21 0)"/></g></g></svg>