<svg xmlns="http://www.w3.org/2000/svg" xmlns:xlink="http://www.w3.org/1999/xlink" width="12.269" height="14.755" viewBox="0 0 12.269 14.755"><defs><style>.a{fill:#5878bf;}.b{clip-path:url(#a);}</style><clipPath id="a"><rect class="a" width="12.269" height="14.755"/></clipPath></defs><g class="b"><path class="a" d="M2.867,9.363c-.006-.153.1-.211.248-.253q.6-.171,1.19-.363A.275.275,0,0,0,4.468,8.6c.073-.251.128-.508.18-.765A.178.178,0,0,0,4.59,7.7,2.893,2.893,0,0,1,3.7,6.157a.244.244,0,0,0-.114-.151.808.808,0,0,1-.529-.653,1.9,1.9,0,0,1-.01-.5A.748.748,0,0,1,3.391,4.3a3.383,3.383,0,0,1-.468-1.324,1.981,1.981,0,0,1,.67-1.9A1.783,1.783,0,0,1,4.611.679.415.415,0,0,0,4.889.553,1.993,1.993,0,0,1,6.6.018a3.22,3.22,0,0,1,1.58.62A2.368,2.368,0,0,1,9.1,2.906a4.609,4.609,0,0,1-.352,1.347.6.6,0,0,1,.413.448,2.379,2.379,0,0,1,.009.734A.738.738,0,0,1,8.686,6a.242.242,0,0,0-.126.138,2.937,2.937,0,0,1-.914,1.578.178.178,0,0,0-.047.145c.055.256.114.512.188.763a.246.246,0,0,0,.15.125q.592.189,1.19.362c.143.041.258.1.253.248a8.379,8.379,0,0,1,.846.147,2.781,2.781,0,0,1,2.04,2.725c.008.746,0,1.492,0,2.238,0,.233-.057.288-.289.288H.347c-.306,0-.344-.037-.343-.34,0-.8-.015-1.594.013-2.39A2.763,2.763,0,0,1,2.11,9.485c.239-.058.488-.079.758-.122m1.851-7.1a6.154,6.154,0,0,0-.462.623,2.461,2.461,0,0,0-.271,1.471c.015.171-.051.266-.211.282a.3.3,0,0,0-.315.333,1.31,1.31,0,0,0,.012.273.382.382,0,0,0,.359.37c.172.027.228.126.263.282a3.991,3.991,0,0,0,.215.723,1.992,1.992,0,0,0,3.363.456,2.484,2.484,0,0,0,.494-1.192.276.276,0,0,1,.269-.27.326.326,0,0,0,.306-.237,1.929,1.929,0,0,0,.015-.536c-.014-.148-.134-.2-.278-.2-.189.005-.256-.066-.272-.258a1.832,1.832,0,0,0-.378-1.039.8.8,0,0,0-.695-.341,3.4,3.4,0,0,1-1.276-.126,3.354,3.354,0,0,1-1.138-.616m5.519,7.682a3.58,3.58,0,0,1,.333,1.257.264.264,0,0,0,.18.263.815.815,0,0,1,.456.893.838.838,0,0,1-1.621.105.8.8,0,0,1,.365-.958c.2-.1.235-.2.179-.383a.2.2,0,0,1,0-.03,2.675,2.675,0,0,0-.394-1.153.3.3,0,0,0-.238-.129.367.367,0,0,0-.472.291.848.848,0,0,1-.074.15c-.178.357-.178.357.092.657.148.164.154.229.039.416L7.337,14.147c-.033.054-.064.108-.1.172h4.594c0-.042.006-.076.006-.111,0-.685.013-1.371,0-2.055a2.31,2.31,0,0,0-1.3-2.08c-.082-.045-.172-.075-.29-.125M1.4,13.009c.027-.007.055-.017.083-.023.144-.028.243.022.276.145a.206.206,0,0,1-.146.262c-.07.029-.144.049-.213.08a.214.214,0,0,1-.289-.089,1.309,1.309,0,0,1,.312-1.867.246.246,0,0,0,.082-.157c.028-.231.029-.466.07-.694a5.322,5.322,0,0,1,.178-.592c-.056.028-.1.044-.134.067a2.3,2.3,0,0,0-1.179,2c-.016.69,0,1.381,0,2.071a.948.948,0,0,0,.01.1H5.008c-.039-.066-.068-.118-.1-.169L3.165,11.329c-.119-.192-.113-.246.038-.415a2.367,2.367,0,0,0,.2-.229.189.189,0,0,0,.024-.155c-.1-.217-.205-.429-.314-.64a.141.141,0,0,0-.086-.068.672.672,0,0,0-.831.391,1.805,1.805,0,0,0-.177.449c-.051.217-.071.44-.1.664.059,0,.074.007.089.006a1.314,1.314,0,0,1,1.3,1.532.216.216,0,0,1-.267.2c-.05-.008-.1-.013-.15-.018-.129-.014-.231-.069-.242-.208a.212.212,0,0,1,.2-.231c.013,0,.024-.016.033-.023a.878.878,0,0,0-.564-.779.75.75,0,0,0-.836.24.843.843,0,0,0-.078.968M8.508,3.65a3.381,3.381,0,0,0,.18-1.117A1.857,1.857,0,0,0,7.9.966,2.86,2.86,0,0,0,6.541.442a1.546,1.546,0,0,0-1.43.5.393.393,0,0,1-.326.152,1.369,1.369,0,0,0-1.4,1.059A2.4,2.4,0,0,0,3.533,3.64c0,.009.021.013.034.021a2.485,2.485,0,0,1,.986-1.754c.2-.144.254-.135.438.018a2.7,2.7,0,0,0,1.982.658,1.3,1.3,0,0,1,1.186.507,5.281,5.281,0,0,1,.35.561M6.656,14.323l.531-3.516H5.058l.531,3.516ZM4.989,10.338a10.2,10.2,0,0,0,2.269,0c.044-.293.073-.576.132-.852A1.225,1.225,0,0,0,7.3,8.565.583.583,0,0,1,7.26,8.4c-.029-.127-.058-.253-.09-.395a2.526,2.526,0,0,1-2.1,0c-.014.064-.023.118-.038.17-.066.222-.137.443-.2.666a.639.639,0,0,0-.038.247c.056.41.123.819.189,1.249M7.222,13.45l.038.007q.6-.962,1.191-1.924c.074-.12.206-.248.2-.364s-.16-.219-.249-.328l-.02-.023a.241.241,0,0,1-.038-.305c.146-.283.286-.57.428-.856.028-.056.052-.115.082-.181l-.984-.3L7.222,13.45M3.391,9.482c.127.256.247.5.365.737.263.535.272.407-.111.841a.143.143,0,0,0-.018.207c.441.7.876,1.413,1.314,2.12.019.031.044.059.09.121L4.378,9.179l-.843.252c-.043.013-.084.03-.143.051m6.983,2.329a.408.408,0,0,0-.4.411.41.41,0,0,0,.82-.016.409.409,0,0,0-.418-.4" transform="translate(0 0)"/></g></svg>