<?xml version="1.0" encoding="UTF-8"?><svg id="Capa_1" xmlns="http://www.w3.org/2000/svg" xmlns:xlink="http://www.w3.org/1999/xlink" viewBox="0 0 784.38 442.43"><defs><style>.cls-1{fill:none;}.cls-2{clip-path:url(#clippath);}.cls-3{fill:#ebebeb;}.cls-4{fill:#eb996e;}.cls-5{fill:#f5f5f5;}.cls-6{fill:#fff;}.cls-7{fill:#fafafa;}.cls-8{fill:#ffbe9d;}.cls-9{fill:#80e0de;}.cls-10{fill:#a26760;}.cls-11{fill:#9f6b5b;}.cls-12{fill:#c78976;}.cls-13{fill:#e0e0e0;}.cls-14{fill:#455a64;}.cls-15{fill:#263238;}.cls-16{fill:#4abdae;}.cls-17{fill:#774f44;}.cls-18{clip-path:url(#clippath-1);}.cls-19{clip-path:url(#clippath-4);}.cls-20{clip-path:url(#clippath-3);}.cls-21{clip-path:url(#clippath-2);}.cls-22{clip-path:url(#clippath-7);}.cls-23{clip-path:url(#clippath-8);}.cls-24{clip-path:url(#clippath-6);}.cls-25{clip-path:url(#clippath-5);}.cls-26{clip-path:url(#clippath-9);}.cls-27{clip-path:url(#clippath-20);}.cls-28{clip-path:url(#clippath-21);}.cls-29{clip-path:url(#clippath-24);}.cls-30{clip-path:url(#clippath-23);}.cls-31{clip-path:url(#clippath-22);}.cls-32{clip-path:url(#clippath-25);}.cls-33{clip-path:url(#clippath-14);}.cls-34{clip-path:url(#clippath-13);}.cls-35{clip-path:url(#clippath-12);}.cls-36{clip-path:url(#clippath-10);}.cls-37{clip-path:url(#clippath-15);}.cls-38{clip-path:url(#clippath-17);}.cls-39{clip-path:url(#clippath-16);}.cls-40{clip-path:url(#clippath-19);}.cls-41{clip-path:url(#clippath-11);}.cls-42{clip-path:url(#clippath-18);}.cls-43{opacity:.2;}.cls-44{opacity:.3;}</style><clipPath id="clippath"><rect class="cls-1" x="29.92" y="105.98" width="692.69" height="302.76"/></clipPath><clipPath id="clippath-1"><rect class="cls-1" x="29.92" y="105.98" width="692.69" height="302.76"/></clipPath><clipPath id="clippath-2"><rect class="cls-1" x="591.09" y="252.61" width="4.71" height="35.61"/></clipPath><clipPath id="clippath-3"><rect class="cls-1" x="646.86" y="305.54" width="29.62" height="8.14"/></clipPath><clipPath id="clippath-4"><rect class="cls-1" x="681.3" y="267.85" width="13.42" height="49.62"/></clipPath><clipPath id="clippath-5"><rect class="cls-1" x="584.56" y="397.95" width="101.35" height="5.65"/></clipPath><clipPath id="clippath-6"><rect class="cls-1" x="651.44" y="133.35" width="9.56" height="16.02"/></clipPath><clipPath id="clippath-7"><rect class="cls-1" x="663.63" y="155.04" width="11.61" height="26.65"/></clipPath><clipPath id="clippath-8"><rect class="cls-1" x="624.37" y="124.12" width="7.3" height="20.95"/></clipPath><clipPath id="clippath-9"><rect class="cls-1" x="29.92" y="105.98" width="692.69" height="302.76"/></clipPath><clipPath id="clippath-10"><rect class="cls-1" x="501.3" y="205.88" width="40.07" height="56.78"/></clipPath><clipPath id="clippath-11"><rect class="cls-1" x="503.57" y="289.1" width="26.99" height="13.3"/></clipPath><clipPath id="clippath-12"><rect class="cls-1" x="29.92" y="105.98" width="692.69" height="302.76"/></clipPath><clipPath id="clippath-13"><rect class="cls-1" x="295.37" y="323.25" width="31.58" height="22.32"/></clipPath><clipPath id="clippath-14"><rect class="cls-1" x="304.03" y="246.49" width="17.56" height="34.68"/></clipPath><clipPath id="clippath-15"><rect class="cls-1" x="257.46" y="227.92" width="29.34" height="14.15"/></clipPath><clipPath id="clippath-16"><rect class="cls-1" x="29.92" y="105.98" width="692.69" height="302.76"/></clipPath><clipPath id="clippath-17"><rect class="cls-1" x="347.36" y="325.15" width="101.99" height="19.7"/></clipPath><clipPath id="clippath-18"><rect class="cls-1" x="362.43" y="309.98" width="76.88" height="20.33"/></clipPath><clipPath id="clippath-19"><rect class="cls-1" x="435.16" y="256.97" width="4.5" height="39.13"/></clipPath><clipPath id="clippath-20"><rect class="cls-1" x="29.92" y="105.98" width="692.69" height="302.76"/></clipPath><clipPath id="clippath-21"><rect class="cls-1" x="163.15" y="201.98" width="29.06" height="65.22"/></clipPath><clipPath id="clippath-22"><rect class="cls-1" x="158.41" y="207.44" width="20.48" height="14.39"/></clipPath><clipPath id="clippath-23"><rect class="cls-1" x="109.49" y="337.46" width="26.32" height="13.68"/></clipPath><clipPath id="clippath-24"><rect class="cls-1" x="139.68" y="336.06" width="69.87" height="24.45"/></clipPath><clipPath id="clippath-25"><rect class="cls-1" x="29.92" y="105.98" width="692.69" height="302.76"/></clipPath></defs><g id="freepik--Icons--inject-13"><path id="Trazado_295" class="cls-16" d="M480.04,60.53c-.77-6.25-6.06-12.08-12.36-12.08-3.76,.15-7.3,1.83-9.79,4.65-.9,.92-1.73,1.9-2.49,2.95-.53-1.17-1.15-2.3-1.86-3.38-1.89-3.26-5.02-5.61-8.68-6.49-6.17-1.24-12.5,3.43-14.49,9.41s-.33,12.68,2.94,18.06c4.28,7.46,11.13,13.11,19.27,15.9,7.14-.92,16.74-7.26,21.01-11.9s7.21-10.88,6.46-17.12Z"/><path id="Trazado_296" class="cls-7" d="M477.75,71.75c-.07,0-.14,0-.21,0l-.61-.04-2.33-.19-8.56-.79,.16-.09c-1.04,2.69-2.24,5.85-3.57,9.28l-.21,.56-.14-.58c-1.09-4.51-2.3-9.57-3.57-14.9-.39-1.65-.79-3.28-1.16-4.86l.36,.07-6.54,8.99-.06,.09h-.11l-15.04-1.57-4.28-.47-1.13-.14c-.13,0-.26-.03-.39-.07,.13-.01,.26-.01,.39,0l1.13,.08,4.28,.37,15.06,1.43-.16,.07,6.51-9.01,.26-.36,.1,.43c.39,1.58,.77,3.2,1.17,4.86l3.57,14.91h-.36c1.35-3.45,2.58-6.59,3.64-9.28l.04-.11h.11l8.56,.91,2.32,.27,.61,.08c.06,.02,.12,.04,.17,.07h0Z"/><rect id="Rectángulo_23" class="cls-16" x="320.36" y="99.55" width="4.71" height="21.12"/><rect id="Rectángulo_24" class="cls-16" x="312.16" y="107.75" width="21.12" height="4.71"/><path id="Trazado_297" class="cls-16" d="M340.25,110.16c-.02-.09-.03-.19-.04-.29,0-.21-.04-.49-.06-.84,0-.21,0-.41-.04-.61-.04-.22-.07-.47-.11-.71-.08-.61-.2-1.22-.37-1.81-.41-1.64-1.07-3.21-1.95-4.65-4.29-7.19-13.09-10.32-20.96-7.44-.78,.28-1.54,.61-2.28,1-.74,.41-1.46,.87-2.14,1.38-.69,.52-1.36,1.08-1.98,1.68-.61,.64-1.18,1.31-1.71,2.02-1.08,1.46-1.92,3.08-2.49,4.8-1.2,3.57-1.2,7.43,0,11,.57,1.72,1.41,3.34,2.49,4.8,.52,.71,1.09,1.39,1.71,2.02,.62,.61,1.28,1.17,1.98,1.68,.68,.51,1.4,.97,2.14,1.38,.74,.38,1.5,.72,2.28,1,7.87,2.85,16.65-.26,20.96-7.44,.88-1.45,1.54-3.02,1.95-4.66,.17-.59,.29-1.19,.37-1.8,.04-.27,.09-.51,.11-.71,0-.21,.02-.41,.04-.61,0-.36,.04-.63,.06-.84,0-.1,.02-.19,.04-.29,0,.09,0,.19,0,.29v1.46c-.02,.24-.05,.48-.09,.71-.07,.62-.19,1.23-.34,1.83-.4,1.67-1.04,3.26-1.92,4.73-4.34,7.32-13.27,10.53-21.27,7.64-2.46-.87-4.69-2.28-6.52-4.12-.63-.64-1.21-1.33-1.74-2.05-1.11-1.48-1.97-3.14-2.55-4.9-.59-1.81-.9-3.71-.92-5.62,.03-1.91,.34-3.8,.92-5.61,.58-1.76,1.44-3.41,2.55-4.9,.53-.73,1.12-1.41,1.74-2.06,.64-.61,1.31-1.18,2.02-1.71,7.82-5.8,18.86-4.16,24.66,3.66,.37,.51,.72,1.03,1.04,1.57,.88,1.47,1.52,3.06,1.92,4.72,.16,.6,.27,1.22,.34,1.83,0,.26,.08,.51,.09,.71v1.46c.03,.1,.06,.2,.08,.3Z"/></g><g id="freepik--background-complete--inject-13"><g id="Grupo_3263"><path id="Trazado_248" class="cls-5" d="M699.95,402.69c-17.21-10.54-22.25-31.74-22.76-51.03-.09-3.22-.64-6.59,.71-9.5s4.81-5.05,7.77-3.88c2.46,.98,3.66,3.7,5.13,5.91,1.97,2.96,4.74,5.29,7.98,6.74,2.14,.94,4.68,1.43,6.63,.2,2.68-1.7,2.78-5.55,2.56-8.74-.39-5.95-.79-11.9-1.18-17.84-.21-3.2-.42-6.46,.39-9.55s2.85-6.04,5.82-7.08,6.86,.49,7.69,3.57c.2,1.32,.31,2.64,.34,3.98,.17,1.32,.87,2.75,2.14,3.05s2.53-.71,3.42-1.68c3.1-3.42,5.09-7.71,6.93-11.98s3.62-8.61,6.42-12.32,6.76-6.74,11.32-7.27,9.61,1.99,11.04,6.42-.92,9.17-3.57,12.99c-3.92,5.67-8.63,10.74-14,15.06-1.06,.67-1.88,1.68-2.33,2.85-.56,2.14,1.58,4.17,3.72,4.74,2.43,.65,5,.25,7.51,.39s5.27,1.08,6.36,3.38c1.51,3.19-1.02,6.78-3.57,9.18-5.12,4.81-11.02,8.71-17.46,11.52-2.3,1.01-4.73,1.91-6.52,3.67s-2.77,4.71-1.49,6.89,4.28,2.73,6.7,2.14,4.56-2.08,6.86-3.1c4.28-1.92,9.99-1.96,13.02,1.66,1.9,2.54,2.5,5.83,1.62,8.89-.89,3-2.38,5.78-4.38,8.19-6.45,8.78-15.13,15.69-25.13,20.02-9.98,4.15-19.36,5.71-29.72,2.58"/><path id="Trazado_249" class="cls-13" d="M704.19,390.32c2.56-10.68,5.74-21.21,9.51-31.53l2.92-8.14c.96-2.67,1.92-5.31,3.01-7.85,2.12-4.85,4.5-9.59,7.14-14.18,2.48-4.4,5-8.48,7.38-12.28s4.69-7.3,6.91-10.4c3.49-4.91,7.36-9.54,11.59-13.83,1.49-1.52,2.68-2.66,3.5-3.42l.94-.86c.1-.1,.21-.19,.33-.28-.09,.11-.18,.22-.29,.32l-.9,.91c-.79,.79-1.96,1.95-3.42,3.5-4.15,4.35-7.96,9-11.42,13.92-2.2,3.1-4.47,6.61-6.84,10.42s-4.86,7.9-7.32,12.3c-2.61,4.58-4.97,9.3-7.07,14.14-1.09,2.51-2.03,5.14-2.99,7.81s-1.93,5.39-2.91,8.13c-3.76,10.3-6.94,20.8-9.53,31.45"/><path id="Trazado_250" class="cls-13" d="M719.79,342.78c-.18-.43-.31-.88-.39-1.34-.22-.87-.5-2.14-.82-3.73-.64-3.15-1.38-7.54-2.18-12.38s-1.6-9.21-2.28-12.35c-.34-1.57-.64-2.85-.84-3.71-.14-.45-.22-.91-.26-1.38,.21,.42,.37,.86,.48,1.31,.28,.86,.63,2.14,1.02,3.67,.8,3.13,1.67,7.49,2.47,12.35s1.48,9.1,2.01,12.4c.25,1.49,.46,2.75,.64,3.75,.11,.46,.16,.92,.16,1.39h0Z"/><path id="Trazado_251" class="cls-13" d="M760.43,332.62c-.54,.14-1.08,.24-1.63,.29-1.04,.16-2.56,.38-4.43,.71-3.74,.64-8.88,1.69-14.49,3.1s-10.64,2.93-14.27,4.12c-1.8,.58-3.25,1.09-4.28,1.43-.51,.22-1.04,.38-1.58,.48,.48-.28,.98-.52,1.51-.71,.98-.41,2.41-.98,4.2-1.62,3.57-1.3,8.61-2.85,14.27-4.28,4.81-1.23,9.67-2.2,14.58-2.93,1.88-.28,3.41-.43,4.47-.52,.55-.08,1.11-.11,1.66-.08Z"/><path id="Trazado_252" class="cls-13" d="M704.65,389.53c-.12-.15-.23-.31-.31-.48-.21-.39-.47-.87-.79-1.43-.71-1.26-1.62-3.1-2.76-5.39-2.26-4.59-5.2-11.03-8.34-18.17s-6.01-13.61-8.18-18.24l-2.57-5.49-.71-1.49c-.1-.17-.17-.35-.21-.54,.12,.15,.22,.31,.31,.48l.79,1.43c.71,1.26,1.63,3.1,2.76,5.4,2.26,4.59,5.2,11.03,8.34,18.17s6.01,13.6,8.18,18.23l2.58,5.47,.71,1.5c.09,.17,.16,.36,.19,.55Z"/><path id="Trazado_253" class="cls-13" d="M758.2,368.63c-.16,.11-.34,.2-.53,.26l-1.56,.63-5.71,2.25c-4.84,1.9-11.5,4.6-18.85,7.59s-14.04,5.64-18.92,7.44c-2.44,.9-4.42,1.61-5.8,2.07l-1.59,.52c-.18,.08-.37,.12-.57,.14,.17-.11,.34-.19,.53-.26l1.56-.62,5.71-2.25c4.84-1.9,11.5-4.6,18.85-7.59s14.04-5.62,18.9-7.44c2.44-.91,4.42-1.61,5.8-2.08l1.59-.52c.19-.08,.39-.13,.59-.14h0Z"/></g><g id="Grupo_3264"><path id="Trazado_254" class="cls-5" d="M41.42,152.57c5.21,5.96,13.67,15.53,17.55,19.94,1.15,1.3,3.13,1.42,4.42,.28l16.24-14.26c1.3-1.14,1.43-3.12,.29-4.42,0,0,0,0,0,0l-17.4-19.8c-2.54-2.89-6.94-3.18-9.83-.65,0,0,0,0-.01,0h0l-2.53-2.89-10.61,9.34,2.4,2.74-.02,.04c-2.75,2.56-2.97,6.84-.5,9.67Z"/><path id="Trazado_255" class="cls-13" d="M39.85,140.47l1.16,1.32,10.97-8.95-1.49-1.71-10.64,9.34Z"/><path id="Trazado_256" class="cls-3" d="M36.35,135.73l9.92-8.71c.89-.78,2.24-.69,3.02,.2l2.32,2.64c.5,.57,.45,1.44-.13,1.94h0l-11.06,9.71c-.57,.5-1.44,.45-1.94-.13l-2.32-2.64c-.78-.89-.69-2.24,.2-3.02h0s0,0,0,0Z"/><path id="Trazado_257" class="cls-13" d="M41.06,140.93c-.9-.75-1.72-1.59-2.44-2.5-.82-.84-1.54-1.76-2.17-2.75,.9,.75,1.73,1.59,2.46,2.51,.81,.83,1.54,1.75,2.15,2.74Z"/><path id="Trazado_258" class="cls-13" d="M42.47,139.7c-.9-.75-1.72-1.59-2.45-2.5-.82-.83-1.54-1.76-2.16-2.75,.9,.75,1.72,1.59,2.45,2.5,.82,.84,1.54,1.76,2.16,2.75Z"/><path id="Trazado_259" class="cls-13" d="M43.87,138.47c-.9-.75-1.72-1.59-2.45-2.5-.82-.84-1.55-1.76-2.17-2.75,.9,.75,1.72,1.59,2.45,2.5,.82,.84,1.54,1.76,2.17,2.75Z"/><path id="Trazado_260" class="cls-13" d="M45.28,137.24c-.9-.74-1.73-1.58-2.45-2.5-.82-.84-1.55-1.76-2.17-2.75,.9,.75,1.72,1.59,2.44,2.51,.82,.84,1.54,1.76,2.17,2.75h0Z"/><path id="Trazado_261" class="cls-13" d="M46.67,136.01c-.9-.75-1.72-1.58-2.45-2.5-.82-.83-1.55-1.74-2.18-2.71,.9,.75,1.72,1.58,2.45,2.5,.82,.83,1.55,1.74,2.18,2.71Z"/><path id="Trazado_262" class="cls-13" d="M48.08,134.77c-.9-.75-1.72-1.59-2.44-2.51-.82-.84-1.54-1.76-2.17-2.75,.9,.74,1.73,1.58,2.45,2.5,.82,.84,1.55,1.76,2.17,2.75h0Z"/><path id="Trazado_263" class="cls-13" d="M49.48,133.55c-.9-.75-1.72-1.59-2.45-2.5-.82-.84-1.54-1.76-2.17-2.75,.9,.75,1.72,1.59,2.45,2.5,.82,.84,1.55,1.76,2.17,2.75Z"/><path id="Trazado_264" class="cls-13" d="M50.88,132.32c-.9-.75-1.72-1.59-2.44-2.5-.82-.84-1.55-1.76-2.17-2.75,.9,.75,1.72,1.59,2.45,2.5,.82,.84,1.54,1.76,2.16,2.75Z"/><rect id="Rectángulo_20" class="cls-3" x="48.82" y="144.49" width="20.28" height="13.42" rx="1.48" ry="1.48" transform="translate(-85.11 76.48) rotate(-41.28)"/><path id="Trazado_265" class="cls-13" d="M69.36,149.73c-.06-.05-.11-.1-.16-.16l-.42-.46-1.59-1.75c-1.37-1.5-3.29-3.68-5.61-6.29l.21,.02-13.33,11.75s.04-.49,.02-.26h0l.04,.02,.07,.07,.13,.14,.25,.29,.51,.58c.33,.39,.67,.76,1.02,1.15,.66,.76,1.33,1.48,1.96,2.24l3.69,4.22-.24-.02,9.64-8.35,2.82-2.38,.76-.64c.09-.08,.18-.15,.28-.22l-.23,.22-.71,.65-2.7,2.44-9.62,8.55-.12,.11-.12-.13c-1.18-1.34-2.42-2.74-3.71-4.2-.65-.73-1.3-1.47-1.96-2.23-.34-.38-.67-.76-1.02-1.15l-.51-.57-.25-.3-.13-.14-.07-.07-.04-.02h0l.02-.27,13.34-11.73,.11-.1,.1,.11c2.32,2.69,4.22,4.9,5.57,6.46l1.5,1.77,.38,.46c.09,.11,.13,.16,.12,.16Z"/><path id="Trazado_266" class="cls-13" d="M62.1,145.63c-1.39,1.47-2.87,2.86-4.43,4.15-1.47,1.38-3.03,2.66-4.66,3.85,1.39-1.47,2.87-2.86,4.43-4.15,1.47-1.38,3.03-2.66,4.66-3.85Z"/><path id="Trazado_267" class="cls-13" d="M63.45,147.17c-1.39,1.48-2.87,2.86-4.43,4.15-1.47,1.37-3.03,2.66-4.66,3.85,1.39-1.47,2.87-2.86,4.43-4.15,1.47-1.38,3.03-2.66,4.66-3.85Z"/><path id="Trazado_268" class="cls-13" d="M64.76,148.65c-1.39,1.48-2.87,2.86-4.43,4.15-1.47,1.38-3.03,2.66-4.66,3.85,1.39-1.48,2.87-2.86,4.43-4.15,1.47-1.37,3.03-2.66,4.66-3.85Z"/><path id="Trazado_269" class="cls-13" d="M52.02,134.11c-1.52,1.59-3.13,3.08-4.82,4.49-1.61,1.5-3.31,2.9-5.08,4.21,1.52-1.59,3.13-3.09,4.83-4.49,1.61-1.5,3.31-2.9,5.07-4.21h0Z"/><path id="Trazado_270" class="cls-6" d="M58.84,170.59c-.31-.28-.61-.57-.87-.89-.58-.64-1.35-1.49-2.28-2.52-1.91-2.14-4.53-5.11-7.41-8.41-1.43-1.65-2.8-3.22-4.03-4.66-1.18-1.23-2.1-2.69-2.69-4.29-.36-1.11-.36-2.3,0-3.41,.11-.29,.25-.57,.42-.83,.06-.09,.13-.17,.21-.24-.19,.36-.36,.74-.49,1.13-.29,1.08-.24,2.21,.12,3.27,.61,1.55,1.52,2.96,2.69,4.15,1.25,1.44,2.63,3,4.05,4.63,2.88,3.29,5.47,6.3,7.33,8.48l2.19,2.6c.28,.31,.54,.65,.76,1Z"/><path id="Trazado_271" class="cls-6" d="M80.59,156.35c-.29,.17-.6,.31-.92,.41-.31,.12-.68,.27-1.1,.47s-.91,.39-1.43,.66c-1.22,.6-2.41,1.27-3.55,2.01-1.38,.92-2.7,1.93-3.95,3.03-1.25,1.11-2.42,2.29-3.5,3.56-.88,1.04-1.7,2.12-2.46,3.26-.34,.48-.6,.94-.84,1.32s-.44,.74-.6,1.03c-.15,.3-.33,.6-.53,.87,.1-.32,.23-.64,.4-.93l.54-1.06c.23-.48,.5-.93,.8-1.36,.73-1.17,1.53-2.28,2.41-3.35,1.09-1.29,2.26-2.5,3.52-3.62,1.27-1.1,2.62-2.11,4.04-3.02,1.16-.73,2.38-1.38,3.62-1.96,.52-.25,1.02-.44,1.46-.61,.37-.15,.74-.29,1.12-.41,.31-.12,.63-.22,.96-.29h0Z"/></g><g id="Grupo_3266"><rect id="Rectángulo_21" class="cls-13" x="531.46" y="65.68" width="88.97" height="64.76" rx="2.41" ry="2.41" transform="translate(275.37 599.05) rotate(-68.7)"/><rect id="Rectángulo_22" class="cls-7" x="534.98" y="68.2" width="82.81" height="57.53" transform="translate(276.67 598.75) rotate(-68.7)"/><path id="Trazado_272" class="cls-3" d="M601.87,63.8c-.24-2.66-1.97-4.95-4.46-5.92l1.21-3.3c.96-2.48-.26-5.26-2.73-6.24h0c-2.49-.97-5.29,.26-6.27,2.75,0,0,0,0,0,0l-1.33,3.41-1.16-.43c-2.47-.91-5.24-.38-7.19,1.39l-1.2,1.12,23.33,9.1-.19-1.89Zm-8.59-8.46c-1.34-.53-1.99-2.03-1.47-3.37,.53-1.34,2.03-1.99,3.37-1.47,1.34,.53,1.99,2.03,1.47,3.37-.25,.64-.74,1.15-1.37,1.43-.63,.28-1.35,.29-2,.04Z"/><path id="Trazado_273" class="cls-13" d="M580.23,66.61c-.03,.1-3.32-1.09-7.35-2.65-2.46-.88-4.87-1.89-7.22-3.03,.02-.12,3.32,1.09,7.35,2.65,2.46,.88,4.86,1.89,7.22,3.03Z"/><path id="Trazado_274" class="cls-13" d="M571.75,66.13c-1.23-.28-2.42-.67-3.57-1.19-1.19-.41-2.33-.93-3.41-1.56,1.22,.29,2.41,.7,3.56,1.23,1.19,.4,2.33,.91,3.42,1.52h0Z"/><path id="Trazado_275" class="cls-13" d="M603.23,86.27c-.03,.09-9.12-3.36-20.29-7.72-11.17-4.36-20.2-7.96-20.18-8.04s9.14,3.34,20.3,7.67c11.15,4.33,20.21,7.99,20.17,8.08Z"/><path id="Trazado_276" class="cls-13" d="M601.73,90.13c-.04,.09-9.12-3.36-20.3-7.71-11.17-4.35-20.2-7.96-20.18-8.04s9.12,3.35,20.3,7.71,20.21,7.93,20.18,8.04Z"/><path id="Trazado_277" class="cls-13" d="M600.22,93.99c-.03,.1-9.12-3.36-20.29-7.71-11.17-4.35-20.2-7.96-20.18-8.04s9.12,3.36,20.3,7.71c11.17,4.35,20.22,7.94,20.18,8.04Z"/><path id="Trazado_278" class="cls-13" d="M598.72,97.85c-.04,.09-9.12-3.36-20.3-7.71s-20.19-7.97-20.18-8.04,9.12,3.36,20.29,7.72c11.17,4.36,20.22,7.94,20.18,8.03Z"/><path id="Trazado_279" class="cls-13" d="M597.22,101.7c-.04,.09-9.13-3.35-20.3-7.71s-20.2-7.96-20.18-8.04,9.16,3.36,20.31,7.69,20.19,7.97,20.16,8.06Z"/><path id="Trazado_280" class="cls-13" d="M595.72,105.56c-.04,.09-9.12-3.36-20.29-7.71s-20.2-7.96-20.18-8.04,9.12,3.36,20.29,7.71c11.17,4.35,20.22,7.94,20.18,8.04Z"/><path id="Trazado_281" class="cls-13" d="M574.13,101.15c-.28-.04-.55-.12-.81-.23l-2.19-.79c-1.84-.69-4.38-1.66-7.17-2.74s-5.32-2.09-7.14-2.84l-2.16-.91c-.27-.09-.53-.22-.76-.38,.27,.05,.54,.13,.81,.23l2.18,.79c1.84,.68,4.39,1.65,7.18,2.73s5.31,2.1,7.13,2.84l2.16,.91c.27,.1,.53,.22,.77,.38h0Z"/><path id="Trazado_282" class="cls-13" d="M608.74,77.32c-1.14-.25-2.25-.61-3.31-1.09-1.11-.36-2.17-.84-3.17-1.43,1.14,.25,2.25,.61,3.31,1.09,1.11,.36,2.17,.84,3.17,1.43Z"/><path id="Trazado_283" class="cls-13" d="M561.64,105.97c-1.81-.51-3.59-1.13-5.32-1.88-1.77-.63-3.51-1.37-5.18-2.22,1.81,.51,3.59,1.13,5.32,1.88,1.77,.63,3.51,1.37,5.18,2.22Z"/><path id="Trazado_284" class="cls-13" d="M560.64,109.61c-1.84-.52-3.65-1.15-5.4-1.91-1.81-.64-3.57-1.39-5.27-2.25,1.84,.52,3.65,1.16,5.41,1.91,1.8,.64,3.56,1.39,5.27,2.26Z"/><path id="Trazado_285" class="cls-13" d="M592.35,117.34c-.9-.15-1.78-.42-2.6-.81-.87-.27-1.71-.67-2.47-1.17,.9,.16,1.78,.43,2.61,.82,.87,.28,1.7,.67,2.47,1.16h0Z"/><path id="Trazado_286" class="cls-13" d="M591.28,120.55c-.9-.16-1.78-.43-2.61-.82-.87-.28-1.7-.67-2.47-1.16,.9,.15,1.78,.42,2.6,.81,.87,.27,1.71,.67,2.47,1.17Z"/><path id="Trazado_287" class="cls-13" d="M554.31,111.38c-.87-.14-1.72-.41-2.52-.78-.84-.26-1.65-.64-2.39-1.13,.88,.14,1.73,.39,2.54,.76,.84,.27,1.63,.66,2.36,1.15Z"/><path id="Trazado_288" class="cls-13" d="M590.02,124.29c-.66-.06-1.31-.24-1.9-.54-.64-.18-1.25-.48-1.79-.88,.67,.06,1.31,.24,1.91,.54,.64,.18,1.25,.48,1.78,.87Z"/><path id="Trazado_289" class="cls-13" d="M545.84,117.65c.08,0,.17,.02,.25,.04l.7,.17,2.65,.68,9.45,2.51,.19,.05-.08,.17c-.47,.97-1.26,1.76-2.24,2.21-1.06,.52-2.3,.53-3.36,.01-1.15-.54-1.96-1.62-2.15-2.88-.12-1.33,.56-2.6,1.74-3.23,.44-.24,.94-.36,1.44-.36,.12,0,.25,0,.37,.02,.13,.01,.26,.04,.38,.08,.17,.06,.29,.2,.34,.37,.02,.15,0,.29-.05,.43-.3,.87-.8,1.67-1.44,2.32-.61,.64-1.35,1.15-2.18,1.48-.79,.37-1.68,.46-2.53,.27-.84-.24-1.46-.94-1.61-1.8-.15-.77-.03-1.57,.34-2.27,.74-1.14,1.76-2.09,2.95-2.75l.23-.15-.02,.28c-.11,1.14-.57,2.22-1.32,3.09-.56,.65-1.24,1.18-2.02,1.55-.49,.23-1,.38-1.53,.45-.19,.02-.32,.02-.42,.02s-.14,0-.14,0c.71-.09,1.39-.29,2.04-.6,.74-.38,1.39-.91,1.92-1.55,.7-.85,1.13-1.89,1.22-2.98l.2,.12c-1.15,.64-2.12,1.55-2.84,2.65-.33,.63-.43,1.36-.29,2.06,.13,.73,.66,1.33,1.38,1.53,.78,.17,1.59,.08,2.31-.26,.78-.32,1.48-.8,2.06-1.41,.6-.63,1.05-1.39,1.32-2.21,.04-.08,.05-.16,.04-.24-.01-.05-.05-.1-.11-.11-.19-.06-.4-.09-.6-.08-.43,0-.86,.12-1.24,.34-1.05,.56-1.66,1.69-1.55,2.87,.18,1.12,.89,2.08,1.91,2.57,.97,.47,2.09,.47,3.06,0,.91-.42,1.65-1.14,2.09-2.04l.1,.23-9.42-2.64-2.65-.75-.68-.21c-.07,0-.14-.01-.2-.03Z"/><path id="Trazado_290" class="cls-13" d="M584.27,132.47c-.17,.15-.36,.28-.57,.37-.24,.13-.51,.22-.78,.28-.38,.09-.79,.03-1.13-.17-.22-.12-.39-.3-.49-.52-.09-.24-.12-.5-.07-.76,.12-.51,.27-1.02,.45-1.51l1.2-3.51,.27,.19c-1.23,1.07-2.58,2.25-3.99,3.47-.32,.31-.65,.6-1,.86l-.52,.49,.27-.69c.8-2.08,1.55-4.03,2.2-5.72l.2,.22c-1.5,.77-2.9,1.75-4.14,2.89-.89,.83-1.35,1.36-1.37,1.34,.08-.15,.17-.3,.29-.42,.3-.37,.62-.72,.96-1.06,1.2-1.21,2.58-2.23,4.08-3.04l.38-.2-.15,.4-2.15,5.74-.3-.21c.32-.31,.65-.59,1-.86,1.42-1.22,2.77-2.38,4.01-3.45l.47-.44-.21,.6c-.43,1.26-.84,2.43-1.21,3.49-.18,.48-.34,.97-.48,1.47-.11,.4,.04,.82,.39,1.05,.54,.28,1.19,.28,1.72-.02,.22-.11,.44-.2,.67-.27h0Z"/><path id="Trazado_291" class="cls-13" d="M586.18,130.6c-.02,.09-3.57-.62-7.92-1.61s-7.86-1.87-7.84-1.97,3.54,.6,7.92,1.61c4.38,1.01,7.86,1.87,7.84,1.97Z"/><path id="Trazado_292" class="cls-13" d="M588.19,133.67c-2.18-.05-4.35-.23-6.5-.53-2.17-.18-4.33-.48-6.46-.9,2.17,.06,4.35,.23,6.5,.53,2.17,.18,4.33,.48,6.46,.9Z"/></g><g id="Grupo_3265"><path id="Trazado_293" class="cls-5" d="M227.35,53.66h-3l-6.51-9.16v-5.99s-4.65-.28-4.1,7.56-.04,5.85-.04,5.85c0,0-9.85,.04-10.7,.9-.6,.62-.86,10.41-.97,15.7-.13,2.64,1.55,5.02,4.07,5.79,.34,.1,.68,.16,1.04,.17,2.46,0,14.99-2,14.99-2h5.19l.04-18.82Z"/><path id="Trazado_294" class="cls-5" d="M235.95,52.01l-1.85,20.54h-5.15v-20.12l6.99-.41Z"/></g></g><g id="Grupo_3262"><g class="cls-2"><g id="Grupo_3261"><rect id="Rectángulo_3496" class="cls-14" x="584.33" y="394.72" width="109.7" height="13.75"/><path id="Trazado_7290" class="cls-12" d="M621.97,223.76l9.33-2.02,33.32,2.74,7.09,3.05-30.4,35.6-19.34-39.37Z"/><g id="Grupo_3214"><g class="cls-18"><g id="Grupo_3213"><path id="Trazado_7291" class="cls-14" d="M679.22,318.33s21.64-63.04,20.07-67.43-27.91-24.15-27.91-24.15l-28.22,32.3-18.5-37.32s-24.73,9.95-27.58,10.45c-5.98,1.04-11.23,8-14.12,14.64-7.19,16.57-15.82,45.7-15.82,45.7l26.65,10.66,2.62-5.1c-1.4,6.49-4.24,18.92-7.34,28.3-8.13,24.63-7,71.88-7,71.88l108.35-.31s2.29-30.7,.41-47.64-11.6-31.99-11.6-31.99"/><path id="Trazado_7292" class="cls-15" d="M650.58,274.37c.18-.09,.37-.16,.56-.21,.56-.19,1.15-.32,1.74-.38,2.24-.2,4.5,.05,6.65,.72,2.79,.75,6.08,1.95,9.87,3.23,1.89,.64,3.92,1.29,6.08,1.85,2.24,.64,4.54,1.01,6.86,1.11h.34l-.06,.31c-1.62,8.97-3.51,19.47-5.53,30.66-.1,.57-.21,1.14-.31,1.7l-.07,.39-.36-.16c-2.57-1.17-5.12-2.27-7.64-3.28-2.44-1.03-4.94-1.89-7.49-2.58-4.74-.96-9.55-1.59-14.38-1.88l-.28-.02,.03-.27c1.17-9.36,2.14-17.16,2.83-22.68,.35-2.68,.63-4.8,.82-6.3,.1-.69,.17-1.23,.23-1.65,.02-.18,.05-.37,.1-.55,0,.2,0,.4-.04,.6-.04,.42-.1,.98-.17,1.69-.16,1.51-.4,3.66-.69,6.36-.63,5.49-1.51,13.26-2.57,22.58l-.24-.29c4.86,.27,9.7,.88,14.48,1.84,2.58,.69,5.12,1.55,7.58,2.59,2.53,1.02,5.09,2.11,7.67,3.29l-.43,.22c.1-.56,.21-1.13,.31-1.7,2.05-11.18,3.97-21.68,5.61-30.64l.28,.32c-2.38-.1-4.74-.49-7.03-1.17-2.18-.58-4.21-1.25-6.1-1.91-3.78-1.32-7.05-2.56-9.81-3.34-2.11-.69-4.33-.99-6.54-.86-.78,.1-1.55,.24-2.32,.43"/><path id="Trazado_7293" class="cls-14" d="M699.29,250.9l16.31,61.47-33.03,11.96-3.35-6,20.07-67.43Z"/><path id="Trazado_7294" class="cls-15" d="M582.06,386.38c.09,0,.18,0,.27,.03l.79,.13,3.03,.51c2.63,.42,6.45,1.01,11.2,1.35,2.58,.2,5.17,.19,7.76,0,.7-.05,1.4-.15,2.09-.3,.35-.08,.71-.12,1.05-.22l1.03-.34c1.39-.39,2.15-1.84,2.78-3.21,.61-1.48,1.08-3.01,1.4-4.57,.36-1.6,.65-3.26,.89-4.95,.48-3.39,.79-6.92,1.02-10.55,.47-7.93,.54-15.47,.42-22.14l.27,.27-22.06-.46-6.27-.18-1.66-.07c-.19,0-.38-.02-.57-.05,.19-.03,.38-.04,.57-.04l1.66-.02,6.27,.02,22.06,.24h.27v.27c.16,6.69,.11,14.24-.36,22.19-.23,3.64-.54,7.19-1.03,10.6-.24,1.7-.54,3.37-.91,4.99-.34,1.6-.82,3.16-1.45,4.67-.31,.74-.71,1.44-1.18,2.08-.25,.32-.53,.61-.84,.87-.33,.23-.69,.42-1.07,.54l-1.09,.35c-.36,.1-.73,.15-1.09,.22-.71,.14-1.42,.24-2.14,.29-2.61,.18-5.23,.16-7.83-.07-3.76-.32-7.5-.83-11.21-1.54-1.31-.25-2.33-.47-3.01-.62l-.78-.19c-.09-.02-.18-.05-.26-.09"/><path id="Trazado_7295" class="cls-15" d="M615.75,349.82c0,.17-7.03,.31-15.71,.31s-15.71-.14-15.71-.31,7.03-.31,15.71-.31,15.71,.14,15.71,.31"/><path id="Trazado_7296" class="cls-15" d="M595.8,288.22c-.17-.61-.28-1.24-.34-1.87-.18-1.21-.41-2.97-.65-5.15-.62-5.67-.95-11.38-1-17.09-.04-5.71,.26-11.42,.89-17.1,.25-2.18,.49-3.93,.69-5.14,.07-.63,.19-1.26,.37-1.87,0,.64-.04,1.27-.13,1.9-.13,1.22-.3,2.98-.5,5.15-.39,4.35-.75,10.38-.71,17.05s.46,12.69,.82,17.05c.19,2.1,.34,3.83,.46,5.16,.09,.63,.12,1.26,.11,1.9"/><path id="Trazado_7297" class="cls-15" d="M679.22,232.78c-.16,.28-.34,.55-.54,.81-.41,.55-.96,1.3-1.66,2.25l-6.22,8.29-21.13,27.8-.09,.12h-13.57l-.08-.17c-6.06-12.82-11.45-24.21-15.34-32.46l-4.51-9.7-1.19-2.63c-.12-.28-.22-.5-.3-.69-.04-.08-.07-.16-.08-.24,.06,.07,.1,.14,.14,.22,.09,.18,.21,.4,.35,.66l1.29,2.58,4.68,9.62c3.94,8.22,9.39,19.58,15.52,32.37l-.28-.17h13.23l-.24,.12,21.29-27.68,6.37-8.18,1.74-2.19c.19-.26,.41-.51,.64-.74"/><path id="Trazado_7298" class="cls-15" d="M676.83,345.1c-.32-.29-.61-.62-.85-.99-.52-.66-1.23-1.64-2.06-2.89-4.32-6.55-7.41-13.84-9.11-21.51-.32-1.47-.53-2.66-.64-3.5-.09-.43-.13-.86-.11-1.3,.1-.02,.44,1.8,1.18,4.7,1.92,7.54,4.97,14.75,9.06,21.37,1.56,2.54,2.63,4.05,2.55,4.11"/><path id="Trazado_7299" class="cls-15" d="M668.61,327.5c-.1-.15,2.74-2.12,5.97-4.89s5.63-5.26,5.77-5.13c-1.52,2.11-3.33,3.99-5.37,5.6-3.27,2.8-6.29,4.56-6.37,4.43"/><path id="Trazado_7300" class="cls-15" d="M683.72,326.67c-.11-.12-.2-.26-.27-.41l-.7-1.24-2.56-4.73-.03-.06,.02-.07c1.72-6.62,4.62-17.47,7.96-29.71l7.16-25.94c.93-3.26,1.69-5.92,2.24-7.84l.64-2.12c.06-.25,.15-.5,.26-.73-.02,.26-.07,.51-.14,.76-.14,.55-.31,1.27-.53,2.15-.5,1.94-1.2,4.62-2.05,7.89l-6.98,25.99c-3.33,12.24-6.33,23.07-8.2,29.65v-.13c.99,2.01,1.8,3.63,2.4,4.81l.62,1.29c.08,.14,.14,.3,.18,.46"/><g id="Grupo_3194" class="cls-44"><g id="Grupo_3193"><g class="cls-21"><g id="Grupo_3192"><path id="Trazado_7301" d="M595.8,288.22c-5.77-11.07-6.27-24.14-1.36-35.61,0,0,.15,29.82,1.36,35.61"/></g></g></g></g><path id="Trazado_7302" class="cls-15" d="M680.78,287.57c-.42,.02-.84-.02-1.26-.11-.8-.11-1.96-.29-3.38-.55-2.85-.51-6.77-1.31-11.05-2.37s-8.13-2.17-10.88-3.05c-1.38-.44-2.49-.81-3.25-1.09-.41-.11-.8-.28-1.16-.49,.42,.03,.84,.12,1.23,.26l3.3,.9c2.78,.77,6.63,1.81,10.91,2.87s8.17,1.92,10.99,2.54l3.34,.74c.42,.06,.82,.18,1.21,.34"/><g id="Grupo_3197" class="cls-44"><g id="Grupo_3196"><g class="cls-20"><g id="Grupo_3195"><path id="Trazado_7303" d="M646.86,305.58s20.89,10.16,29.62,7.73c0,0-14.9-8.34-29.62-7.73"/></g></g></g></g><g id="Grupo_3200" class="cls-44"><g id="Grupo_3199"><g class="cls-19"><g id="Grupo_3198"><path id="Trazado_7304" d="M681.3,317.48s16.11-10.09,13.03-49.62l-13.03,49.62Z"/></g></g></g></g><path id="Trazado_7305" class="cls-15" d="M684.79,398.26c0,.17-22.77,.31-50.85,.31s-50.86-.14-50.86-.31,22.77-.31,50.86-.31,50.85,.14,50.85,.31"/><path id="Trazado_7306" class="cls-12" d="M705.12,316.21s2.31,38.33,1.37,44.29c-.94,5.96-4.31,32.93-4.31,32.93l-13.57-2.82-3.7-67.08,20.21-7.32Z"/><path id="Trazado_7307" class="cls-12" d="M683,408.48c-.05-1.23,0-2.46,.16-3.67,.46-2.17,5.37-15.66,5.37-15.66l13.57,2.82,.23,.52c1.11,2.54,5.89,13.56,5.89,14.06,0,.13-.04,1.16-.1,1.93l-16.28,.05-.47-3.42s-.56,1.63-1.16,3.32l-7.2,.05Z"/><g id="Grupo_3203" class="cls-44"><g id="Grupo_3202"><g class="cls-25"><g id="Grupo_3201"><path id="Trazado_7308" d="M584.56,398.34c15.44,6.1,32.6,5.54,49.18,4.88,17.49-.7,35.09-1.41,52.17-5.26l-101.35,.39Z"/></g></g></g></g><path id="Trazado_7309" class="cls-9" d="M663.4,206.19c6.55-3.12,11.07-9.34,12.03-16.53,.37-2.99,.1-6.05,.79-8.99,.99-4.2,3.91-7.98,3.76-12.3-.1-2.87-1.57-5.51-2.03-8.34-.44-2.74,.07-5.53-.07-8.3-.5-7.22-5.29-13.42-12.14-15.74l-17.7-5.75-25.74,12.71s-14.03,15.72-7.54,45.53l48.63,17.71Z"/><path id="Trazado_7310" class="cls-14" d="M617.85,190.92c-.55-.61-1.24-1.09-2.01-1.38h.16c-.14-.04-.29-.07-.43-.09-.53-.17-1.11-.11-1.6,.17h.02c-.89,.3-1.64,.93-2.09,1.76-.72,1.5-.55,3.27,.44,4.6,.96,1.62,3.05,2.16,4.66,1.2,.83-.49,1.41-1.31,1.61-2.26,.45-1.37,.17-2.88-.75-4"/><path id="Trazado_7311" class="cls-12" d="M616.19,163.35c1.07-9.74,8.1-21.42,17.78-19.94l30.03,9.09c2.94,.45,5.05,3.08,4.85,6.05l-4.05,65.07c-.62,9.86-9.11,17.34-18.96,16.73-9.44-.59-16.79-8.44-16.76-17.9,.01-4.47,.01-7.83,.01-7.81,0,0-12.38-2.65-14.21-19.06-.91-8.16,.11-21.42,1.3-32.24"/><path id="Trazado_7312" class="cls-15" d="M621.98,177.33c-.06,1.13,.79,2.11,1.92,2.2,1.1,.14,2.1-.64,2.23-1.73,0-.02,0-.03,0-.05,.06-1.13-.79-2.1-1.91-2.2-1.1-.14-2.1,.64-2.24,1.73,0,.02,0,.04,0,.05"/><path id="Trazado_7313" class="cls-15" d="M618.75,170.39c.25,.29,1.88-.81,4.13-.7,2.24,.08,3.84,1.31,4.1,1.05,.13-.12-.11-.62-.81-1.18-.94-.72-2.08-1.13-3.27-1.17-1.17-.06-2.32,.26-3.3,.9-.72,.5-.97,.98-.85,1.11"/><path id="Trazado_7314" class="cls-15" d="M642.85,177.33c-.06,1.13,.79,2.11,1.91,2.2,1.1,.14,2.1-.64,2.24-1.73,0-.02,0-.03,0-.05,.06-1.13-.79-2.11-1.91-2.2-1.1-.14-2.1,.64-2.24,1.73,0,.02,0,.03,0,.05"/><path id="Trazado_7315" class="cls-15" d="M640.82,171.83c.25,.28,1.89-.81,4.13-.7,2.24,.08,3.84,1.31,4.1,1.05,.12-.12-.11-.62-.81-1.18-.94-.72-2.08-1.13-3.27-1.18-1.17-.06-2.32,.26-3.3,.9-.71,.5-.97,.98-.85,1.11"/><path id="Trazado_7316" class="cls-15" d="M631.89,188.12c-1.17-.43-2.38-.7-3.62-.83-.57-.09-1.11-.22-1.19-.62-.02-.6,.14-1.18,.46-1.68l1.9-4.29c2.65-6.11,4.59-11.15,4.34-11.25s-2.59,4.76-5.24,10.88c-.64,1.51-1.25,2.95-1.83,4.32-.39,.68-.53,1.47-.4,2.24,.15,.42,.48,.74,.9,.88,.31,.1,.64,.16,.97,.18,1.22,.22,2.46,.27,3.7,.18"/><path id="Trazado_7317" class="cls-10" d="M629.1,214.64c7.66,.47,15.3-1.19,22.08-4.8,0,0-5.81,10.94-22.04,8.66l-.04-3.86Z"/><path id="Trazado_7318" class="cls-10" d="M631.97,193.48c1.1-1.46,2.84-2.28,4.66-2.2,1.19,.07,2.27,.72,2.88,1.75,.91,1.58,.37,3.6-1.21,4.51-.83,.48-1.82,.57-2.72,.26-1.23-.46-2.33-1.22-3.21-2.2-.28-.24-.51-.54-.67-.87-.16-.38-.1-.81,.14-1.14"/><path id="Trazado_7319" class="cls-15" d="M638.43,189.98c-.36-.04-.48,2.4-2.65,4.04s-4.75,1.25-4.79,1.58c-.04,.15,.56,.5,1.65,.58,1.43,.09,2.84-.33,3.99-1.19,1.1-.82,1.84-2.03,2.07-3.39,.14-1.01-.1-1.63-.27-1.63"/><path id="Trazado_7320" class="cls-15" d="M640.25,162.54c.19,.62,2.45,.44,5.07,.88,2.63,.39,4.72,1.26,5.1,.73,.17-.26-.18-.85-1.01-1.48-2.26-1.58-5.11-2.03-7.75-1.22-.99,.35-1.5,.8-1.41,1.1"/><path id="Trazado_7321" class="cls-15" d="M619.9,162.69c.37,.53,1.94,.07,3.81,.13,1.86,0,3.42,.5,3.81-.01,.17-.25-.05-.77-.72-1.29-1.84-1.27-4.26-1.31-6.14-.1-.68,.49-.92,1.01-.76,1.27"/><path id="Trazado_7322" class="cls-15" d="M646.74,146.24c7.46-.1,14.86,1.26,21.81,3.98,2.06,.81,4.2,1.84,5.37,3.72,.9,1.74,1.29,3.7,1.13,5.65-.08,6.1-2.55,13.56-4.89,19.2l-2.85,4.87c-4.24-.99-7.93-11.85-7.64-16.93-4.16-1.91-6.87-6.02-6.98-10.6-3.39-2.22-5.57-5.86-5.94-9.89"/><path id="Trazado_7323" class="cls-12" d="M662.63,181.14c.24-3.49,4.52-4.16,7.52-2.35,1.64,.99,2.88,2.94,2.66,6.65-.59,9.88-10.38,7.25-10.38,6.97,0-.18-.08-7.18,.2-11.26"/><path id="Trazado_7324" class="cls-10" d="M665.67,188.84s.16,.13,.45,.28c.4,.2,.86,.23,1.28,.1,1.07-.32,2.04-1.93,2.2-3.7,.08-.85-.04-1.7-.34-2.49-.15-.64-.6-1.16-1.22-1.4-.4-.13-.84,.04-1.04,.41-.15,.27-.1,.47-.15,.48-.03,.02-.2-.18-.1-.58,.07-.24,.22-.45,.42-.6,.28-.19,.63-.26,.97-.19,.82,.21,1.46,.83,1.71,1.64,.37,.88,.52,1.84,.43,2.79-.18,1.99-1.31,3.79-2.76,4.12-.55,.12-1.12,0-1.56-.36-.29-.26-.33-.49-.3-.5"/><path id="Trazado_7325" class="cls-14" d="M671.19,191.06c-.55-.61-1.24-1.09-2.01-1.38h.16c-.14-.04-.29-.07-.43-.09-.53-.17-1.11-.1-1.59,.17h.02c-.89,.3-1.64,.93-2.09,1.75-.72,1.5-.55,3.27,.44,4.6,.96,1.62,3.05,2.16,4.66,1.2,.83-.49,1.41-1.31,1.61-2.26,.45-1.37,.17-2.88-.75-4"/><path id="Trazado_7326" class="cls-9" d="M675.49,146.02c-2.36-4.47-7.41-7.01-12.43-7.65-1.47-.18-2.95-.24-4.43-.18,.44-1.97,.5-4.01,.19-6-1.07-5.85-5.08-10.73-10.6-12.92-5.22-2.05-11.09-1.46-16.21,.74-4.81,2.07-9.24,5.71-11.36,10.84s-1.44,11.84,2.41,15.67c4.41,3.49,9.29,4.76,14.67,5.48,4.75,.69,9.58-.36,13.61-2.96,13.08,9.26,17.38,25.82,20.53,40.85,4.69-9.83,5.06-21.1,5.34-31.99,.1-4.05,.16-8.31-1.73-11.89"/><path id="Trazado_7327" class="cls-15" d="M660.97,148.18c.13-.14-.62-1.06-1.68-2.05s-2.03-1.67-2.17-1.53,.62,1.06,1.68,2.05,2.03,1.67,2.17,1.53"/><path id="Trazado_7328" class="cls-15" d="M632.05,145.23c.08-.09-1.04-1-2.41-2.83-3.65-4.81-4.64-11.14-2.63-16.84,.75-2.16,1.54-3.37,1.43-3.43-.04-.02-.28,.25-.64,.79-.5,.78-.93,1.6-1.27,2.46-2.36,5.83-1.32,12.49,2.7,17.33,.59,.71,1.24,1.37,1.96,1.96,.51,.41,.82,.6,.85,.56"/><path id="Trazado_7329" class="cls-15" d="M637.63,136.31c.06-.08-.64-.74-1.78-1.77-1.5-1.3-2.9-2.72-4.19-4.25-1.26-1.52-2.22-3.26-2.84-5.14-.45-1.44-.49-2.41-.61-2.4-.18,.84-.14,1.71,.12,2.53,.5,2,1.45,3.87,2.77,5.45,1.3,1.56,2.79,2.97,4.42,4.18,.63,.56,1.33,1.03,2.1,1.38"/><g id="Grupo_3206" class="cls-44"><g id="Grupo_3205"><g class="cls-24"><g id="Grupo_3204"><path id="Trazado_7330" d="M658.97,133.35c.35,6.19-2.49,12.13-7.53,15.75l.19,.27c5.49-.31,9.69-5.01,9.38-10.5-.11-2-.83-3.93-2.05-5.52"/></g></g></g></g><path id="Trazado_7331" class="cls-6" d="M672.31,154.09c-.14-.15-1.46,.82-3.18,1.85s-3.2,1.75-3.12,1.94,1.71-.25,3.49-1.33,2.94-2.32,2.81-2.46"/><path id="Trazado_7332" class="cls-6" d="M679.08,163.76c-.07-.19-1.97,.35-4.36,.74s-4.37,.49-4.37,.7c-.01,.19,2.02,.42,4.49,0s4.32-1.27,4.25-1.44"/><path id="Trazado_7333" class="cls-6" d="M664.83,135.86c-.2,.08,.71,2.67,1.21,5.99,.53,3.31,.45,6.06,.67,6.07,.18,.02,.58-2.77,.04-6.18-.52-3.41-1.75-5.95-1.91-5.88"/><path id="Trazado_7334" class="cls-6" d="M662.43,153.46c-.05-.2-1.27-.03-2.76,.04s-2.72,.03-2.75,.23c-.03,.19,1.21,.56,2.79,.48s2.78-.58,2.73-.76"/><path id="Trazado_7335" class="cls-6" d="M672.98,171.5c-.15-.12-1.4,1.18-2.5,3.1s-1.62,3.65-1.44,3.71,.98-1.5,2.06-3.36,2.04-3.33,1.88-3.46"/><path id="Trazado_7336" class="cls-6" d="M645.8,145.46c-.43-1.31-.97-2.58-1.61-3.8-1.15-2.52-2.57-5.62-4.14-9.04-1.53-3.44-2.91-6.56-4.03-9.09-.49-1.29-1.09-2.53-1.78-3.73,.32,1.34,.75,2.66,1.31,3.92,.91,2.38,2.25,5.64,3.84,9.19s3.15,6.71,4.33,8.97c.58,1.25,1.27,2.45,2.07,3.58"/><path id="Trazado_7337" class="cls-6" d="M652.98,125.96c-.76-.62-1.6-1.13-2.51-1.52-4.23-2.12-8.74-3.61-13.4-4.42-.96-.23-1.94-.32-2.92-.27-.03,.22,4.36,.94,9.56,2.67,5.2,1.7,9.17,3.73,9.27,3.54"/><path id="Trazado_7338" class="cls-6" d="M625.33,133.78c-.12-.13-1.96,1.87-2.91,5-.98,3.12-.59,5.81-.42,5.77,.22,0,.16-2.58,1.1-5.56,.9-2.99,2.41-5.08,2.23-5.21"/><path id="Trazado_7339" class="cls-6" d="M645.26,151.54c-.03-.21-1.91,.06-4-.77-2.1-.79-3.32-2.25-3.48-2.11-.17,.07,.9,1.9,3.23,2.78,2.31,.91,4.34,.28,4.25,.11"/><path id="Trazado_7340" class="cls-6" d="M658.2,140.4c.18-.03-.09-1.85-1.36-3.67s-2.86-2.72-2.95-2.56c-.12,.17,1.2,1.26,2.37,2.97,1.19,1.69,1.74,3.32,1.94,3.26"/><path id="Trazado_7341" class="cls-6" d="M616.07,164.14c.11-.17-.37-.65-.84-1.29s-.8-1.22-.99-1.17-.15,.84,.42,1.6,1.32,1.03,1.41,.86"/><path id="Trazado_7342" class="cls-15" d="M655.85,145.83c-.09,.09,1.6,1.7,4.06,4.54,6.43,7.41,11.3,16.03,14.35,25.36,1.17,3.57,1.68,5.85,1.8,5.82-.02-.55-.1-1.09-.24-1.63-.19-1.04-.55-2.53-1.08-4.35-2.81-9.5-7.75-18.24-14.45-25.54-1.29-1.39-2.38-2.47-3.17-3.17-.38-.39-.81-.74-1.27-1.04"/><path id="Trazado_7343" class="cls-15" d="M677.97,160.98c-.6-1.25-1.34-2.43-2.21-3.51-3.98-5.39-8.94-9.98-14.63-13.53-1.14-.79-2.37-1.43-3.67-1.93,1.09,.85,2.22,1.63,3.39,2.35,5.47,3.74,10.36,8.26,14.51,13.42,.81,1.11,1.68,2.18,2.61,3.2"/><path id="Trazado_7344" class="cls-15" d="M650.07,120.56c-.06,.05,.47,.65,1.18,1.87,.99,1.73,1.66,3.63,1.97,5.6,.47,2.92,.18,5.9-.83,8.68-1.31,3.37-3.61,6.26-6.59,8.3-2.97,2.07-6.45,3.3-10.06,3.54-2.95,.24-5.91-.13-8.7-1.11-1.88-.68-3.59-1.74-5.02-3.13-1-1-1.4-1.69-1.47-1.64-.02,.01,.07,.19,.28,.51,.29,.47,.63,.92,1,1.32,1.4,1.51,3.12,2.67,5.03,3.41,2.85,1.08,5.89,1.52,8.93,1.3,3.74-.22,7.35-1.47,10.42-3.62,3.1-2.12,5.48-5.14,6.8-8.66,1.02-2.88,1.27-5.98,.71-8.99-.37-2.01-1.13-3.94-2.23-5.66-.3-.46-.64-.9-1.01-1.32-.25-.28-.39-.42-.41-.41"/><path id="Trazado_7345" class="cls-15" d="M658.13,130.07c-.12,.03,.22,1.46,.35,3.82,.21,3.05-.31,6.1-1.51,8.91-1.26,2.78-3.39,5.07-6.06,6.53-1.15,.54-2.33,.98-3.55,1.33,.35,.06,.7,.05,1.05-.04,.95-.15,1.87-.43,2.73-.85,2.88-1.4,5.17-3.77,6.49-6.69,1.26-2.91,1.73-6.09,1.36-9.24-.1-.94-.26-1.88-.5-2.79-.06-.35-.18-.68-.35-.98"/><g id="Grupo_3209" class="cls-44"><g id="Grupo_3208"><g class="cls-22"><g id="Grupo_3207"><path id="Trazado_7346" d="M667.47,160.14c2.97,5.16,4.58,9.84,6.73,15.39,.68,1.75,1.32,3.63,.92,5.46-.08,.36-.34,.79-.69,.69-.23-.06-.33-.32-.41-.54-2.94-8.9-6.41-17.61-10.39-26.09l3.84,5.09Z"/></g></g></g></g><g id="Grupo_3212" class="cls-44"><g id="Grupo_3211"><g class="cls-23"><g id="Grupo_3210"><path id="Trazado_7347" d="M627.05,124.12c-2.28,7.43-1.31,15.34,4.62,20.95-2.52-.37-4.68-2.02-5.69-4.36-2.47-5.35-2.07-11.59,1.07-16.59"/></g></g></g></g><path id="Trazado_7348" class="cls-9" d="M670.96,222.33c-1.12-2.32-3.27-3.97-5.79-4.47l-.09,1.52c2.07,.25,3.75,2.2,4.62,3.69,1.01,1.72,1.5,4.25,1.46,7.52-.1,8.24-.39,16.09-.4,16.17l1.46,.06c0-.08,.3-7.94,.4-16.2,.04-3.54-.52-6.32-1.66-8.28"/><path id="Trazado_7349" class="cls-9" d="M665.25,262.61l-1.99-.15c.03-.39,.73-9.58,2.6-12.91,1.38-2.35,3.84-3.86,6.57-4.02,2.28-.28,4.56,.56,6.1,2.27,2.23,2.83,2.73,12.52,2.78,13.62l-2,.09c-.13-2.8-.8-10.49-2.35-12.47-1.13-1.18-2.76-1.75-4.37-1.52-2.06,.11-3.92,1.23-4.98,3-1.37,2.44-2.16,9.54-2.35,12.08"/><path id="Trazado_7350" class="cls-13" d="M670.76,297.47c-1.86-.07-3.68-.6-5.29-1.53l.47-.88c3.22,1.71,5.92,1.86,8.03,.45,8.44-5.64,5.86-33.71,5.84-33.99l.99-.1c.11,1.18,2.65,28.95-6.28,34.92-1.11,.75-2.42,1.14-3.76,1.13"/><path id="Trazado_7351" class="cls-13" d="M667.66,296.35h0c-.25,.53-.85,.81-1.42,.64l-2.59-.75c-.77-.18-1.25-.95-1.08-1.72,.18-.77,.95-1.25,1.72-1.08,.09,.02,.19,.05,.28,.09l2.53,1.22c.59,.29,.84,.99,.57,1.59"/><path id="Trazado_7352" class="cls-13" d="M673.8,297.11c-1.38,.01-2.74-.39-3.88-1.17-8.76-5.91-6.28-32.33-6.17-33.45l1,.1c-.03,.27-2.53,26.95,5.73,32.53,2.15,1.45,4.93,1.31,8.26-.42l.46,.89c-1.65,.94-3.5,1.46-5.4,1.54"/><path id="Trazado_7353" class="cls-13" d="M677,295.96h0c.25,.54,.85,.81,1.41,.65l2.6-.73c.77-.18,1.25-.94,1.08-1.72s-.94-1.25-1.72-1.08c-.09,.02-.18,.05-.26,.09l-2.54,1.2c-.59,.28-.85,.99-.58,1.58"/><path id="Trazado_7354" class="cls-9" d="M619.69,258.32c-.31-8.78-.08-17.58,.71-26.33,1.38-12.33,8.65-12.93,8.96-12.95l.12,2-.06-1,.07,1c-.24,.02-5.93,.61-7.11,11.18-.78,8.65-1.01,17.35-.7,26.03l-2,.07Z"/><path id="Trazado_7355" class="cls-13" d="M599.5,261.82l-.99-2.52c-.19-.49,.05-1.04,.54-1.23,0,0,0,0,0,0l14.09-5.48c.49-.19,1.04,.05,1.23,.54l1.09,2.77-15.96,5.91Z"/><path id="Trazado_7356" class="cls-15" d="M584.83,269.41l23.58,64.75c.47,1.29,1.86,1.99,3.18,1.59l44.02-13.4c1.36-.42,2.13-1.86,1.72-3.22,0-.03-.02-.05-.03-.08l-23.13-67.83c-.46-1.35-1.93-2.07-3.28-1.61-.02,0-.04,.01-.06,.02l-44.47,16.48c-1.33,.49-2.01,1.97-1.53,3.3"/><path id="Trazado_7357" class="cls-12" d="M569.22,293.1s-6.65,20.62-4.63,27.41c.82,2.03,2.15,3.81,3.87,5.16,7.59,6.76,10.84,6.07,22.63,1.84l39.13-15.8-7.37-16.4-34.77,5.33-18.86-7.54Z"/><path id="Trazado_7358" class="cls-12" d="M651.3,284.02c.01-.8-.63-1.46-1.43-1.48-.1,0-.19,0-.28,.02-2.84,.45-10.51,1.74-13.1,2.95-3.2,1.5-14.36,9.9-14.36,9.9l6.39,16.99,20.83-2.22s6.48-4.36,6.34-5.76c-.15-.87-.35-1.73-.6-2.58l1.93-1.48c2.83-2.51,.18-6.02,.18-6.02,1.13-.93,1.77-2.32,1.73-3.78-.11-1.33-.97-2.48-2.22-2.96,0,0,.37-3.23-1.38-3.8s-4.31,.94-4.31,.94c.17-.2,.27-.46,.27-.72"/><path id="Trazado_7359" class="cls-10" d="M652.45,284.16c-.17,.13-.36,.23-.55,.3-.37,.17-.91,.39-1.6,.62-1.37,.48-3.29,1.01-5.41,1.59-1.81,.46-3.6,1.04-5.34,1.72-1.33,.55-2.03,1.1-2.07,1.05-.02-.02,.15-.17,.47-.43,.47-.33,.97-.62,1.49-.87,1.73-.76,3.52-1.38,5.35-1.85,2.13-.58,4.06-1.07,5.43-1.48s2.21-.72,2.24-.67"/><path id="Trazado_7360" class="cls-10" d="M656.69,287.49c-.36,.37-.77,.68-1.23,.91-1.06,.62-2.18,1.15-3.33,1.58-1.34,.52-2.58,.91-3.48,1.18-.48,.18-.98,.3-1.48,.36,1.57-.72,3.18-1.35,4.83-1.9,1.33-.51,2.51-1.04,3.34-1.46,.43-.26,.89-.49,1.36-.67"/><path id="Trazado_7361" class="cls-10" d="M657.25,294.37c-2.44,1.65-5.2,2.76-8.11,3.27-.03-.11,1.85-.66,4.08-1.56s3.97-1.81,4.02-1.71"/><path id="Trazado_7362" class="cls-10" d="M657.02,300.36c-1.85,1.34-3.98,2.24-6.23,2.62,2.08-.86,4.16-1.73,6.23-2.62"/><path id="Trazado_7363" class="cls-10" d="M646.46,298.52s-.17,.2-.55,.3c-1.05,.25-2.13-.28-2.57-1.26-.16-.36-.14-.61-.1-.62,.1-.04,.36,.9,1.32,1.38,.61,.22,1.26,.29,1.9,.21"/><path id="Trazado_7364" class="cls-10" d="M647.04,304.64c.03,.1-.73,.27-1.48-.21s-.92-1.24-.82-1.25c.1-.04,.39,.53,1.02,.93,.62,.41,1.27,.43,1.27,.54"/><path id="Trazado_7365" class="cls-10" d="M642.82,292.69c.06,.09-.45,.35-1,.05s-.63-.85-.52-.85c.1-.03,.29,.31,.7,.52,.39,.22,.78,.18,.82,.28"/></g></g></g><g id="Grupo_3222"><g class="cls-26"><g id="Grupo_3221"><path id="Trazado_7366" class="cls-15" d="M566.24,140.72c-2.46-2.74-5.46-5.34-6.27-8.93-.74-3.3,.49-7.05-1.2-9.98-2.07-3.61-7.41-4.01-9.92-7.34-1.22-1.61-1.61-3.72-2.81-5.34-2.04-2.76-5.94-3.45-9.35-3.04-3.41,.41-6.69,1.68-10.11,1.97-4.7,.39-9.57-1.08-14.07,.33-4.96,1.56-7.95,6.01-11.14,10.32l-4.16,5.01c-.85,.86-1.78,1.64-2.79,2.32-1.76,1.17-3.79,2-5.3,3.48-3.12,3.38-2.92,8.64,.46,11.77,.08,.08,.16,.15,.25,.22-3.69,1.32-6.07,4.9-5.88,8.81,.32,2.07,.88,4.09,1.69,6.02,.65,1.99,1.06,4.2,.25,6.13s-3.24,3.28-5.08,2.28c.71,2.73,2.62,5,5.19,6.17-.98,1.03-2.32,1.65-3.74,1.72,3.94,8.91,14.38,13.47,24.12,13.38s19.01-3.92,27.99-7.68l26.12-7.2c2.29-.56,3.21-3.37,3.14-5.73s-.7-4.81,.11-7.03c1.11-3.04,4.6-4.7,5.77-7.72,1.33-3.44-.83-7.21-3.29-9.95"/><path id="Trazado_7367" class="cls-8" d="M528.58,112.66l-1.44-.06c-15.6,.24-24.11,13.63-23.44,29.22l-.58,53.71c-.05,10.09,8.09,18.31,18.17,18.36,9.75,.05,17.82-7.56,18.33-17.3,.13-2.82,.24-4.79,.25-4.79s15.06-1.68,15.89-16.64c.4-7.22,.01-22.16-.5-35.68-.55-14.52-12.16-26.19-26.68-26.82"/><path id="Trazado_7368" class="cls-4" d="M539.87,191.79c-6.91-.32-13.58-2.61-19.23-6.6,0,0,4.05,11.12,19.03,10.41l.2-3.81Z"/><path id="Trazado_7369" class="cls-15" d="M549,151.43c-.04,1.16-.99,2.08-2.15,2.07-1.13,.04-2.08-.84-2.12-1.97,0-.02,0-.03,0-.05,.04-1.16,.99-2.07,2.15-2.07,1.13-.04,2.08,.84,2.12,1.97,0,.02,0,.03,0,.05"/><path id="Trazado_7370" class="cls-15" d="M551.8,145.55c-.28,.27-1.84-1-4.14-1.09-2.29-.13-4.03,.99-4.27,.69-.12-.13,.17-.62,.93-1.12,1.02-.65,2.22-.96,3.43-.9,1.2,.05,2.35,.47,3.28,1.22,.68,.57,.9,1.09,.77,1.21"/><path id="Trazado_7371" class="cls-15" d="M527.18,151.43c-.04,1.16-.99,2.08-2.15,2.07-1.13,.04-2.08-.84-2.12-1.97,0-.02,0-.03,0-.05,.04-1.16,.99-2.07,2.15-2.07,1.13-.04,2.08,.84,2.12,1.97,0,.02,0,.03,0,.05"/><path id="Trazado_7372" class="cls-15" d="M529.24,145.51c-.28,.27-1.85-1-4.14-1.09-2.3-.12-4.03,.99-4.27,.69-.12-.13,.17-.62,.93-1.12,1.02-.65,2.22-.96,3.43-.9,1.2,.05,2.35,.47,3.28,1.22,.68,.57,.9,1.09,.77,1.21"/><path id="Trazado_7373" class="cls-15" d="M536.73,163.53c1.23-.33,2.49-.5,3.76-.51,.59-.04,1.15-.13,1.27-.53,.08-.6-.03-1.22-.32-1.76-.49-1.44-1.01-2.96-1.54-4.54-2.14-6.47-3.66-11.78-3.4-11.86s2.21,5.09,4.34,11.56c.51,1.6,1,3.11,1.47,4.57,.34,.72,.41,1.54,.21,2.32-.19,.41-.56,.71-1,.82-.33,.08-.66,.11-1,.1-1.26,.11-2.54,.06-3.79-.16"/><path id="Trazado_7374" class="cls-15" d="M529.9,164.83c.38,0,.27,2.49,2.33,4.35,2.06,1.86,4.73,1.7,4.73,2.05,.03,.16-.61,.46-1.74,.44-1.46-.04-2.86-.6-3.96-1.57-1.05-.94-1.69-2.24-1.8-3.64-.05-1.05,.25-1.65,.42-1.63"/><path id="Trazado_7375" class="cls-15" d="M529.52,136.18c-.25,.62-2.54,.22-5.25,.43-2.71,.16-4.92,.85-5.26,.27-.15-.27,.26-.85,1.16-1.41,2.44-1.4,5.39-1.6,8-.54,.97,.44,1.45,.95,1.34,1.25"/><path id="Trazado_7376" class="cls-15" d="M551.18,137.87c-.43,.5-1.99-.1-3.89-.21-1.9-.17-3.53,.2-3.88-.36-.15-.27,.12-.78,.85-1.25,1.99-1.13,4.46-.95,6.26,.46,.65,.57,.85,1.11,.66,1.36"/><path id="Trazado_7377" class="cls-8" d="M504.44,152.94c-.25-.12-10.15-3.48-10.26,6.76s10.19,8.24,10.21,7.95,.05-14.71,.05-14.71"/><path id="Trazado_7378" class="cls-4" d="M501.31,163.74s-.18,.12-.48,.26c-.43,.18-.9,.18-1.33,.01-1.08-.41-1.97-2.14-2-3.98-.02-.88,.16-1.75,.53-2.55,.2-.65,.71-1.15,1.36-1.35,.42-.11,.86,.1,1.05,.5,.13,.29,.07,.49,.12,.51,.03,.03,.22-.17,.14-.59-.05-.25-.2-.48-.4-.65-.28-.22-.63-.31-.98-.27-.86,.16-1.57,.75-1.88,1.57-.45,.88-.67,1.86-.65,2.85,.04,2.06,1.08,4.01,2.55,4.45,.56,.17,1.16,.07,1.64-.25,.32-.25,.38-.48,.34-.5"/><path id="Trazado_7379" class="cls-15" d="M504.1,122.92c1.62-2.93,3.9-5.44,6.66-7.33,2.91-2.45,6.25-4.34,9.86-5.58,5.67-1.99,11.9-1.64,17.3,.99,1.94,.98,3.62,2.41,4.89,4.17,3.67,2.28,7.32,6.53,5.86,7.33l-2.03-2.15s-.89,1.83-4.6,4.64c-.08,.06-.17,.12-.26,.17-.33,.24-.7,.45-1.08,.6l-.2,.13c-4.37,1.46-7.21,.87-11.57-.65-3.01-1.05-5.75-2.76-8.67-4.04-2.58,0-5.07,.92-7.01,2.61-.3,.25-.58,.53-.83,.84-.98,1.51-1.25,3.38-.74,5.11,.4,1.73,1.2,3.35,1.7,5.06,.92,3.14,.77,6.47,.63,9.74-.21,4.6-.47,9.38-2.73,13.39-1.06,1.88-3.35,3.74-5.22,1.75-.76-.86-1.14-1.99-1.06-3.13,.13-3.12-2.61-4.56-4.04-6.82-1.03-1.92-1.52-4.08-1.43-6.26-.33-7.14,1.25-14.23,4.57-20.56"/><path id="Trazado_7380" class="cls-9" d="M504.44,194.51s12.31,11.42,22.23,11.37,12.3-5.26,12.3-5.26l5.58,7.11s.53,46.38,1.15,47.19-5.83,4.85-5.83,4.85l-32.92-47.25-2.51-18Z"/><path id="Trazado_7381" class="cls-3" d="M574.16,364.94s4.66-1.54,5.93-5.85-2.2-47.49-2.2-47.49l-2.62-2.61,2-1.6v-13.72l-4.67-28.88s-4.59-39.67-10.16-42.51l-8.64,39.28,6.35,92.12,14.01,11.26Z"/><path id="Trazado_7382" class="cls-3" d="M538.97,200.61h0l.65-4.03c1.5,1.17,5.48,7.4,5.48,7.4,5.47,4.62,16.88,16.31,18.95,20.87,2.95,6.49,3.24,36.28,3.24,36.28l-1.46,147.34-98.54,.15,1.59-66.75,3.13-131.69,24.19-12.17,6.48-7.13,40.74,66.41-.29-44.72c-.03-4.34-1.5-8.55-4.18-11.96"/><path id="Trazado_7383" class="cls-3" d="M435.07,321.44c-2.56-5.01-3.08-10.82-1.44-16.2,5.54-18.52,22.78-75.84,25.92-82.97,3.45-7.82,13.28-12.49,13.28-12.49l15.13,39.74-3.85,18.53-13.86,39.57,40.56,47.45-28.98,23.85s-43.71-51.71-46.66-57.31c-.03-.06-.06-.11-.09-.17"/><path id="Trazado_7384" class="cls-8" d="M541.51,359.45c-.3-.12-10.59,1.75-12.55,1.23-3.6-.99-7.29-1.68-11.01-2.06-4.73-.41-9.92-1.28-9.92-1.28l-20.01,16.46,8.23,2.92c4.27,.4,8.58-.09,12.65-1.44,7.41-2.26,19.44-8.43,19.44-8.43,2.75,.11,5.5-.03,8.23-.41,3.5-.62,9.26-5.35,4.94-6.99"/><path id="Trazado_7385" class="cls-15" d="M545.08,408.63c-.02-.13-.03-.27-.02-.4,0-.29,0-.68-.01-1.18v-4.55c.02-3.98,.06-9.69,.1-16.73,.1-14.12,.34-33.63,.3-55.18-.02-10.78-.12-21.04-.3-30.38-.11-4.67-.21-9.1-.3-13.25-.19-4.15-.36-8.01-.52-11.54-.3-7.03-.55-12.73-.72-16.71l-.17-4.54c-.01-.5-.02-.89-.03-1.18,0-.13,0-.27,0-.4,.03,.13,.04,.27,.05,.4,.02,.29,.05,.68,.08,1.18,.06,1.07,.15,2.59,.27,4.54,.21,3.97,.51,9.67,.89,16.7,.18,3.53,.38,7.39,.59,11.54,.11,4.15,.22,8.59,.35,13.26,.2,9.34,.32,19.6,.34,30.38,.04,21.55-.26,41.06-.45,55.18-.11,7.04-.2,12.75-.27,16.72-.04,1.95-.07,3.48-.09,4.55-.02,.5-.03,.89-.04,1.18,0,.13,0,.27-.03,.4"/><path id="Trazado_7386" class="cls-15" d="M496.22,198.01c.13,.14,.24,.29,.34,.44,.23,.34,.53,.78,.91,1.33l3.35,5.05,11.54,17.66-.15-.1,8.64,2.16,.31,.08-.15,.29-3.01,5.88c-.16,.31-.32,.62-.46,.9l-.02-.28,18.94,24.58c2.38,3.12,4.3,5.66,5.67,7.46l1.52,2.04,.38,.54c.05,.06,.09,.12,.12,.19,0,0-.06-.05-.16-.16l-.42-.51-1.59-1.98-5.8-7.35c-4.89-6.28-11.61-14.91-19.06-24.49l-.1-.13,.08-.15,.46-.9c1.03-2.01,2.05-3.99,3.02-5.88l.17,.37-8.64-2.18-.09-.02-.05-.08-11.39-17.77-3.23-5.12-.84-1.38c-.11-.15-.2-.32-.27-.49"/><path id="Trazado_7387" class="cls-15" d="M544.14,266.24c.05-.23,.13-.45,.22-.66,.15-.43,.43-1.05,.71-1.87,.59-1.63,1.35-4.04,2.18-7.04,1.63-6.02,3.48-14.48,5.11-23.96l.03,.18-.76-1.23-4.09-6.66-.32-.52,.6,.14,4.85,1.17-.29,.32-5.32-15.88-1.48-4.57c-.15-.5-.28-.9-.37-1.22-.05-.14-.09-.28-.1-.43,.07,.13,.13,.26,.18,.41l.45,1.2,1.62,4.53c1.37,3.94,3.28,9.42,5.5,15.82l.15,.42-.43-.1-4.85-1.14,.28-.38,4.1,6.65c.26,.42,.52,.84,.76,1.23l.05,.08-.02,.1c-1.35,8.08-3.11,16.08-5.28,23.97-.87,3-1.69,5.4-2.34,7.02-.31,.82-.62,1.42-.8,1.84-.09,.22-.19,.43-.32,.62"/><path id="Trazado_7388" class="cls-8" d="M572.42,346.57s-7.45,.51-9.81,1.58-4.01,4.73-5.88,6.24-4.66,2.26-4.02,4.14c.96,2.13,3.41,3.15,5.59,2.32,1.76-.68,3.49-1.45,5.16-2.32h11.83s2.37-9.36,2.58-9.22-3.32-2.75-5.47-2.74"/><path id="Trazado_7389" class="cls-15" d="M566.77,246.2c.14,0,.26,22.58,.26,50.43s-.12,50.44-.26,50.44-.26-22.58-.26-50.44,.12-50.43,.26-50.43"/><path id="Trazado_7390" class="cls-15" d="M457.39,349.71s.17,.16,.47,.51l1.31,1.52,4.96,5.84,17.84,21.2-.3-.03,28.96-23.88-.03,.37-9.34-10.92-31.19-36.55-.08-.1,.04-.12,10.15-28.69c1.23-3.43,2.2-6.13,2.87-8l.77-2.1c.18-.47,.29-.71,.29-.71,0,0-.07,.25-.22,.73-.17,.5-.4,1.21-.71,2.12-.64,1.88-1.57,4.59-2.75,8.04-2.41,6.94-5.84,16.84-9.98,28.75l-.04-.21,31.25,36.51,9.33,10.92,.17,.2-.2,.17-29.02,23.81-.16,.13-.14-.16-17.7-21.32-4.87-5.92-1.27-1.56c-.28-.35-.42-.55-.42-.55"/><path id="Trazado_7391" class="cls-15" d="M465.96,215.22c.14-.04,.28-.05,.42-.04,.28,0,.69-.03,1.22,0,1.49,.06,2.98,.26,4.44,.59,9.92,2.19,17.71,9.89,20.03,19.78,.35,1.45,.57,2.94,.65,4.43,.04,.53,.02,.94,.02,1.22,.01,.14,0,.29-.04,.42-.1-.54-.16-1.08-.18-1.62-.15-1.47-.42-2.93-.8-4.36-2.47-9.66-10.07-17.17-19.76-19.52-1.43-.36-2.89-.61-4.36-.75-.55-.02-1.09-.08-1.63-.17"/><path id="Trazado_7392" class="cls-15" d="M454.62,310.58c.58-.56,1.24-1.02,1.97-1.35,3.44-1.83,7.39-2.49,11.24-1.86,.8,.09,1.58,.31,2.3,.65-5.31-1.06-10.82-.15-15.51,2.56"/><path id="Trazado_7393" class="cls-3" d="M566.34,358.53h9.96l-12.45,37.37-3.69-26.08,6.18-11.29Z"/><path id="Trazado_7394" class="cls-15" d="M563.46,358.53c.3-.05,.61-.08,.92-.07l2.61-.06,9.31-.09h.31l-.1,.3-4.16,12.61c-2.28,6.84-4.37,13.03-5.91,17.5-.76,2.18-1.39,3.96-1.85,5.28l-.53,1.43c.13,.07,.17,.24,.1,.37s-.24,.17-.37,.1c-.13-.07-.17-.24-.1-.37,.05-.09,.16-.15,.27-.13,.12-.39,.26-.87,.43-1.46,.42-1.33,.99-3.14,1.69-5.34,1.45-4.5,3.48-10.7,5.77-17.54,1.55-4.61,3-8.92,4.23-12.58l.21,.29-9.31-.09-2.61-.06c-.31,0-.62-.02-.92-.07"/><path id="Trazado_7395" class="cls-15" d="M566.77,347.08c.37-.17,.76-.29,1.17-.36,1.09-.25,2.2-.39,3.31-.4,1.68-.05,3.35,.35,4.83,1.16,1.76,1.1,3.09,2.79,3.76,4.76,1.55,4.14,.37,8.5-1.71,10.49-.81,.78-1.76,1.41-2.8,1.84-.37,.18-.76,.31-1.16,.37,.35-.21,.71-.4,1.08-.56,.97-.49,1.86-1.13,2.62-1.91,1.9-1.93,2.97-6.11,1.49-10.06-.62-1.86-1.86-3.46-3.51-4.53-1.4-.78-2.98-1.2-4.59-1.2-1.5,.03-2.99,.16-4.47,.39"/><path id="Trazado_7396" class="cls-15" d="M491.46,375.63c1.78,.65,3.65,1.04,5.54,1.16,2.05,.08,4.11-.11,6.11-.57,2.46-.58,4.87-1.33,7.22-2.24,5.06-1.88,9.65-3.55,12.98-4.74l3.95-1.38c.48-.19,.97-.34,1.47-.44-.45,.25-.92,.46-1.4,.63l-3.9,1.54c-3.3,1.28-7.87,3.01-12.93,4.89-2.37,.92-4.81,1.66-7.3,2.22-2.05,.45-4.14,.61-6.23,.47-1.41-.09-2.8-.38-4.12-.86-.36-.13-.71-.28-1.05-.45-.23-.12-.35-.19-.34-.21"/><path id="Trazado_7397" class="cls-15" d="M493.62,408.24c-.14,.01-.86-6.16-1.61-13.79s-1.23-13.83-1.09-13.84,.86,6.16,1.61,13.79,1.23,13.82,1.09,13.84"/><path id="Trazado_7398" class="cls-15" d="M520.3,406.99s.52-.21,1.44-.6c1.29-.56,2.48-1.33,3.52-2.29,1.51-1.44,2.73-3.16,3.58-5.07,1.06-2.34,1.81-4.8,2.23-7.33,.75-4.62,1-9.3,.75-13.98-.07-1.8-.18-3.25-.25-4.25-.07-.52-.09-1.04-.07-1.57,.14,.51,.23,1.02,.27,1.55,.14,1,.3,2.45,.42,4.25,.36,4.7,.15,9.43-.61,14.09-.43,2.57-1.2,5.08-2.31,7.44-.9,1.95-2.18,3.69-3.77,5.13-1.08,.96-2.33,1.7-3.69,2.2-.36,.14-.74,.26-1.12,.34-.13,.05-.26,.07-.4,.07"/><path id="Trazado_7399" class="cls-15" d="M491.56,377.96c.07-.05,.87,.96,2.34,2.43,3.83,3.85,8.53,6.72,13.71,8.36,1.98,.63,3.25,.88,3.23,.97-.31,.02-.61,0-.91-.08-.82-.13-1.63-.31-2.43-.53-5.32-1.47-10.13-4.4-13.87-8.46-.57-.61-1.1-1.25-1.58-1.92-.2-.23-.37-.49-.49-.77"/><path id="Trazado_7400" class="cls-15" d="M526.67,266.81c.75,.62,1.18,1.55,1.16,2.52-.1,1.55,0,12.11,0,12.11,0,0,.39,1.55-1.16,1.55v-16.17Z"/><rect id="Rectángulo_3505" class="cls-15" x="523.74" y="265.09" width="3.23" height="5.3"/><path id="Trazado_7401" class="cls-15" d="M524.39,265.69h1.98v-2.04c0-.55-.44-.99-.99-.99-.55,0-.99,.44-.99,.99h0v2.05Z"/><path id="Trazado_7402" class="cls-15" d="M499.3,270.06c0-.14,7.27-.26,16.23-.26s16.24,.12,16.24,.26-7.27,.26-16.24,.26-16.23-.12-16.23-.26"/><g id="Grupo_3217" class="cls-43"><g id="Grupo_3216"><g class="cls-36"><g id="Grupo_3215"><path id="Trazado_7403" d="M541.37,262.66l-1.5-1.43-27.32-26.12,2.99-8.55h-4.74l-9.5-20.68,10.84,16.76,8.64,2.17-3.48,6.78"/></g></g></g></g><g id="Grupo_3220" class="cls-43"><g id="Grupo_3219"><g class="cls-41"><g id="Grupo_3218"><path id="Trazado_7404" d="M518.59,297.85c2.71-.1,5.35-.9,7.64-2.34,2.05-1.66,3.56-3.89,4.33-6.42-.18,2.32-.61,4.62-1.27,6.85-.67,2.08-2.02,3.88-3.83,5.12-2.23,1.18-4.77,1.62-7.26,1.26-3.35-.27-6.62-1.09-9.7-2.43-2.19-.95-4.48-2.45-4.93-4.79,4.69,2.19,9.86,3.14,15.01,2.75"/></g></g></g></g></g></g></g><g id="Grupo_3233"><g class="cls-35"><g id="Grupo_3232"><path id="Trazado_7405" class="cls-15" d="M251.77,141.61s-6.42,23.99-6.97,40.96l-.18,5.65s14.16,11.76,26.03,12.48l9.95-24.47-28.83-34.62Z"/><path id="Trazado_7406" class="cls-15" d="M314.65,156.32c-2.71-11.7-3.75-25.32-13.48-32.94-7.22-5.66-15.44-7.24-24.61-6.85-4.51,.19-9.61,2.27-13.54,4.5-5.39,3.05-7.67,9.24-10.27,14.86-5.21,11.26-4.55,26.51-1.02,30.75l47.06,24.85c9.4-4.89,15.28-6.84,16.79-19.36,.61-5.28,.3-10.62-.92-15.79"/><path id="Trazado_7407" class="cls-11" d="M300.16,132.67l-29.62-8.74c-9.54-1.39-16.37,10.15-17.36,19.75-1.09,10.65-2.01,23.71-1.06,31.73,1.91,16.13,14.12,18.65,14.12,18.65,0-.05,.03,.24-.07,5.01l-.31,7.72c-.18,3.13,.74,6.22,2.61,8.74,4.37,5.66,12.33,6.42,21.72,2.94,5.44-2.01,9.23-6.06,9.64-11.58l5.15-68.29c.17-2.92-1.92-5.49-4.82-5.92"/><path id="Trazado_7408" class="cls-15" d="M258.66,158.31c-.05,1.11,.79,2.07,1.9,2.15,1.08,.13,2.06-.64,2.19-1.72,0-.02,0-.03,0-.05,.05-1.11-.79-2.07-1.9-2.15-1.08-.13-2.06,.64-2.19,1.72,0,.02,0,.03,0,.05"/><path id="Trazado_7409" class="cls-15" d="M255.66,153.35c.24,.28,1.85-.81,4.06-.72,2.21,.06,3.79,1.26,4.04,1,.12-.12-.12-.61-.8-1.15-.93-.7-2.06-1.1-3.22-1.13-1.15-.05-2.29,.27-3.24,.91-.7,.49-.95,.97-.83,1.1"/><path id="Trazado_7410" class="cls-15" d="M279.27,158.11c-.05,1.11,.79,2.07,1.9,2.15,1.08,.13,2.06-.64,2.19-1.72,0-.02,0-.03,0-.05,.05-1.11-.79-2.07-1.9-2.15-1.08-.13-2.06,.64-2.19,1.72,0,.02,0,.03,0,.05"/><path id="Trazado_7411" class="cls-15" d="M277.42,153.61c.24,.28,1.85-.81,4.06-.72,2.21,.06,3.79,1.26,4.04,1,.12-.12-.12-.61-.8-1.15-.93-.7-2.06-1.1-3.22-1.13-1.15-.05-2.29,.27-3.24,.91-.7,.49-.95,.97-.83,1.1"/><path id="Trazado_7412" class="cls-15" d="M268.8,167.95c-1.15-.41-2.35-.68-3.57-.79-.56-.08-1.09-.21-1.17-.6-.03-.59,.13-1.16,.44-1.66,.59-1.34,1.2-2.76,1.84-4.23,2.56-6.03,4.44-11,4.19-11.1s-2.52,4.71-5.08,10.74c-.62,1.49-1.21,2.91-1.77,4.26-.38,.67-.52,1.45-.38,2.21,.15,.41,.48,.73,.9,.86,.31,.1,.63,.15,.95,.17,1.2,.2,2.43,.25,3.64,.15"/><path id="Trazado_7413" class="cls-17" d="M266.24,194.06c7.54,.41,15.05-1.28,21.69-4.88,0,0-5.75,11-21.73,8.88l.04-3.99Z"/><path id="Trazado_7414" class="cls-17" d="M275.94,172.36c-.61-1.02-1.7-1.67-2.89-1.72-1.67-.19-3.32,.55-4.29,1.92-.35,.63-.44,1.37-.27,2.07,.14,.36,.03,.18,.29,.43,.88,.98,1.99,1.73,3.23,2.18,1.37,.4,2.84-.08,3.72-1.2,.75-1.09,.84-2.5,.22-3.67"/><path id="Trazado_7415" class="cls-15" d="M275.65,169.83c-.36-.04-.47,2.36-2.6,3.97s-4.67,1.23-4.71,1.57c-.04,.15,.55,.49,1.63,.57,1.41,.08,2.79-.33,3.92-1.17,1.08-.81,1.81-2,2.03-3.34,.14-1-.1-1.6-.27-1.6"/><path id="Trazado_7416" class="cls-15" d="M276.58,145.51c.16,.62,2.39,.55,4.94,1.11,2.57,.51,4.58,1.47,4.97,.97,.18-.24-.13-.84-.92-1.5-2.14-1.66-4.92-2.25-7.55-1.58-.99,.29-1.51,.72-1.44,1.01"/><path id="Trazado_7417" class="cls-15" d="M255.84,147.39c.5,.44,2.11-.33,4.14-.64,2.01-.38,3.79-.21,4.11-.78,.14-.28-.21-.74-1.02-1.1-1.11-.44-2.32-.55-3.49-.33-1.17,.18-2.27,.7-3.16,1.48-.64,.61-.8,1.16-.58,1.38"/><path id="Trazado_7418" class="cls-15" d="M270.96,122.21c-.03,.11-.05,.23-.08,.35l.06,.02c0-.12,.01-.25,.02-.37"/><path id="Trazado_7419" class="cls-15" d="M291.66,200.53c.45-4.2-1.24-8.42-.75-12.62,.52-4.45,3.4-8.26,4.59-12.59,1.89-6.92-.71-14.28-1.66-21.44-4.09-.67-7.8-2.81-10.42-6.02-3.21-3.75-5.16-8.39-7.05-12.95,.12,4.5,1.65,8.86,4.36,12.46-1.83,.28-3.68-.32-5-1.62-1.28-1.3-2.28-2.85-2.93-4.55-1.73-4.06-2.7-8.41-2.84-12.82-.6,6.32,.12,12.69,2.1,18.72-1.16-.21-2.35-.17-3.49,.13-1.15,.3-2.38,.04-3.32-.7-.5-.61-.81-1.35-.91-2.14-1.11-5.37-1.29-10.89-.53-16.31-1.52,2.89-2.75,5.91-3.68,9.04-.92,3.15-.95,6.49-.07,9.65-.55,.54-1.44,.54-1.99-.01-.51-.56-.81-1.26-.87-2.01-.27-2.72-.09-5.46,.53-8.12-1.6,2.84-2.13,6.14-3.02,9.28s-2.3,6.36-5.02,8.15c-.46-4.1-.33-8.24,.4-12.3,.54-3.36,2.13-6.69,3.6-9.76,1.56-3.41,3.77-6.48,6.5-9.05,4.72-4.14,6.7-2.36,9.71-.78l.36,.15c0-.07,.01-.15,.02-.22l.13-.64c7.9-1.77,16.13-1.38,23.83,1.11,5.68,1.85,12.68,7.7,15.57,12.93l.17,.3c6.7,12.09,11.13,26.12,11.45,56.44l-29.77,8.31Z"/><path id="Trazado_7420" class="cls-15" d="M304.28,238.59c-.04-.4-.03-.81,.03-1.21,.11-1.1,.3-2.18,.59-3.24,1.89-7.18,7.16-12.99,14.13-15.56,1.03-.39,2.09-.69,3.17-.9,.39-.1,.8-.15,1.2-.15,.02,.1-1.69,.36-4.24,1.39-6.74,2.7-11.87,8.35-13.91,15.32-.78,2.64-.88,4.36-.98,4.35"/><path id="Trazado_7421" class="cls-13" d="M234.03,326.37s-1.85,31.14,6.34,43.32l6.05-20.52v-22.58l-12.39-.22Z"/><path id="Trazado_7422" class="cls-9" d="M297.21,201.56s-17.24,13.04-25.64,11.56c-6.73-1.18-5.57-11.41-5.57-11.41l-3.27,7.06-7.05,28.23,2.98,13.28,16.02-9.89,22.53-38.84Z"/><path id="Trazado_7423" class="cls-13" d="M238.33,257.94c1.81-18.62,24.21-50.88,24.21-50.88l3.54-5.73-3.53,15.82s-3.51,23.1-4.01,23.57l19.75-19.13,22.2-23.51,4.4,6.29,19.49,10.8-1.99,61.18-6.98,17.93s20.58,56.34,23.25,76.31l4.46,37.87-105.08-.17s3.69-59.24,4.1-71.88,1.32-40.63,1.32-40.63c0,0-6.93-19.23-5.12-37.85"/><path id="Trazado_7424" class="cls-15" d="M343.11,408.48c-.03-.11-.06-.23-.07-.34-.04-.26-.08-.59-.14-1.01-.12-.92-.29-2.23-.51-3.9-.42-3.42-1.03-8.31-1.77-14.35-.37-3.03-.77-6.35-1.2-9.91-.21-1.78-.43-3.62-.66-5.52-.22-1.9-.44-3.85-.81-5.82-1.79-8.56-4.01-17.02-6.66-25.35-1.48-4.84-2.95-9.54-4.48-14.02s-3.01-8.78-4.4-12.85c-2.77-8.12-5.21-15.29-7.17-21.05l-.02-.06,.02-.06c1.96-4.9,3.53-8.81,4.62-11.53l1.26-3.08c.14-.33,.25-.59,.34-.79,.03-.09,.08-.18,.13-.26-.02,.1-.04,.19-.08,.28-.07,.21-.17,.47-.29,.81-.28,.74-.67,1.78-1.17,3.11-1.05,2.74-2.57,6.67-4.47,11.59v-.12l7.29,21.01,4.43,12.84c1.54,4.49,3.01,9.2,4.49,14.04,2.65,8.35,4.87,16.83,6.64,25.42,.36,2,.58,3.96,.79,5.86s.43,3.74,.64,5.52c.41,3.56,.79,6.88,1.13,9.92,.68,6.04,1.22,10.94,1.61,14.36,.18,1.67,.31,2.98,.41,3.91,.04,.42,.07,.76,.09,1.02,.02,.12,.02,.23,.01,.35"/><g id="Grupo_3225" class="cls-43"><g id="Grupo_3224"><g class="cls-34"><g id="Grupo_3223"><path id="Trazado_7425" d="M326.95,327.81s-14.2,18.34-17.57,17.76-6.7-6.99-6.7-6.99l-3.7-1.72-3.62-6.6,7.82-6.99,23.77,4.55Z"/></g></g></g></g><path id="Trazado_7426" class="cls-13" d="M259.3,211.77s-8.31,3.53-11.01,7.78-4.52,22.68-4.52,22.68l13.19-22.22,2.34-8.24Z"/><path id="Trazado_7427" class="cls-11" d="M271.48,328.84l13.06-4.84,9.94-6.69,8.47,13.56-3.83,2.29s-.11,3.29-.12,3.68-1.3,3.64-11.83,3.43-12.98-5.56-12.98-5.56c0,0-5.47,6.27-7.74,7.25s-4.41-1.99-4.41-1.99l9.44-11.14Z"/><path id="Trazado_7428" class="cls-11" d="M243.27,301.6s-4.97,5.21-6.18,9.29-.51,15.57-.51,15.57l1.43,.05s-.03,7.52,2.08,7.77,4.11,.31,4.22-3.09c-.07-3.14-.39-6.26-.95-9.35l-.1-20.25Z"/><path id="Trazado_7429" class="cls-15" d="M253.32,408.48c-.02-.14-.03-.29-.03-.43-.01-.31-.03-.74-.05-1.28-.03-1.15-.07-2.8-.13-4.92-.09-4.3-.21-10.46-.37-18.08-.26-15.29-.62-36.36-1.01-59.64-.75-23.29-.88-44.42,.39-59.66,.48-6.03,1.73-11.97,3.71-17.68,.35-1.01,.71-1.89,1.04-2.64,.31-.76,.6-1.39,.86-1.89l.57-1.14c.06-.13,.13-.26,.21-.38-.04,.14-.1,.27-.16,.4-.13,.28-.3,.67-.53,1.16-.24,.51-.52,1.14-.82,1.91-.32,.76-.66,1.64-1,2.65-1.91,5.71-3.1,11.64-3.54,17.65-1.18,15.21-.99,36.33-.24,59.61,.34,23.28,.64,44.36,.86,59.65,.08,7.61,.15,13.79,.2,18.08,.01,2.11,.02,3.77,.03,4.92,0,.54,0,.97,0,1.28,0,.15,0,.29-.02,.44"/><path id="Trazado_7430" class="cls-15" d="M290.02,386.16c-.18-.04-.35-.1-.51-.18-.49-.18-.96-.39-1.43-.63-1.72-.86-3.31-1.94-4.74-3.22-2.13-1.89-3.96-4.1-5.42-6.55-1.79-2.99-3.14-6.23-3.98-9.62-1.36-6.17-1.76-12.52-1.18-18.81,.17-2.41,.38-4.35,.53-5.69,.08-.62,.15-1.13,.2-1.54,.01-.18,.04-.36,.1-.53,.02,.18,.02,.36,0,.54-.03,.41-.06,.93-.1,1.55-.1,1.35-.24,3.29-.37,5.7-.47,6.25-.02,12.54,1.32,18.66,.83,3.34,2.14,6.54,3.89,9.5,2.71,4.72,6.79,8.49,11.7,10.82"/><path id="Trazado_7431" class="cls-15" d="M259.3,211.77c.01,.23,0,.45-.02,.68-.04,.48-.08,1.13-.14,1.95-.15,1.75-.35,4.23-.61,7.33v.08s-.08,.04-.08,.04l-2.24,1.28,.09-.16c.38,5.14,.86,11.68,1.4,19.09l-.32-.21,17.74-6.41,5.67-2.04-.17,.28c-.28-1.94-.56-3.85-.83-5.71l-.06-.42,.4,.14,6.76,2.4-.28,.09,13.09-18.61,3.79-5.31,1.02-1.4c.11-.17,.24-.32,.38-.47-.09,.18-.19,.35-.31,.51l-.96,1.44c-.88,1.29-2.12,3.1-3.67,5.38l-12.95,18.73-.1,.15-.17-.06-6.76-2.38,.34-.28c.27,1.87,.55,3.77,.84,5.71l.03,.21-.2,.07-5.67,2.05-17.75,6.38-.3,.11-.02-.32c-.49-7.41-.92-13.96-1.26-19.1v-.11s.09-.05,.09-.05l2.26-1.25-.08,.12c.32-3.1,.57-5.58,.75-7.32,.09-.82,.17-1.47,.22-1.95,.01-.23,.05-.45,.1-.67"/><path id="Trazado_7432" class="cls-15" d="M243.36,321.85c-.03-.15-.04-.31-.04-.47,0-.34-.02-.8-.04-1.37-.02-1.24-.05-2.99-.09-5.2-.04-4.52-.1-10.92-.18-18.62v.06c-1.17-4.1-2.22-8.65-3.22-13.52-.5-2.44-.98-4.95-1.44-7.54-.52-2.64-.82-5.32-.92-8.01-.22-7.19,1.01-14.36,3.62-21.07v.02c1.55-4.3,3.4-8.48,5.55-12.52,1.88-3.65,3.66-6.8,5.16-9.38s2.74-4.6,3.61-5.96l1.01-1.56c.11-.18,.23-.36,.37-.52-.08,.2-.19,.38-.3,.56l-.94,1.59c-.83,1.39-2.02,3.43-3.49,6.03s-3.21,5.76-5.06,9.42c-2.1,4.03-3.93,8.2-5.46,12.49h0v.02c-2.55,6.65-3.76,13.74-3.55,20.86,.1,2.66,.4,5.32,.91,7.93,.46,2.58,.93,5.09,1.42,7.53,.99,4.86,2.02,9.42,3.16,13.5v.03s0,.03,0,.03c0,7.7,0,14.1,0,18.62-.02,2.21-.03,3.96-.04,5.2-.01,.57-.02,1.02-.03,1.37,0,.16,0,.31-.03,.47"/><g id="Grupo_3228" class="cls-43"><g id="Grupo_3227"><g class="cls-33"><g id="Grupo_3226"><path id="Trazado_7433" d="M321.59,281.17c-10.87-7.77-17.38-21.32-17.56-34.68l17.56,34.68Z"/></g></g></g></g><path id="Trazado_7434" class="cls-13" d="M316.7,211.7s9.28,1.81,12.94,9.76,27.92,68.1,28.38,72.34-1.52,9.59-6.51,14.85-42.62,31.76-42.62,31.76l-16.33-26.14,33.23-23.93-21.65-44.7s1.6-30.68,12.55-33.94"/><path id="Trazado_7435" class="cls-15" d="M339.66,296.3c-1.98-1.37-4.04-2.62-6.17-3.73-2.21-.95-4.48-1.77-6.79-2.44,.72-.02,1.44,.07,2.12,.27,3.38,.77,6.56,2.28,9.29,4.42,.59,.41,1.12,.91,1.55,1.48"/><path id="Trazado_7436" class="cls-15" d="M338.42,286.82c-2.02,.19-4.02,.5-6,.94-1.93,.61-3.83,1.33-5.68,2.16,3.36-2.48,7.53-3.59,11.68-3.1"/><path id="Trazado_7437" class="cls-15" d="M351.52,308.65c.06-.1,.14-.19,.22-.27l.67-.75c.37-.39,.73-.81,1.05-1.24,.47-.57,.91-1.17,1.31-1.79,1.15-1.67,2.01-3.52,2.56-5.48,.34-1.21,.53-2.47,.55-3.73,.07-1.41-.18-2.82-.73-4.11-4.35-11.21-10.34-26.65-16.95-43.71l-7.42-17.92c-1.17-2.83-2.3-5.56-3.39-8.2-1.2-2.41-2.96-4.5-5.13-6.1h.02s-18.72-10.46-18.72-10.46h-.02s-.02-.03-.02-.03c-1.63-2.17-2.89-3.85-3.76-5.01l-.96-1.3c-.11-.14-.22-.3-.31-.46,.13,.13,.25,.27,.36,.42l1.01,1.26,3.86,4.94-.04-.03,18.8,10.32h.01s0,.01,0,.01c2.24,1.63,4.06,3.78,5.31,6.26,1.1,2.63,2.24,5.37,3.42,8.19l7.44,17.92c6.64,17.07,12.53,32.57,16.82,43.78,.56,1.34,.8,2.8,.72,4.25-.03,1.29-.23,2.57-.6,3.8-.84,2.68-2.21,5.16-4.03,7.29-.34,.43-.71,.83-1.1,1.21l-.71,.71c-.08,.08-.16,.16-.25,.23"/><path id="Trazado_7438" class="cls-15" d="M327.82,326.87c-.1,.1-.21,.18-.32,.26l-.97,.73-3.74,2.74-13.78,9.96-.16,.12-.11-.17-16.38-26.11-.13-.2,.19-.14,14.96-10.79,18.27-13.14-.08,.31-15.9-32.23-4.55-9.33c-.51-1.07-.91-1.9-1.2-2.5-.12-.27-.22-.48-.3-.65-.04-.07-.07-.15-.09-.23,.05,.06,.09,.13,.13,.21l.34,.63c.3,.59,.72,1.41,1.27,2.46l4.68,9.26c3.98,7.96,9.57,19.14,16.07,32.15l.09,.19-.17,.12c-5.67,4.08-11.84,8.54-18.25,13.16l-14.96,10.78,.07-.34,16.27,26.18-.27-.05,13.88-9.82,3.8-2.66,1-.68c.11-.08,.23-.16,.35-.22"/><path id="Trazado_7439" class="cls-15" d="M304.28,238.59c-.04-.4-.03-.81,.03-1.21,.11-1.1,.3-2.18,.59-3.24,1.89-7.18,7.16-12.99,14.13-15.56,1.03-.39,2.09-.69,3.17-.9,.39-.1,.8-.15,1.2-.15,.02,.1-1.69,.36-4.24,1.39-6.74,2.7-11.87,8.35-13.91,15.32-.78,2.64-.88,4.36-.98,4.35"/><path id="Trazado_7440" class="cls-15" d="M327.82,326.87c-.1,.1-.21,.18-.32,.26l-.97,.73-3.74,2.74-13.78,9.96-.16,.12-.11-.17-16.38-26.11-.13-.2,.19-.14,14.96-10.79,18.27-13.14-.08,.31-15.9-32.23-4.55-9.33c-.51-1.07-.91-1.9-1.2-2.5-.12-.27-.22-.48-.3-.65-.04-.07-.07-.15-.09-.23,.05,.06,.09,.13,.13,.21l.34,.63c.3,.59,.72,1.41,1.27,2.46l4.68,9.26c3.98,7.96,9.57,19.14,16.07,32.15l.09,.19-.17,.12c-5.67,4.08-11.84,8.54-18.25,13.16l-14.96,10.78,.07-.34,16.27,26.18-.27-.05,13.88-9.82,3.8-2.66,1-.68c.11-.08,.23-.16,.35-.22"/><g id="Grupo_3231" class="cls-43"><g id="Grupo_3230"><g class="cls-37"><g id="Grupo_3229"><path id="Trazado_7441" d="M286.8,230.31l-5.54-.18,1.16,5.6-24.96,6.34,23.41-8.44-.83-5.71,6.76,2.39Z"/></g></g></g></g><path id="Trazado_7442" class="cls-15" d="M238.03,408.31c-.02-.26-.02-.51,0-.77,.02-.55,.05-1.29,.09-2.21,.1-1.97,.24-4.75,.41-8.18,.4-6.98,.95-16.62,1.58-27.48l.05,.17c-.95-1.32-1.73-2.76-2.3-4.29-1.44-3.99-2.42-8.13-2.92-12.34-.53-3.98-.81-7.73-.98-11.15-.32-6.84-.2-12.32-.04-15.71v-.11s.11,0,.11,0l2.96,.16,.76,.06c.09,0,.17,.01,.26,.04-.08,.02-.17,.03-.26,.02h-.76l-2.97-.06,.11-.1c-.07,3.38-.11,8.86,.26,15.68,.19,3.41,.49,7.15,1.04,11.1,.5,4.17,1.48,8.27,2.91,12.21,.56,1.48,1.31,2.88,2.23,4.16l.06,.08v.1c-.69,10.85-1.31,20.48-1.75,27.46-.24,3.43-.43,6.2-.57,8.17-.08,.92-.14,1.66-.18,2.21,0,.26-.04,.51-.1,.76"/><path id="Trazado_7443" class="cls-14" d="M300.09,226.9l-1.35-.57c.03-.07,3.05-7.32,6.03-15,1.18-3.05,1.6-5.59,1.26-7.55-.32-1.69-1.83-2.9-3.55-2.85l-.92-1.32c2.69-.42,5.26,1.28,5.92,3.92,.39,2.23-.06,5.04-1.34,8.33-2.98,7.7-6.01,14.97-6.04,15.04"/><path id="Trazado_7444" class="cls-14" d="M302.27,243.85l-1.86-.73c1.53-3.94,3.62-10.91,2.72-12.88-.89-1.42-2.35-2.39-4.01-2.65-2.03-.54-4.2-.09-5.85,1.2-2.14,1.81-5.36,8.19-6.42,10.49l-1.82-.84c.16-.36,4.04-8.72,6.95-11.18,2.13-1.7,4.94-2.3,7.58-1.62,2.27,.38,4.25,1.76,5.39,3.77,1.51,3.3-1.96,12.6-2.67,14.43"/><path id="Trazado_7445" class="cls-15" d="M282.13,274.28c-2.31,0-4.57-1.23-6.75-3.69l.75-.66c2.39,2.7,4.85,3.77,7.31,3.2,9.98-2.35,17.57-30.06,17.64-30.34l.97,.26c-.32,1.17-7.83,28.57-18.38,31.06-.5,.12-1.02,.18-1.54,.18"/><path id="Trazado_7446" class="cls-15" d="M277.3,271.74h0c-.42,.41-1.08,.46-1.55,.11l-2.17-1.61c-.66-.43-.85-1.32-.42-1.98,.43-.66,1.32-.85,1.98-.42,.09,.06,.17,.12,.24,.19l1.94,2.03c.45,.47,.44,1.22-.02,1.68"/><path id="Trazado_7447" class="cls-15" d="M286.36,275.18c-3.08,0-5.37-1.02-6.8-3.04-6.13-8.6,5.43-32.49,5.92-33.5l.9,.44c-.12,.24-11.8,24.36-6.01,32.48,1.51,2.11,4.16,2.96,7.89,2.49l.12,.99c-.67,.09-1.34,.13-2.02,.13"/><path id="Trazado_7448" class="cls-15" d="M286.18,274.64h0c.04,.59,.51,1.06,1.1,1.11l2.69,.22c.78,.11,1.51-.44,1.62-1.22,.11-.78-.44-1.51-1.22-1.62-.1-.01-.19-.02-.29-.01l-2.8,.24c-.65,.06-1.14,.63-1.09,1.28"/><path id="Trazado_7449" class="cls-15" d="M245.91,251.2c0,4.33-3.51,7.83-7.83,7.83s-7.83-3.51-7.83-7.83,3.51-7.83,7.83-7.83,7.83,3.51,7.83,7.83h0"/><path id="Trazado_7450" class="cls-15" d="M245.91,251.2c0,4.33-3.51,7.83-7.83,7.83s-7.83-3.51-7.83-7.83,3.51-7.83,7.83-7.83,7.83,3.51,7.83,7.83h0"/><path id="Trazado_7451" class="cls-13" d="M243.86,251.2c0,3.19-2.59,5.79-5.79,5.79-3.19,0-5.79-2.59-5.79-5.79,0-3.19,2.59-5.79,5.79-5.79s5.79,2.59,5.79,5.79h0"/><path id="Trazado_7452" class="cls-14" d="M241.29,244.14l-1.3-.67c.66-1.28,16.14-31.39,17.07-32.75,.16-.24,.36-.57,.59-.94,.46-.81,.98-1.59,1.54-2.33,1.56-1.93,3.42-3.71,5.65-4.11l-1.3,2.1c-1.2,.47-1.82,1.21-3.22,2.93-.52,.69-1,1.41-1.43,2.17-.24,.4-.46,.76-.63,1.01-.73,1.07-12.5,23.89-16.98,32.6"/></g></g></g><g id="Grupo_3244"><g class="cls-39"><g id="Grupo_3243"><path id="Trazado_7453" class="cls-8" d="M411.3,148.92l.75,60.06c.13,10.21-1.77,25.24-17.93,24.71-13.98-1.52-17.69-14.76-17.8-24.29-.05-4.52-.1-8.29-.14-8.76,0,0-15.31-1.25-16.6-16.37-.62-7.31-.68-22.46-.58-36.17,.12-14.73,11.53-26.89,26.21-27.96l1.46-.11c15.81-.23,24.84,13.07,24.63,28.88"/><path id="Trazado_7454" class="cls-4" d="M376.17,200.65c6.99-.53,13.68-3.05,19.28-7.26,0,0-4,11.4-19.2,11.14l-.08-3.88Z"/><path id="Trazado_7455" class="cls-15" d="M384.84,154.3c.3,.31,2.05-1.1,4.58-1.17,2.53-.11,4.42,1.17,4.69,.85,.13-.15-.18-.7-1.01-1.28-1.11-.74-2.43-1.12-3.77-1.07-1.32,.04-2.6,.5-3.63,1.32-.76,.64-1.01,1.21-.86,1.35"/><path id="Trazado_7456" class="cls-15" d="M387.42,159.51c.07,1.11,1.01,1.96,2.12,1.92,1.08,0,1.97-.87,1.97-1.95,0-.02,0-.03,0-.05-.07-1.11-1.01-1.96-2.12-1.92-1.08,0-1.97,.87-1.97,1.95,0,.02,0,.03,0,.05"/><path id="Trazado_7457" class="cls-15" d="M378.49,171.92c-1.25-.29-2.54-.43-3.83-.41-.6-.02-1.17-.1-1.3-.49-.1-.61,0-1.23,.27-1.79,.45-1.48,.93-3.03,1.43-4.65,1.97-6.62,3.35-12.04,3.08-12.12s-2.08,5.22-4.05,11.84c-.47,1.63-.92,3.19-1.35,4.67-.32,.74-.37,1.58-.14,2.35,.21,.41,.59,.71,1.04,.8,.34,.06,.68,.09,1.02,.07,1.28,.07,2.57-.02,3.83-.27"/><path id="Trazado_7458" class="cls-15" d="M385.92,144.78c.24,.56,2.27,.14,4.7,.26,2.43,.07,4.42,.66,4.71,.12,.12-.26-.25-.78-1.08-1.28-1.09-.62-2.31-.96-3.55-1-1.24-.06-2.48,.18-3.61,.71-.86,.43-1.27,.92-1.16,1.19"/><path id="Trazado_7459" class="cls-15" d="M361.86,149.47c.27,.46,2.24-.05,4.64-.12,2.4-.12,4.38,.23,4.64-.25,.11-.23-.28-.64-1.12-1-1.12-.45-2.33-.65-3.54-.58-1.22,.04-2.42,.33-3.52,.87-.82,.43-1.21,.87-1.09,1.09"/><path id="Trazado_7460" class="cls-8" d="M410.88,160.22c.25-.13,10.17-3.83,10.6,6.54s-10.07,8.66-10.1,8.36-.49-14.9-.49-14.9"/><path id="Trazado_7461" class="cls-4" d="M414.38,171.06s.19,.12,.5,.25c.44,.17,.92,.16,1.35-.03,1.08-.45,1.93-2.22,1.9-4.1,0-.89-.22-1.77-.61-2.57-.22-.65-.75-1.15-1.42-1.33-.43-.1-.87,.13-1.05,.54-.13,.29-.05,.5-.11,.52-.03,.03-.23-.17-.16-.6,.05-.26,.18-.49,.38-.67,.28-.23,.63-.34,.99-.31,.87,.14,1.61,.72,1.95,1.53,.48,.88,.73,1.86,.74,2.87,.02,2.09-.97,4.09-2.45,4.59-.56,.19-1.17,.11-1.66-.21-.33-.24-.4-.47-.36-.49"/><path id="Trazado_7462" class="cls-15" d="M380.94,179.1c-.11-.26,1.92-.87,3.35-2.78,.6-.84,1.08-1.75,1.43-2.71,.3-.75,.53-1.22,.64-1.19s.08,.54-.09,1.36c-.22,1.1-.67,2.13-1.33,3.03-.68,.9-1.6,1.61-2.65,2.03-.79,.32-1.33,.34-1.36,.25"/><path id="Trazado_7463" class="cls-15" d="M424.67,143.43c-2.16-3.66-2.67-8.02-3.85-12.1s-3.45-8.31-7.46-9.73l-.09,.04c-3.59-1.44-8.02-1.47-10.97,1.03-.73-5.39-5.46-9.66-10.72-11.04s-13.7-.56-18.74,1.47c-3.9,1.57-7.67,4.79-12.26,9.51-1.94,1.99-3.71,4.13-5.29,6.41l-4.58,14.12,3.92,7.41c.23,.5,.48,1.01,.77,1.51v-.03l3.53,15.61c.22-4.26-.09-19.07,.14-23.32,6.47-.19,12.58-3.01,16.92-7.82,2.33-2.58,4.15-5.8,7.26-7.34,4.01-1.98,8.79-.54,13.02,.93l-.18-.16c2.21,1.02,4.19,2.46,5.86,4.23-.95,8.41-.07,16.93,2.57,24.98,.4,1.21,1.48,3.69,2.66,4.15,2.33,.9,2.95-1.47,4.36-2.73,1.03-.93,2.56-1.05,4.24-1.04,1.16-3.53,2.11-7.12,2.84-10.76,1.41,.44,2.9,.53,4.35,.29-.45-1.07-.89-2.14-1.34-3.21,.56,.41,1.19,.69,1.86,.84,.69,.14,1.4-.17,1.77-.77,.39-.8-.14-1.71-.59-2.48"/><path id="Trazado_7464" class="cls-14" d="M397.54,124.39c.54,.42,1.05,.89,1.52,1.39,1.19,1.45,1.99,3.18,2.32,5.02,.26,1.26,.39,2.55,.39,3.84,0,1.39-.1,2.89-.21,4.46-.14,1.65-.18,3.31-.11,4.96,.05,.88,.16,1.75,.34,2.62,.13,.92,.5,1.8,1.07,2.54,.54,.6,1.35,.87,2.13,.72,.74-.14,1.42-.52,1.92-1.08,.82-1.13,1.32-2.46,1.46-3.85l-.32,.04c.46,1.14,1.08,2.21,1.84,3.17,.74,.89,1.79,1.47,2.94,1.6,.54,.06,1.08-.04,1.56-.27,.45-.23,.82-.6,1.06-1.04,.23-.41,.34-.87,.32-1.34-.02-.44-.19-.85-.48-1.17l-.16,.14c.9,1.03,2.01,1.86,3.25,2.44,.33,.15,.66,.28,1.01,.39,.12,.04,.24,.07,.36,.09-.11-.06-.22-.11-.34-.15-.23-.09-.56-.23-.98-.44-1.2-.61-2.27-1.45-3.14-2.48l-.16,.14c.51,.65,.55,1.55,.1,2.25-.22,.4-.55,.72-.96,.92-.44,.21-.93,.28-1.41,.23-1.07-.14-2.05-.68-2.73-1.52-.74-.94-1.33-1.99-1.77-3.1l-.22-.49-.1,.52c-.13,1.33-.61,2.59-1.39,3.67-.45,.5-1.05,.85-1.72,.97-.67,.13-1.36-.1-1.81-.6-.52-.7-.86-1.51-.98-2.38-.18-.84-.29-1.7-.34-2.56-.07-1.64-.04-3.28,.09-4.92,.1-1.57,.2-3.07,.18-4.48-.01-1.31-.16-2.61-.43-3.89-.35-1.88-1.21-3.62-2.46-5.06-.46-.52-1.01-.96-1.62-1.3"/><path id="Trazado_7465" class="cls-14" d="M350.75,139.11s.04,.04,.12,.1l.38,.28c.2,.15,.42,.29,.64,.41,.3,.18,.6,.34,.92,.48,2.03,.92,4.25,1.32,6.47,1.17,3.3-.22,6.48-1.39,9.13-3.37,3.2-2.45,5.87-5.53,7.84-9.04,1.1-1.83,2-3.71,2.98-5.44,.9-1.69,2.04-3.24,3.38-4.6,1.21-1.23,2.71-2.14,4.36-2.65,.75-.21,1.52-.3,2.3-.26,.71,.04,1.42,.17,2.1,.4,2.08,.71,3.81,2.18,4.86,4.11,.35,.72,.61,1.48,.78,2.27,0-.05,0-.11-.01-.16-.02-.13-.04-.28-.07-.46-.12-.59-.32-1.16-.58-1.71-.43-.86-1-1.63-1.69-2.3-.91-.89-2.01-1.57-3.21-1.99-.7-.24-1.43-.39-2.17-.44-.81-.04-1.61,.04-2.39,.25-1.7,.51-3.25,1.43-4.51,2.69-1.37,1.38-2.53,2.95-3.45,4.67-1,1.75-1.9,3.62-2.99,5.43-1.95,3.47-4.58,6.52-7.73,8.96-2.6,1.96-5.71,3.14-8.95,3.38-2.19,.17-4.38-.18-6.4-1.04-.73-.34-1.43-.73-2.12-1.15"/><path id="Trazado_7466" class="cls-15" d="M361.74,155.26c.3,.31,2.05-1.1,4.58-1.17,2.53-.1,4.42,1.17,4.69,.85,.13-.15-.18-.7-1.01-1.28-1.11-.74-2.43-1.12-3.77-1.07-1.32,.04-2.6,.5-3.63,1.32-.76,.64-1.01,1.21-.86,1.35"/><path id="Trazado_7467" class="cls-15" d="M365.22,159.51c.07,1.11,1.01,1.96,2.12,1.92,1.08,0,1.97-.87,1.97-1.95,0-.02,0-.03,0-.05-.07-1.11-1.01-1.96-2.12-1.92-1.08,0-1.97,.87-1.97,1.95,0,.02,0,.03,0,.05"/><path id="Trazado_7468" class="cls-15" d="M356.56,127.28c-1.27,1.72-3.23,3.29-5.35,3.09-.77-.15-1.53-.37-2.26-.63-.73,.46-.53,2.99-.01,3.68,.49,.59,1.03,1.13,1.61,1.62-2.47,1.37-4.74,.74-7.4-.2,.59,4.59,3.58,8.53,7.85,10.33,1.34,.55,2.97,.83,4.18,.03,.98-.84,1.62-2,1.79-3.28,1.13-4.56,1.7-9.23,1.68-13.93l-2.09-.71Z"/><path id="Trazado_7469" class="cls-14" d="M369.05,212.29l7.05-3.72s7.4,10.98,18.4,9.9,17.99-10.82,17.99-10.82l7.02,3.55-23.97,39.37-26.5-38.28Z"/><path id="Trazado_7470" class="cls-9" d="M447.92,326.84l-8.12-55.52,5.95-52.13-27.69-9.68-22.66,36.99-25.93-35.83-15.35,6.73c-13.39,5.87-25.48,18.55-28.25,32.9-.04,.19-.07,.38-.11,.57-3.55,19.22,.38,46.62,.38,46.62l26.26-11.63-2.12-9.26,5.03,21.15s-21.45,78.18-18.41,103.81c0,0,40.5,9.03,77.79,2.89s47.41-7.84,47.41-7.84l-14.19-69.77Z"/><path id="Trazado_7471" class="cls-9" d="M445.75,219.18s16.11,13.96,17.89,33.45c1.78,19.49,5.07,36.84,5.07,36.84l-32.47,3.47s-.76-13.35,0-14.15,6.09-40.84,6.09-40.84l3.42-18.77Z"/><g id="Grupo_3236" class="cls-43"><g id="Grupo_3235"><g class="cls-38"><g id="Grupo_3234"><path id="Trazado_7472" d="M348.52,325.15l-1.16,5.38,19.67,7.02c7.01,2.5,14.06,5.01,21.4,6.27,13.46,2.31,27.24,.31,40.75-1.69,7.55-1.12,16.02-2.8,20.17-9.21-33.81,2.06-67.74-.56-100.83-7.77"/></g></g></g></g><path id="Trazado_7473" class="cls-14" d="M328.56,296.39c.25,.27,9.01,25.64,14.08,30.18s34.5,2.94,46.93-1.6,38.83-10.05,38.83-10.05l-4.04-20.48s-9.65,.96-22.36,3.03c-4.6,.75-46.67,.27-46.67,.27l-2.91-11.89-23.86,10.54Z"/><path id="Trazado_7474" class="cls-14" d="M466.99,289.65c-.08,0-.8,33.45-4.36,37.72s-15.97,9.34-25.36,10.41-66.47-1.53-74.84-8.51l32.98-23,33.61,8.3,9.42-4.05,.86-17.92,27.69-2.96Z"/><path id="Trazado_7475" class="cls-15" d="M436.84,342.65c-.13,.2-.28,.39-.45,.56l-1.36,1.55c-.59,.67-1.32,1.49-2.23,2.39s-1.88,1.97-3.08,3.04c-1.17,1.1-2.45,2.3-3.9,3.51-1.41,1.25-3,2.49-4.67,3.79-3.67,2.78-7.5,5.34-11.48,7.65-4,2.28-8.14,4.31-12.39,6.08-1.98,.77-3.84,1.54-5.64,2.11-.89,.3-1.75,.61-2.59,.87l-2.42,.71c-1.53,.48-2.95,.79-4.19,1.1s-2.31,.54-3.19,.69l-2.03,.37c-.23,.06-.47,.09-.71,.1,.22-.09,.46-.16,.69-.2l2.01-.47c.88-.19,1.94-.43,3.16-.78s2.63-.67,4.15-1.17l2.4-.74c.83-.27,1.68-.59,2.57-.9,1.78-.59,3.63-1.38,5.6-2.15,4.22-1.79,8.33-3.83,12.31-6.09,3.96-2.3,7.79-4.83,11.45-7.58,1.67-1.29,3.27-2.51,4.69-3.74,1.46-1.19,2.74-2.37,3.93-3.45,1.2-1.05,2.2-2.1,3.12-2.98s1.67-1.67,2.29-2.32l1.43-1.48c.16-.18,.34-.35,.53-.49"/><path id="Trazado_7476" class="cls-15" d="M426.04,212.29c-.03,.1-.07,.19-.12,.28l-.41,.78c-.39,.71-.93,1.72-1.63,2.99l-6.07,10.97-20.28,36.23-.2,.35-.24-.33-.78-1.07-25-34.26c-3.16-4.38-5.73-7.93-7.53-10.42l-2.03-2.85c-.21-.31-.38-.56-.52-.75-.06-.08-.12-.17-.16-.27,.08,.07,.15,.15,.2,.23,.14,.18,.33,.42,.56,.72,.5,.67,1.21,1.6,2.1,2.79l7.66,10.32,25.13,34.17,.78,1.07-.44,.03c7.99-14.15,15.19-26.9,20.41-36.16l6.21-10.89,1.71-2.94,.45-.76c.05-.09,.1-.17,.17-.25"/><path id="Trazado_7477" class="cls-15" d="M406.68,295.4c-.04-.2-.06-.41-.05-.62-.01-.46-.03-1.05-.05-1.78-.02-1.61-.05-3.83-.08-6.55-.02-2.79-.04-6.07-.06-9.71,0-1.83-.01-3.75-.02-5.73v-4.8c0-.12,.05-.23,.12-.32,.13-.16,.33-.25,.54-.24l.8-.04c8.45-.15,16.08,.02,21.61,.1l6.55,.16,1.78,.07c.21,0,.42,.02,.62,.06-.2,.04-.41,.05-.62,.04l-1.78,.03h-6.55c-5.52,.02-13.17-.09-21.59,.06l-.77,.04c-.18,0-.13,0-.16,.04,0,.01-.02,.03-.02,.04v4.76c0,1.99-.01,3.9-.02,5.73-.02,3.64-.04,6.93-.06,9.71-.03,2.71-.06,4.93-.08,6.55-.02,.73-.04,1.32-.05,1.78,0,.21-.01,.42-.05,.62"/><path id="Trazado_7478" class="cls-15" d="M439.29,292.61c.02,.1,.02,.21,.02,.31,0,.24,0,.54-.02,.92-.03,.85-.07,2.02-.11,3.51-.13,3.08-.3,7.46-.52,12.81v.13s-.13,.05-.13,.05c-3.81,1.49-8.21,3.18-13.07,4.9-4.86,1.74-10.22,3.32-15.85,4.84-12.85,3.43-24.71,5.47-33.28,6.94l-10.16,1.7-2.77,.44-.72,.1c-.08,.02-.17,.02-.25,.02,.08-.03,.16-.06,.24-.07l.71-.15,2.75-.54,10.13-1.86c8.55-1.56,20.39-3.66,33.21-7.09,5.61-1.52,10.97-3.09,15.82-4.8,4.86-1.7,9.27-3.35,13.09-4.81l-.13,.18c.29-5.35,.53-9.72,.7-12.8,.09-1.49,.17-2.66,.22-3.5,.03-.37,.05-.67,.07-.91,0-.11,.02-.21,.05-.31"/><path id="Trazado_7479" class="cls-8" d="M424.74,296.09c3.17-.41,6.36-.64,9.56-.69,1.62,.09,3.24,.31,4.82,.68l-.69,14.45-10.14,4.05-3.56-18.49Z"/><path id="Trazado_7480" class="cls-15" d="M342.18,243.15c.2,.56,.36,1.13,.48,1.71,.29,1.19,.67,2.78,1.12,4.7,.95,4.05,2.23,9.5,3.64,15.53,1.43,6.06,2.77,11.54,3.76,15.5l1.18,4.69c.17,.57,.3,1.15,.38,1.74-.23-.54-.43-1.11-.57-1.68-.34-1.09-.79-2.68-1.34-4.65-1.08-3.94-2.48-9.41-3.91-15.47s-2.65-11.57-3.5-15.57c-.39-1.94-.72-3.54-.96-4.74-.14-.58-.23-1.16-.28-1.75"/><path id="Trazado_7481" class="cls-15" d="M438.58,273.36c-.41,.09-.83,.14-1.25,.13-.81,.05-1.98,.11-3.43,.16-2.89,.11-6.89,.19-11.31,.18s-8.42-.1-11.31-.21c-1.45-.06-2.62-.12-3.42-.17-.42,0-.84-.05-1.25-.14,.42-.07,.84-.09,1.26-.07h3.43l11.31,.06,11.3-.03h3.43c.42-.02,.84,0,1.26,.07"/><path id="Trazado_7482" class="cls-15" d="M379.98,297.88c-.24-.25-.45-.53-.62-.84-.43-.66-.95-1.45-1.55-2.37-1.31-2-3.16-4.74-5.33-7.68s-4.23-5.51-5.76-7.36l-1.81-2.19c-.24-.25-.45-.53-.62-.84,.29,.2,.54,.44,.77,.71,.47,.48,1.14,1.19,1.93,2.08,1.6,1.79,3.72,4.34,5.9,7.29s3.98,5.73,5.22,7.79c.62,1.03,1.1,1.87,1.42,2.46,.19,.29,.34,.61,.45,.95"/><path id="Trazado_7483" class="cls-15" d="M385.73,298.15c-2.05-2.51-3.32-5.57-3.68-8.79,.15-.03,.67,2.04,1.69,4.46s2.12,4.24,1.99,4.33"/><path id="Trazado_7484" class="cls-15" d="M401.81,255.4c-.14-.13-.27-.27-.37-.42l-.98-1.27c-.88-1.18-2.07-2.79-3.53-4.74l-11.49-15.77-11.37-15.86-3.4-4.84c-.36-.54-.66-.98-.9-1.33-.12-.15-.21-.31-.29-.49,.14,.13,.26,.27,.37,.42l.98,1.27,3.53,4.74c2.98,4.09,7.02,9.64,11.49,15.78,4.42,6.17,8.42,11.75,11.37,15.86,1.4,2,2.55,3.64,3.4,4.84l.9,1.33c.12,.15,.21,.31,.29,.49"/><path id="Trazado_7485" class="cls-15" d="M415.57,209.5c-.03,.18-.09,.36-.16,.53-.17,.5-.37,.99-.6,1.46-.83,1.76-1.93,3.39-3.25,4.82-1.97,2.13-4.33,3.86-6.95,5.1-3.21,1.53-6.7,2.38-10.25,2.5-3.56,.11-7.1-.6-10.34-2.08-2.65-1.18-5.06-2.82-7.12-4.86-1.39-1.36-2.6-2.9-3.58-4.58-.27-.45-.51-.92-.73-1.4-.09-.16-.16-.33-.21-.51,1.3,2.29,2.91,4.38,4.79,6.22,2.06,1.96,4.45,3.55,7.06,4.69,3.18,1.42,6.64,2.1,10.12,2,3.48-.12,6.91-.95,10.06-2.43,2.58-1.2,4.91-2.87,6.88-4.92,1.33-1.39,2.45-2.96,3.34-4.66,.62-1.21,.9-1.92,.94-1.9"/><g id="Grupo_3239" class="cls-43"><g id="Grupo_3238"><g class="cls-42"><g id="Grupo_3237"><path id="Trazado_7486" d="M362.43,329.28c26.69,2.23,54.79,2.82,76.88-19.3-23.23,9.53-52.05,15.59-76.88,19.3"/></g></g></g></g><g id="Grupo_3242" class="cls-43"><g id="Grupo_3241"><g class="cls-40"><g id="Grupo_3240"><path id="Trazado_7487" d="M439.23,296.05c-3.64-3.32-4.16-8.8-4.05-13.73,.18-8.25,2.18-17.42,4.49-25.34-.48,14.07-1.52,26.45-.6,39.13"/></g></g></g></g><path id="Trazado_7488" class="cls-15" d="M355.33,297.74c.04,.07-.48,.41-1.28,1-1.03,.75-1.93,1.67-2.66,2.73-.68,1.1-1.28,2.24-1.8,3.42-.18,.52-.45,1-.79,1.43,.06-.54,.21-1.08,.44-1.57,.43-1.25,1-2.45,1.71-3.57,.75-1.11,1.74-2.04,2.88-2.74,.45-.33,.95-.56,1.49-.69"/><path id="Trazado_7489" class="cls-9" d="M457.98,392.68l2.47,15.79h-121.43l1.43-11.87,117.53-3.92Z"/><path id="Trazado_7490" class="cls-15" d="M461.49,396.42c-.1,.05-.2,.08-.31,.11l-.92,.26-3.54,.96c-1.54,.42-3.42,.92-5.63,1.41s-4.71,1.14-7.51,1.67l-4.39,.89c-1.53,.3-3.13,.55-4.78,.84-3.3,.61-6.85,1.08-10.58,1.62-7.48,.96-15.73,1.74-24.42,2.14-8.7,.36-16.99,.29-24.52-.02-3.76-.21-7.34-.38-10.68-.7-1.67-.15-3.28-.26-4.83-.43l-4.45-.5c-2.84-.29-5.38-.7-7.62-1.01s-4.17-.63-5.73-.92l-3.61-.65-.94-.18c-.11-.01-.21-.04-.32-.08,.11,0,.22,0,.33,.03l.95,.13,3.62,.55c1.57,.26,3.5,.55,5.74,.83s4.79,.67,7.62,.93l4.44,.47c1.55,.16,3.16,.26,4.83,.4,3.33,.3,6.91,.45,10.67,.65,7.52,.28,15.8,.33,24.48-.02,8.68-.4,16.92-1.17,24.38-2.1,3.73-.52,7.27-.98,10.57-1.57,1.65-.28,3.25-.52,4.77-.81l4.39-.85c2.8-.51,5.3-1.11,7.52-1.59s4.11-.93,5.65-1.32l3.57-.86,.93-.21c.11-.03,.21-.05,.32-.05"/><path id="Trazado_7491" class="cls-15" d="M442.61,234.88c0,.21-.01,.42-.05,.62-.06,.46-.15,1.04-.25,1.76-.23,1.53-.55,3.74-.91,6.47-.73,5.47-1.58,13.04-2.09,21.44s-.57,16.03-.49,21.54c.04,2.76,.08,4.99,.13,6.53,.01,.73,.03,1.32,.04,1.78,.02,.21,0,.42-.02,.62-.05-.2-.08-.41-.08-.62-.04-.46-.08-1.05-.13-1.77-.11-1.54-.21-3.77-.3-6.53-.17-5.52-.16-13.16,.34-21.58s1.41-16,2.24-21.46c.41-2.73,.78-4.93,1.08-6.45,.14-.71,.25-1.29,.34-1.74,.03-.21,.08-.41,.15-.6"/></g></g></g><g id="Grupo_3258"><g class="cls-27"><g id="Grupo_3257"><path id="Trazado_7492" class="cls-13" d="M175.91,111.75c-1.39-2.64-4.3-4.12-7.25-3.68-3.49-2.7-8.37-2.68-11.84,.05-4.03-2.47-9.29-1.2-11.76,2.83-.74,1.2-1.16,2.57-1.24,3.97-3.03-.47-6.02,.99-7.52,3.66-1.4,2.72-.96,6.03,1.1,8.29-3.3,1.13-5.29,4.48-4.71,7.92,.79,3.39,3.93,5.72,7.41,5.48l34.43-20.51c2.12-2.1,2.68-5.32,1.4-8.01"/><path id="Trazado_7493" class="cls-8" d="M139.08,141.23c1.44-15.12,14.25-26.6,29.44-26.38l1.51,.02c16.26,1.19,24.33,15.66,22.7,31.88l-3.15,54.15-.18,2.63-37.66,6.98,.25-13.81s-15.61-2.66-15.57-18.3c.02-7.56,1.32-23.11,2.66-37.17"/><path id="Trazado_7494" class="cls-4" d="M151.87,196.68c7.26,.11,14.41-1.87,20.58-5.7,0,0-4.98,11.19-20.57,9.55v-3.85Z"/><path id="Trazado_7495" class="cls-15" d="M145.23,155.71c-.03,1.21,.91,2.22,2.12,2.28,1.18,.11,2.22-.75,2.33-1.93,0-.02,0-.03,0-.05,.03-1.21-.91-2.22-2.12-2.29-1.18-.11-2.22,.75-2.33,1.93,0,.02,0,.03,0,.05"/><path id="Trazado_7496" class="cls-15" d="M142.33,148.93c.27,.3,1.98-.93,4.39-.89,2.4,0,4.15,1.27,4.41,.98,.13-.13-.14-.66-.9-1.23-1.03-.74-2.26-1.14-3.53-1.14-1.25-.02-2.48,.35-3.5,1.07-.75,.56-1,1.08-.87,1.21"/><path id="Trazado_7497" class="cls-15" d="M167.58,156.29c-.03,1.21,.91,2.22,2.12,2.28,1.17,.11,2.22-.75,2.33-1.93,0-.02,0-.04,0-.05,.03-1.21-.91-2.22-2.12-2.29-1.18-.11-2.22,.75-2.33,1.93,0,.02,0,.03,0,.05"/><path id="Trazado_7498" class="cls-15" d="M165.95,149.72c.27,.3,1.99-.93,4.39-.89,2.4,0,4.15,1.27,4.41,.98,.13-.13-.14-.66-.9-1.23-1.03-.74-2.26-1.14-3.53-1.14-1.25-.02-2.48,.35-3.5,1.07-.74,.56-1.01,1.08-.87,1.21"/><path id="Trazado_7499" class="cls-15" d="M156.97,167.42c.01-.14-1.48-.42-3.89-.76-.61-.07-1.19-.2-1.29-.62-.04-.63,.11-1.27,.44-1.81,.6-1.48,1.23-3.03,1.88-4.65,2.62-6.62,4.52-12.06,4.25-12.17s-2.61,5.18-5.22,11.8c-.63,1.63-1.23,3.19-1.81,4.68-.4,.74-.52,1.59-.35,2.4,.17,.44,.54,.78,1,.91,.34,.1,.69,.15,1.04,.16,2.43,.17,3.95,.2,3.96,.06"/><path id="Trazado_7500" class="cls-15" d="M164.02,169.18c-.39-.03-.43,2.58-2.69,4.4s-5.03,1.49-5.06,1.86c-.04,.16,.61,.52,1.78,.57,1.53,.04,3.02-.45,4.22-1.4,1.15-.91,1.9-2.24,2.09-3.69,.12-1.09-.17-1.74-.35-1.73"/><path id="Trazado_7501" class="cls-13" d="M165.47,140.29c.23,.66,2.63,.38,5.45,.76,2.82,.32,5.09,1.18,5.47,.6,.17-.28-.22-.9-1.13-1.54-2.46-1.61-5.53-1.99-8.32-1.04-1.04,.4-1.57,.91-1.47,1.22"/><path id="Trazado_7502" class="cls-13" d="M143.32,141.98c.42,.55,2.08,0,4.07,.01,1.99-.07,3.67,.42,4.07-.15,.18-.28-.08-.83-.81-1.35-2.01-1.3-4.6-1.25-6.56,.11-.71,.55-.95,1.11-.77,1.38"/><path id="Trazado_7503" class="cls-13" d="M140.69,134.08s4.27-9.73,9.02-11.95c5.76-2.68,8.13,3.63,13.6,2.18s10.97-4.02,16.48,.27c6.03,4.7,3.12,7.89,3.4,14.84,1.12,28.16,6.14,36.19,7.79,22.96,.18-1.45,4.23-2.55,4.91-8.67,.89-7.94,1.34-17.6-.36-23.27-1.43-4.78-4.09-8.11-8.9-11.8-7.6-5.83-18.14-6.11-25.32-5.49s-21.1,8.66-20.63,20.93"/><path id="Trazado_7504" class="cls-8" d="M189.99,161.94c.11-2.34,2.1-4.15,4.44-4.04,.07,0,.13,0,.2,.01,2.91,.32,6.14,2.02,5.85,8.05-.5,10.69-11.12,7.98-11.13,7.68,0-.21,.38-7.23,.63-11.7"/><path id="Trazado_7505" class="cls-4" d="M191.87,169.72s.18,.14,.49,.3c.43,.21,.93,.24,1.39,.09,1.15-.36,2.18-2.11,2.32-4.03,.07-.92-.07-1.83-.4-2.69-.17-.69-.67-1.25-1.33-1.49-.44-.14-.91,.06-1.12,.46-.16,.29-.1,.51-.16,.52-.03,.03-.22-.19-.12-.63,.07-.26,.23-.49,.45-.65,.3-.21,.68-.29,1.04-.22,.88,.22,1.59,.88,1.87,1.75,.41,.95,.59,1.98,.51,3.01-.17,2.15-1.37,4.12-2.93,4.49-.59,.14-1.21,0-1.69-.36-.32-.28-.36-.52-.33-.54"/><path id="Trazado_7506" class="cls-13" d="M190.08,141.22c-1.33,1.04-2.9,1.74-4.56,2.03-1.68,.14-3.57-.85-3.83-2.51-.12-.75,.08-1.61-.4-2.19-.57-.7-1.65-.49-2.55-.41-3.23,.2-6.15-1.88-7.01-5-.81,1.18-2.66,1.1-3.85,.31-1.1-.91-2.06-1.98-2.87-3.16-.92-1.09-2.23-2.07-3.64-1.89-.76,.25-1.54,.41-2.33,.48-1.4-.15-2.06-1.8-2.26-3.2s-.33-3.02-1.51-3.8c-1.09-.72-2.53-.33-3.82-.16s-2.96-.15-3.27-1.42c-.1-.69,.08-1.39,.51-1.93,1.83-2.63,5.23-3.67,8.21-2.5,1.55-4.95,6.81-7.71,11.76-6.16,2.37,.74,4.35,2.39,5.51,4.59,3.95-3.48,9.97-3.1,13.45,.85,.74,.84,1.33,1.8,1.73,2.85,3.7-.92,7.45,1.34,8.36,5.04,.43,1.73,.17,3.57-.72,5.11,1.91,1.13,3.52,3.06,3.53,5.27s-2.18,4.39-4.31,3.77c.92,1.9,.12,4.19-1.79,5.11-1.74,.84-3.84,.24-4.88-1.39"/><path id="Trazado_7507" class="cls-6" d="M196.99,137.17c.08,.75-.18,1.5-.7,2.05-.54,.67-1.31,1.12-2.16,1.25-1.1,.16-2.21-.18-3.04-.93l.45-.06c-.58,.99-1.31,1.88-2.17,2.64-.58,.51-1.24,.91-1.97,1.18-1.91,.61-4-.05-5.22-1.65-.42-.68-.7-1.44-.83-2.24-.08-.28-.11-.57-.07-.87,.05,0,.13,.28,.3,.81,.21,.73,.53,1.42,.96,2.05,.99,1.55,4.28,2.38,6.42,.24,.81-.71,1.51-1.55,2.07-2.47l.19-.31,.26,.25c.69,.65,1.63,.96,2.57,.86,.75-.08,1.44-.43,1.96-.99,.44-.53,.77-1.15,.97-1.81"/><path id="Trazado_7508" class="cls-6" d="M177.14,112.45s-.28,.07-.76,.27c-.69,.28-1.27,.77-1.68,1.39l-.13,.2-.15-.2c-1.32-1.83-3.07-3.3-5.11-4.26-1.32-.62-2.75-.95-4.2-.99-1.6-.02-3.17,.41-4.55,1.23-1.08,.64-2.01,1.49-2.73,2.52-.66,.96-1.08,2.06-1.22,3.21l-.04,.34-.32-.09c-1.49-.42-3.09-.25-4.45,.48-1.07,.58-1.93,1.48-2.47,2.57-.45,.99-.69,2.07-.71,3.16-.1-.28-.14-.58-.12-.88,0-.84,.18-1.66,.52-2.43,.52-1.2,1.42-2.19,2.55-2.84,1.47-.83,3.21-1.05,4.84-.6l-.36,.24c.14-1.25,.58-2.45,1.29-3.49,.77-1.1,1.76-2.03,2.92-2.71,1.47-.88,3.16-1.33,4.87-1.29,1.53,.04,3.04,.42,4.42,1.09,2.1,1.03,3.88,2.6,5.15,4.56h-.27c.46-.65,1.13-1.13,1.9-1.37,.26-.1,.54-.14,.82-.1"/><path id="Trazado_7509" class="cls-4" d="M167.67,170.8c-.17,0-.22-1.13-1.12-2.07-.86-.97-1.98-1.12-1.97-1.3,0-.08,.3-.16,.79-.07,1.29,.29,2.26,1.35,2.44,2.66,.05,.49-.06,.78-.14,.78"/><path id="Trazado_7510" class="cls-4" d="M168.66,167.85c-.15,.09-.53-.29-1.1-.55-.56-.28-1.09-.34-1.12-.51-.04-.16,.64-.4,1.38-.04s.98,1.04,.83,1.1"/><path id="Trazado_7511" class="cls-4" d="M181.07,193.06c0-.05,.15-.08,.29-.28,.18-.28,.2-.65,.04-.94-.17-.41-.65-.77-.97-1.47-.19-.4-.18-.86,.03-1.25,.21-.32,.45-.62,.7-.9,.83-1.06-1.58-1.81-1.26-3.17,.04-.44,.25-.85,.59-1.13,.24-.18,.42-.2,.43-.17-.34,.36-.55,.83-.59,1.32,.05,.52,.33,.99,.78,1.27,.3,.25,.54,.55,.71,.9,.2,.44,.13,.96-.16,1.34-.26,.35-.54,.59-.67,.84-.13,.23-.14,.51-.03,.75,.19,.53,.67,.97,.85,1.52,.18,.44,.07,.94-.27,1.27-.26,.21-.47,.14-.46,.11"/><path id="Trazado_7512" class="cls-4" d="M184.39,192.59s-.05-.16-.14-.39c-.15-.33-.35-.63-.58-.9-.17-.21-.33-.44-.45-.69-.17-.32-.22-.69-.14-1.05,.19-.77,.82-1.24,1.12-1.79,.34-.54,.05-1.01-.41-1.48-.23-.23-.42-.5-.57-.79-.12-.27-.18-.57-.16-.87,.1-1.11,.85-1.43,.85-1.36-.25,.41-.4,.88-.42,1.36,.05,.5,.3,.96,.71,1.27,.27,.25,.5,.55,.65,.88,.16,.42,.11,.89-.12,1.28-.42,.71-.99,1.13-1.11,1.63-.15,.47,.17,.95,.41,1.36,.23,.33,.39,.7,.46,1.1,.02,.3-.07,.45-.1,.44"/><path id="Trazado_7513" class="cls-8" d="M70.91,239.94s2.4,9.66,3.98,12.31c.92,1.48,1.54,3.14,1.8,4.86l.99,15.47-12.65,12.51-24.54-18.33s-8.8-8.6-6.42-11.86c0,0,1.17-1.59,3.22,.03,0,0-9.18-7.11-7.05-9.9s5.28,1.26,8.6,4.07c3.32,2.82,4.41,3.61,4.41,3.61l-9.54-9.23s-2.7-2.37-.31-4.31c2.39-1.94,5.92,2.92,7.6,3.92s11.07,9.96,11.07,9.96c0,0-6.51-8.29-6.97-8.75s-6.35-4.87-4.16-7.42,7.83,3.65,9.69,5.06,8.85,9.76,10.41,10.61,4.38,3.29,6.11,2.52-1.82-7.26-1.26-9.58,1.52-6.76,5.03-5.56"/><path id="Trazado_7514" class="cls-4" d="M64.9,269.83c-.36-.74-.66-1.5-.89-2.29-.36-1.94-.13-3.95,.68-5.75,.85-2.18,2.01-3.97,2.64-5.43,.27-.58,.42-1.2,.44-1.84,0-.46-.11-.69-.15-.68-.09,.81-.33,1.6-.71,2.32-1.06,1.73-2.01,3.53-2.83,5.38-.86,1.92-1.04,4.07-.51,6.1,.18,.86,.65,1.62,1.34,2.17"/><path id="Trazado_7515" class="cls-4" d="M47.8,264.79c.07-.02-.31-.9-1.51-1.7-1.13-.85-3.06-1.42-4.41-2.87-.6-.75-1.13-1.57-1.57-2.43-.39-.73-.88-1.41-1.45-2.01-1.03-1.04-2.03-1.12-2.02-1.04,.62,.37,1.19,.82,1.68,1.35,.49,.61,.92,1.28,1.26,1.99,.43,.92,.97,1.78,1.61,2.57,.71,.74,1.56,1.34,2.51,1.76,.83,.41,1.57,.73,2.15,1.07,.61,.39,1.2,.83,1.75,1.3"/><path id="Trazado_7516" class="cls-15" d="M117.83,408.2h78.54v-28.43l-78.54-8.8v37.23Z"/><path id="Trazado_7517" class="cls-9" d="M151.89,202.3l5.67,3.57,32.65-14.03,1.48,7.22-29.53,61.26-1.77,116.82-31.96-2.61,19.76-157.78,3.71-14.44Z"/><path id="Trazado_7518" class="cls-15" d="M182.45,205.4c-.36,.27-.74,.51-1.14,.7l-3.19,1.78c-2.69,1.5-6.4,3.59-10.46,5.94l-5.13,2.99-.22,.13-.12-.21c-1.59-2.87-2.53-5.49-3.35-7.26-.39-.9-.72-1.6-.95-2.08-.14-.24-.25-.49-.33-.75,.19,.2,.35,.43,.47,.68,.28,.46,.65,1.14,1.09,2.03,.9,1.75,1.9,4.35,3.5,7.14l-.34-.09c1.57-.95,3.3-1.97,5.12-3.02,4.07-2.35,7.81-4.39,10.55-5.81,1.37-.71,2.49-1.26,3.27-1.63,.39-.21,.81-.39,1.24-.52"/><path id="Trazado_7519" class="cls-3" d="M145.21,211.12l-16.68,6.38c-2.12,.81-4.01,2.14-5.5,3.85-3.64,4.18-10.09,13.21-13.95,28.01-5.24,20.05-10.82,35.12-10.82,35.12l-18.64-13.81-25.88,25.56s43.58,37.94,57.42,37.77l-9.38,74.29h26.75l22.11-197.18,1.26-8.82c-.46,.18-5.44,7.11-6.68,8.82"/><path id="Trazado_7520" class="cls-15" d="M120.54,235.95c0,.09,0,.18,0,.27-.02,.21-.04,.47-.07,.8-.08,.74-.19,1.76-.34,3.06-.31,2.69-.75,6.52-1.28,11.24-1.07,9.49-2.46,22.61-3.83,37.11s-2.49,27.66-3.32,37.17c-.41,4.73-.75,8.57-.99,11.27-.12,1.3-.22,2.32-.29,3.06l-.09,.8c0,.09-.02,.18-.05,.27-.01-.09-.01-.18,0-.27,0-.21,.02-.47,.04-.8,.05-.74,.11-1.77,.19-3.07,.2-2.7,.48-6.55,.82-11.28,.73-9.52,1.8-22.68,3.16-37.19s2.82-27.63,3.98-37.11c.58-4.74,1.08-8.57,1.45-11.22,.18-1.29,.33-2.31,.44-3.04,.05-.32,.09-.58,.13-.79,0-.09,.03-.18,.06-.27"/><path id="Trazado_7521" class="cls-15" d="M200.43,310.5c-1.71-1.39-3.54-2.61-5.47-3.66-2.01-.89-4.1-1.6-6.24-2.12,.66-.07,1.32-.02,1.96,.15,3.14,.59,6.06,2.03,8.44,4.17,.52,.41,.96,.9,1.31,1.47"/><path id="Trazado_7522" class="cls-3" d="M224.08,223.79s-6.64-5.18-13.33-10.56-17.82-13.4-17.82-13.4l-2.01-6.73s-5.89,6.2-11.06,17.42c-7.42,16.12-15.98,39.64-17.71,49.8l-10.26,147.88h76.52l-17.79-105.12,13.46-79.28Z"/><path id="Trazado_7523" class="cls-15" d="M161.69,269.79c.09-.25,.21-.49,.35-.73l1.09-2.03c1-1.8,2.39-4.32,4.11-7.41l13.72-24.35c.24-.43,.49-.86,.73-1.28l-.02,.2-1.68-5.71-.05-.18,.15-.11,4.1-2.9-.09,.12c2.54-7.43,4.71-13.82,6.28-18.42,.78-2.23,1.41-4.02,1.85-5.3,.21-.58,.38-1.05,.51-1.41,.05-.17,.12-.33,.21-.48-.02,.17-.07,.34-.12,.5-.11,.37-.26,.84-.44,1.43l-1.72,5.34c-1.52,4.61-3.64,11.02-6.1,18.47l-.02,.08-.07,.05-4.09,2.91,.1-.28c.55,1.85,1.12,3.76,1.69,5.71l.03,.11-.05,.1c-.24,.42-.48,.85-.73,1.28-5.4,9.46-10.28,18.02-13.85,24.28l-4.25,7.33-1.18,1.98c-.13,.24-.28,.46-.44,.67"/><path id="Trazado_7524" class="cls-15" d="M143.66,273.36c-.07-.22-.12-.44-.15-.67l-.34-1.93c-.28-1.74-.67-4.16-1.15-7.12-.93-6.07-2.19-14.36-3.59-23.52-.14-.95-.28-1.89-.42-2.82v-.09s.03-.08,.03-.08c1.2-2.18,2.37-4.29,3.48-6.3l.14,.36-3.47-1.14-.24-.08,.09-.23,5.09-13.46,1.49-3.82c.17-.41,.3-.74,.41-1.01,.04-.12,.1-.23,.17-.34-.01,.13-.05,.25-.09,.36l-.34,1.03c-.34,.95-.79,2.25-1.36,3.87l-4.92,13.52-.15-.31,3.47,1.12,.29,.09-.14,.26-3.46,6.32,.03-.16c.14,.93,.28,1.87,.42,2.82,1.34,9.17,2.55,17.46,3.43,23.54,.41,2.97,.74,5.4,.98,7.15,.1,.8,.18,1.45,.24,1.95,.04,.23,.06,.45,.05,.68"/><path id="Trazado_7525" class="cls-15" d="M150.57,211.74c.7,1.11,1.3,2.28,1.78,3.49l-.42-.02c.44-.85,1-1.78,1.63-2.75,1.07-1.65,2.07-3.1,2.79-4.17,.35-.6,.76-1.17,1.21-1.69-.2,.67-.5,1.31-.9,1.89-.64,1.12-1.6,2.61-2.66,4.25-.62,.96-1.2,1.88-1.66,2.69l-.24,.42-.18-.43c-.57-1.18-1.02-2.41-1.36-3.68"/><path id="Trazado_7526" class="cls-15" d="M141.74,375.61c0-.15,0-.29,.01-.44,.02-.31,.05-.74,.09-1.28,.1-1.15,.24-2.8,.41-4.91,.38-4.29,.93-10.46,1.61-18.06,1.41-15.27,3.36-36.32,5.52-59.57,2.21-23.25,4.22-44.3,5.67-59.57,.75-7.6,1.36-13.76,1.78-18.05,.22-2.11,.39-3.76,.51-4.9,.06-.54,.11-.96,.14-1.27,.01-.15,.03-.29,.07-.43,0,.15,0,.29-.01,.44-.02,.31-.05,.74-.09,1.28-.1,1.15-.24,2.8-.41,4.91-.38,4.29-.93,10.46-1.61,18.06-1.41,15.27-3.36,36.32-5.52,59.58-2.21,23.25-4.22,44.29-5.67,59.56-.75,7.6-1.36,13.76-1.78,18.05-.22,2.11-.39,3.76-.51,4.9-.06,.54-.11,.96-.15,1.27-.01,.15-.03,.29-.07,.43"/><g id="Grupo_3247" class="cls-43"><g id="Grupo_3246"><g class="cls-28"><g id="Grupo_3245"><path id="Trazado_7527" d="M192.21,201.98l-7.26,26.2-3.04,1.16,2.08,6.56-20.83,31.3,18.75-33.08-1.69-5.71,4.1-2.9,7.89-23.53Z"/></g></g></g></g><g id="Grupo_3250" class="cls-43"><g id="Grupo_3249"><g class="cls-31"><g id="Grupo_3248"><path id="Trazado_7528" d="M158.41,208.2l1.92,13.64,18.56-14.39-16.48,9.14-3.99-8.38Z"/></g></g></g></g><g id="Grupo_3253" class="cls-43"><g id="Grupo_3252"><g class="cls-30"><g id="Grupo_3251"><path id="Trazado_7529" d="M110.27,340.99l-.78,6.21s3.75,4.81,7.4,3.8,18.93-7.67,18.93-7.67l-.24-2.34s-8.91-3.65-9.41-3.53-15.89,3.53-15.89,3.53"/></g></g></g></g><g id="Grupo_3256" class="cls-43"><g id="Grupo_3255"><g class="cls-29"><g id="Grupo_3254"><path id="Trazado_7530" d="M139.68,354.81l.46,5.71s27.65-3.17,39.57-7.7c0,0,23.25-8.62,29.85-16.75-10.53,4.22-21.33,7.71-32.34,10.45l-37.53,8.3Z"/></g></g></g></g><path id="Trazado_7531" class="cls-14" d="M161.42,315.3l-34.66-45.81c-.74-.98-2.02-1.37-3.18-.97l-53.04,18.1c-1.49,.51-2.28,2.12-1.77,3.61,.11,.33,.28,.63,.5,.9l43.15,51.94c.77,.92,2.03,1.26,3.16,.85l49.6-18.08c1.47-.54,2.23-2.17,1.7-3.64-.11-.3-.27-.58-.47-.83l-4.98-6.07Z"/><path id="Trazado_7532" class="cls-15" d="M91.06,285.09c.03,.81,.71,1.45,1.53,1.42,.81-.03,1.45-.71,1.42-1.53-.03-.81-.71-1.45-1.53-1.42h0c-.81,.03-1.45,.71-1.42,1.52"/><path id="Trazado_7533" class="cls-15" d="M101.77,281.46c.03,.81,.71,1.45,1.53,1.42s1.45-.71,1.42-1.53c-.03-.81-.71-1.45-1.53-1.42h0c-.81,.03-1.45,.71-1.42,1.52"/><path id="Trazado_7534" class="cls-8" d="M132.52,323.35l-2.79-.63s-1.14-4.61-2.4-5.54-13.68-6.08-16.41-7.45-13.41-5.79-14.64-3.2c-1.39,2.93,2.97,5.15,5.33,6.16s9.07,3.35,7.78,4.99-16.7,1.54-16.7,1.54l-1.77-2.06s-2.72,2.73-2.26,5.4c.25,1.54,.8,3.02,1.62,4.35l1.1-.04c-.6,.97-.6,2.2-.01,3.18,.92,1.27,1.95,2.46,3.06,3.56,1.61,2.53,4.19,4.28,7.14,4.84,.62,.15,25.12,1.41,25.12,1.41l8.89,1.99-3.05-18.51Z"/><path id="Trazado_7535" class="cls-3" d="M196.92,236.12c-.28,.6-7.56,68.23-7.56,68.23l-57.07,17.31,5.44,33.52s77.1-13.81,85.06-28.27c6.77-12.3,8.39-64.59,8.73-79.99,.09-3.75-.34-7.49-1.28-11.13-1.13-4.33-3.06-9.57-6.16-12-5.78-4.55-27.16,12.32-27.16,12.32"/><path id="Trazado_7536" class="cls-15" d="M195.32,250.23s-.01,.34-.07,.99c-.07,.67-.16,1.64-.29,2.89-.27,2.55-.65,6.26-1.15,10.97-1.02,9.48-2.48,23-4.23,39.28l-.02,.15-.14,.04-57.06,17.35,.18-.29c.04,.22,.07,.45,.11,.69,1.86,11.5,3.66,22.6,5.32,32.84l-.29-.21c23.21-4.41,43.04-9.22,56.84-13.55,1.74-.5,3.35-1.1,4.88-1.6l2.23-.74,2.06-.77c1.32-.5,2.56-.95,3.68-1.4l3.02-1.32c.81-.33,1.6-.7,2.36-1.11l1.68-.89,1.04-.54c.23-.12,.36-.17,.36-.17,0,0-.11,.08-.34,.21l-1.02,.58-1.67,.93c-.76,.43-1.54,.82-2.35,1.15l-3.01,1.35c-1.12,.47-2.35,.92-3.67,1.44-.66,.26-1.35,.52-2.06,.79l-2.23,.76c-1.54,.51-3.15,1.12-4.88,1.63-13.79,4.41-33.62,9.29-56.85,13.74l-.25,.05-.04-.25c-1.67-10.23-3.47-21.33-5.34-32.83-.04-.24-.08-.47-.11-.69l-.04-.23,.22-.07,57.08-17.27-.16,.19,4.42-39.26c.54-4.71,.97-8.41,1.27-10.96,.15-1.25,.27-2.21,.35-2.88,.08-.65,.14-.99,.14-.99"/><path id="Trazado_7537" class="cls-15" d="M220.45,222.32c0,.11-1.61-.03-4.16,.31-1.49,.2-2.96,.54-4.39,1-3.51,1.14-6.75,3.01-9.48,5.5-1.11,1.01-2.13,2.12-3.05,3.32-1.56,2.05-2.24,3.51-2.34,3.46,.11-.36,.26-.71,.45-1.04,.18-.4,.4-.79,.64-1.17,.29-.51,.61-1,.96-1.47,.89-1.25,1.9-2.4,3.02-3.45,2.75-2.58,6.05-4.49,9.66-5.6,1.46-.45,2.97-.75,4.49-.91,.58-.07,1.17-.1,1.76-.1,.44-.02,.89-.01,1.33,.03,.38,0,.76,.04,1.12,.13"/></g></g></g><g id="Grupo_3260"><g class="cls-32"><g id="Grupo_3259"><path id="Trazado_7538" class="cls-15" d="M722.61,408.48c0,.14-151.84,.26-339.09,.26s-339.12-.12-339.12-.26,151.8-.26,339.12-.26,339.09,.12,339.09,.26"/></g></g></g></g></g></g></svg>