<?xml version="1.0" encoding="UTF-8"?><svg id="Capa_1" xmlns="http://www.w3.org/2000/svg" xmlns:xlink="http://www.w3.org/1999/xlink" viewBox="0 0 28 28"><defs><style>.cls-1{fill:none;}.cls-2{fill:rgba(82,56,160,0);}.cls-3{clip-path:url(#clippath);}.cls-4{fill:#5238a0;}</style><clipPath id="clippath"><rect class="cls-1" x="2.66" y="2.67" width="22.68" height="22.67"/></clipPath></defs><rect id="Rectángulo_3032" class="cls-2" x="2" y="2" width="24" height="24"/><g id="Grupo_3173"><g class="cls-3"><g id="Grupo_3173-2"><path id="Trazado_7280" class="cls-4" d="M2.66,8.69c.09-.31,.2-.61,.33-.9,.42-.83,1.27-1.34,2.2-1.34,2.68-.02,5.37-.01,8.06,0,.39-.02,.73,.27,.75,.67,.02,.39-.27,.73-.67,.75-.04,0-.08,0-.12,0H5.36c-.61-.04-1.15,.38-1.26,.98-.02,.09-.02,.19-.02,.29v13.54c-.04,.65,.46,1.21,1.11,1.25,.05,0,.1,0,.16,0h13.48c.66,.06,1.25-.42,1.31-1.08,0-.07,0-.15,0-.22v-7.96c.02-.39,.36-.68,.74-.66,.31,.02,.56,.23,.64,.53,.02,.11,.04,.22,.03,.33v7.79c.05,1.32-.9,2.46-2.21,2.66-.03,0-.05,.02-.08,.03H4.92s-.09-.03-.14-.05c-.74-.13-1.39-.59-1.75-1.25-.15-.31-.27-.63-.36-.96V8.69"/><path id="Trazado_7281" class="cls-4" d="M22.81,2.67c1.01,.01,1.92,.63,2.29,1.57,.45,.93,.26,2.04-.46,2.77-.54,.6-1.13,1.14-1.7,1.71-2.66,2.66-5.32,5.32-7.98,7.98-.21,.22-.48,.37-.77,.42-1.03,.19-2.05,.4-3.08,.61-.37,.1-.76-.13-.85-.5-.03-.12-.03-.24,0-.36,.21-1.08,.42-2.15,.65-3.23,.06-.21,.17-.4,.33-.56,2.69-2.7,5.38-5.4,8.08-8.09,.52-.52,1.04-1.04,1.57-1.56,.51-.51,1.2-.78,1.92-.77m-10.96,13.47c.09,0,.14,0,.19-.02,.58-.11,1.16-.23,1.73-.35,.12-.03,.23-.1,.31-.18,2.49-2.49,4.98-4.97,7.47-7.46,.06-.04,.12-.08,.19-.1l-1.71-1.71s-.04,.03-.07,.06c-2.53,2.53-5.07,5.07-7.6,7.61-.05,.04-.08,.1-.1,.16-.14,.65-.27,1.31-.41,2M22.72,6.88c.32-.3,.66-.58,.95-.91,.37-.46,.33-1.12-.08-1.53-.39-.43-1.04-.49-1.51-.14-.33,.31-.65,.65-.93,1l1.58,1.58"/></g></g></g></svg>