<?xml version="1.0" encoding="UTF-8"?><svg id="Capa_1" xmlns="http://www.w3.org/2000/svg" xmlns:xlink="http://www.w3.org/1999/xlink" viewBox="0 0 28 28"><defs><style>.cls-1{fill:none;}.cls-2{fill:rgba(82,56,160,0);}.cls-3{clip-path:url(#clippath);}.cls-4{fill:#5238a0;}</style><clipPath id="clippath"><rect class="cls-1" x="4.38" y="2.53" width="18.92" height="23.29"/></clipPath></defs><rect id="Rectángulo_3032" class="cls-2" x="1.85" y="2.18" width="24" height="24"/><g id="Grupo_3174"><g class="cls-3"><g id="Grupo_3174-2"><path id="Trazado_7282" class="cls-4" d="M15.62,2.53c.09,.03,.18,.06,.28,.09,.93,.26,1.57,1.1,1.59,2.07v.76h3.91c1-.05,1.86,.72,1.91,1.73,0,.06,0,.13,0,.19v2.34c.05,.41-.23,.78-.64,.83-.07,0-.13,0-.2,0h-.28c-.03,.73-.07,1.43-.1,2.13-.12,2.42-.23,4.84-.35,7.27-.06,1.3-.11,2.6-.2,3.9-.08,1.1-.99,1.96-2.1,1.98-.51,.01-1.02,0-1.52,0-3.17,0-6.33,0-9.5,0-1.09,.05-2.05-.72-2.23-1.8-.06-.47-.09-.95-.1-1.43-.11-2.38-.22-4.76-.33-7.14-.08-1.6-.15-3.2-.23-4.79,0-.03,0-.06-.02-.11h-.38c-.4,0-.72-.32-.73-.72,0,0,0,0,0,0,0-.88-.02-1.75,0-2.63,.04-.96,.82-1.73,1.79-1.73,1.25,0,2.5,0,3.75,0h.27v-.64c-.04-1.09,.72-2.04,1.79-2.23,.03,0,.05-.02,.08-.04h3.55ZM6.97,10.55c.02,.53,.05,1.04,.07,1.54,.12,2.44,.23,4.87,.35,7.31,.07,1.38,.13,2.75,.2,4.13,.03,.6,.3,.83,.9,.83h10.77c.4,.06,.78-.22,.84-.63,0-.05,0-.1,0-.14,.03-.46,.05-.92,.07-1.39,.08-1.73,.16-3.45,.24-5.18,.1-2.08,.2-4.16,.3-6.24v-.24H6.97Zm14.88-1.47v-1.63c0-.45-.1-.54-.55-.54H6.37c-.42,0-.53,.1-.53,.52v1.45c0,.07,0,.13,.01,.2h15.99Zm-10.18-3.64h4.36c0-.28,.02-.54,0-.8-.03-.36-.33-.63-.69-.64-.99,0-1.98,0-2.98,0-.36,0-.66,.28-.69,.64-.02,.26,0,.53,0,.8"/><path id="Trazado_7283" class="cls-4" d="M9.48,17.45v-4.68c-.03-.4,.27-.74,.67-.77,.11,0,.21,0,.31,.05,.26,.1,.45,.34,.46,.62,0,.07,0,.13,0,.2v9.16c0,.1,0,.2-.02,.29-.08,.39-.46,.65-.85,.57-.34-.07-.58-.37-.58-.71,0-.92,0-1.83,0-2.75v-1.98"/><path id="Trazado_7284" class="cls-4" d="M13.12,17.44v-4.68c0-.4,.31-.73,.71-.74,.4,0,.73,.31,.74,.71,0,.33,0,.67,0,1v8.3c0,.11,0,.21-.02,.32-.09,.39-.47,.64-.87,.55-.35-.08-.59-.39-.57-.74v-4.71"/><path id="Trazado_7285" class="cls-4" d="M18.21,17.45v4.68c.02,.31-.16,.59-.44,.71-.26,.13-.58,.08-.78-.13-.17-.16-.26-.38-.24-.61V12.78c-.03-.4,.27-.75,.67-.78,.11,0,.22,0,.33,.05,.3,.12,.48,.42,.46,.74v4.66"/></g></g></g></svg>