<?xml version="1.0" encoding="UTF-8"?><svg id="Capa_1" xmlns="http://www.w3.org/2000/svg" xmlns:xlink="http://www.w3.org/1999/xlink" viewBox="0 0 28 28"><defs><style>.cls-1{fill:none;}.cls-2{fill:rgba(88,120,191,0);}.cls-3{clip-path:url(#clippath);}.cls-4{fill:#fff;}.cls-5{fill:#5878bf;}.cls-6{clip-path:url(#clippath-1);}</style><clipPath id="clippath"><rect class="cls-1" y="0" width="28" height="28"/></clipPath><clipPath id="clippath-1"><rect class="cls-1" x="2" y="2.58" width="24" height="22.84"/></clipPath></defs><g class="cls-3"><g id="Icon"><rect class="cls-4" y="0" width="28" height="28"/><g id="Componente_90_8"><rect id="Rectángulo_2077" class="cls-2" x="2" y="2" width="24" height="24"/><g id="Grupo_2722"><g class="cls-6"><g id="Grupo_2703"><path id="Trazado_5074" class="cls-5" d="M2,10.58h.73s.05-.02,.07-.03v-.24c0-1.59,.02-3.19,0-4.78-.04-.97,.59-1.84,1.53-2.09,.08-.03,.15-.09,.19-.17,.25-.53,.84-.81,1.41-.65,.55,.15,.91,.66,.89,1.23-.03,.59-.49,1.08-1.08,1.14-.47,.07-.94-.17-1.16-.59-.09-.15-.17-.15-.3-.09-.42,.19-.68,.61-.68,1.07-.01,1.7,0,3.4,0,5.11,0,.03,.01,.06,.02,.09h1.19c-.2,1.17,.21,2.36,1.08,3.16,.67,.58,1.54,.87,2.42,.82,.99,0,1.93-.45,2.56-1.21,.59-.79,.84-1.78,.71-2.76h.79c0-.09,.02-.15,.02-.21,0-1.65-.02-3.3-.03-4.94,.05-.52-.27-1-.77-1.16-.22,.22-.46,.42-.73,.58-.58,.27-1.27,.03-1.54-.55,0,0,0-.02-.01-.03-.24-.62,.07-1.31,.69-1.55,.54-.21,1.15,0,1.45,.49,.05,.09,.13,.19,.21,.22,.93,.25,1.57,1.11,1.52,2.08,0,1.59,0,3.19,0,4.78v.27h.79c.05,.65,0,1.3-.11,1.94-.46,2-1.98,3.59-3.95,4.16-.26,.09-.35,.19-.34,.46,.02,.38,0,.76-.04,1.14-.04,.6-.52,1.09-1.13,1.12-.05,.64,0,1.28,.14,1.9,.32,1.37,1.28,2.5,2.59,3.04,1.59,.63,3.4,.17,4.5-1.14,.77-.92,1.18-2.1,1.15-3.3v-7.52c-.03-1.01,.35-1.98,1.05-2.7,1.23-1.31,3.3-1.37,4.6-.13,.24,.23,.45,.49,.61,.78,.35,.59,.54,1.27,.54,1.96v.72c1.53,.23,2.58,1.65,2.35,3.18-.23,1.53-1.65,2.58-3.18,2.35-1.53-.23-2.58-1.65-2.35-3.18,.18-1.22,1.14-2.17,2.35-2.35,.09-.74-.03-1.49-.36-2.15-.43-.88-1.35-1.42-2.33-1.37-.95,.04-1.79,.61-2.17,1.48-.21,.42-.32,.88-.32,1.34,0,2.56,0,5.12,0,7.69,.03,1.58-.61,3.09-1.76,4.16-1.72,1.61-4.35,1.71-6.19,.25-1.22-.96-1.96-2.41-2.03-3.96-.02-.34-.03-.68-.05-1.02-.73-.1-1.25-.78-1.16-1.51,0-.37,0-.73,0-1.08-.41-.16-.81-.29-1.18-.48-1.64-.76-2.81-2.26-3.15-4.04-.02-.12-.05-.24-.07-.36v-1.36m.8,.8c0,1.28,.55,2.5,1.5,3.36,1.18,1.12,2.82,1.63,4.43,1.37,1.82-.17,3.4-1.33,4.12-3.02,.23-.53,.35-1.11,.34-1.69h-.78c-.03,2.05-1.6,3.74-3.64,3.94-.97,.15-1.97-.05-2.82-.56-1.21-.7-1.97-2-1.98-3.4h-1.18Zm20.37,6.38c1.1,0,1.99-.87,2-1.97s-.87-1.99-1.97-2c-1.1,0-1.99,.87-2,1.96-.02,1.09,.86,1.99,1.95,2.01,0,0,.01,0,.02,0m-16-.82c.02,.44,.03,.83,.07,1.23,.03,.31,.16,.4,.47,.4,.2,0,.39,0,.58,0,.2,.03,.39-.1,.42-.3,0-.01,0-.02,0-.04,.05-.42,.06-.85,.09-1.29-.31,.02-.57,.04-.82,.04s-.51-.03-.82-.04M5.99,3.77c0-.21-.17-.38-.38-.37,0,0-.01,0-.02,0-.2,0-.37,.16-.37,.37,0,0,0,.02,0,.02,0,.21,.16,.37,.37,.38,0,0,.02,0,.02,0,.21,0,.38-.17,.38-.38,0,0,0,0,0-.01m4.79,.02c.01-.21-.15-.38-.35-.39,0,0-.01,0-.02,0-.21,0-.39,.16-.39,.37,0,.21,.16,.39,.37,.39,.21,0,.38-.15,.39-.36,0,0,0-.01,0-.02"/><path id="Trazado_5075" class="cls-5" d="M21.99,15.78c0-.66,.54-1.2,1.2-1.2,.66,0,1.2,.54,1.2,1.2,0,.66-.53,1.19-1.19,1.2-.66,0-1.21-.54-1.21-1.2m1.2,.38c.21,0,.38-.17,.38-.38,0,0,0,0,0,0,0-.21-.18-.38-.39-.38-.21,0-.38,.18-.38,.39,0,.21,.18,.38,.39,.38,0,0,0,0,0,0"/></g></g></g></g></g></g></svg>