<svg xmlns="http://www.w3.org/2000/svg" xmlns:xlink="http://www.w3.org/1999/xlink" width="24" height="24" viewBox="0 0 24 24"><defs><style>.a{fill:none;}.b{fill:#5878bf;opacity:0;}.c{clip-path:url(#a);}.d{fill:#5238a0;}</style><clipPath id="a"><rect class="a" width="17.94" height="24"/></clipPath></defs><rect class="b" width="24" height="24"/><g transform="translate(3.014)"><g class="c"><path class="d" d="M1.472,24c-.049-.018-.1-.041-.148-.055A1.756,1.756,0,0,1,.007,22.289c0-.062,0-.125,0-.187q0-9.315,0-18.63A1.725,1.725,0,0,1,.955,1.78a2.216,2.216,0,0,1,.922-.206c1.218-.023,2.437-.009,3.656-.009h.3c0-.2,0-.368,0-.538A1.037,1.037,0,0,1,6.85.007q2.121-.014,4.242,0a1.037,1.037,0,0,1,1.019,1.02c.006.17,0,.34,0,.538h.3c1.226,0,2.453,0,3.679,0A1.758,1.758,0,0,1,17.9,2.959a2.529,2.529,0,0,1,.04.536q0,9.28,0,18.56A1.762,1.762,0,0,1,16.5,23.97c-.013,0-.023.019-.034.03ZM4.581,3.84H2.715c-.365,0-.365,0-.365.356q0,8.588,0,17.177c0,.345,0,.346.352.346H15.239c.353,0,.354,0,.354-.344q0-8.588,0-17.177c0-.047,0-.094,0-.141.011-.162-.063-.222-.223-.219-.328.007-.656,0-.984,0H13.362c0,.1,0,.179,0,.255a1.094,1.094,0,0,1-1.238,1.239H9.382c-1.219,0-2.437,0-3.656,0A1.07,1.07,0,0,1,4.581,4.191c0-.108,0-.215,0-.351m8.795-.7h.264c.609,0,1.218,0,1.828,0a.8.8,0,0,1,.79.581,1.454,1.454,0,0,1,.039.394q0,8.669,0,17.339a2.188,2.188,0,0,1-.011.257.813.813,0,0,1-.664.7,2.055,2.055,0,0,1-.327.02H2.643a2.365,2.365,0,0,1-.257-.011.813.813,0,0,1-.735-.755c-.007-.085-.006-.172-.006-.258q0-8.622,0-17.245c0-.07,0-.141,0-.211a.816.816,0,0,1,.832-.806c.609-.006,1.218,0,1.828,0h.26V2.3a.539.539,0,0,0-.1-.022c-.914,0-1.828-.011-2.741,0A.99.99,0,0,0,.765,3a1.926,1.926,0,0,0-.055.531q0,7.029,0,14.058,0,2.249,0,4.5a1.708,1.708,0,0,0,.042.44,1.048,1.048,0,0,0,1.077.764H16.121c.047,0,.094,0,.141,0a1.047,1.047,0,0,0,.939-.79,2.076,2.076,0,0,0,.034-.465q0-9.255,0-18.51c0-.062,0-.125,0-.187a1.024,1.024,0,0,0-1.023-1.062c-.929-.022-1.858,0-2.788,0-.013,0-.026.015-.049.029Zm-.719-.01c0-.194-.015-.38,0-.563.023-.231-.045-.3-.291-.3-2.265.011-4.53.006-6.8.006a.487.487,0,0,0-.163,0c-.047.018-.116.066-.118.1-.011.247-.005.495-.005.751Zm0,.73H5.309c-.086.645.024.774.644.774h6.18c.422,0,.524-.1.524-.528V3.857m-1.247-2.3c0-.152,0-.275,0-.4,0-.33-.12-.449-.452-.45-.523,0-1.045,0-1.568,0-.811,0-1.623,0-2.434,0C6.742.7,6.576.779,6.543,1a3.769,3.769,0,0,0-.006.557Z" transform="translate(0 0)"/><path class="d" d="M39.762,61.3c0,.135,0,.243,0,.351A1.07,1.07,0,0,0,40.908,62.8c1.218,0,2.437,0,3.656,0H47.3a1.094,1.094,0,0,0,1.238-1.239c0-.076,0-.152,0-.255h1.024c.328,0,.656,0,.984,0,.16,0,.235.057.223.219,0,.047,0,.094,0,.141q0,8.588,0,17.177c0,.344,0,.344-.354.344H37.883c-.352,0-.352,0-.352-.346q0-8.588,0-17.177c0-.356,0-.356.365-.356h1.866m4.375,8.445a2.162,2.162,0,0,0,2.148-2.5,4.764,4.764,0,0,0-1.836-2.9.437.437,0,0,0-.586,0,4.911,4.911,0,0,0-1.8,2.664,2.174,2.174,0,0,0,2.076,2.735m1.96,5.094H43.38a1.759,1.759,0,0,0-.211,0,.343.343,0,0,0-.046.673,1.128,1.128,0,0,0,.278.024q1.756,0,3.513,0h1.874c.062,0,.125,0,.187,0a.367.367,0,0,0,.367-.353.351.351,0,0,0-.388-.346c-.952,0-1.9,0-2.857,0m.04-3.764c-.951,0-1.9,0-2.855,0-.26,0-.4.141-.4.358s.142.328.393.341c.047,0,.094,0,.14,0h5.4c.085,0,.19.019.252-.022a.56.56,0,0,0,.247-.271.388.388,0,0,0-.122-.32.585.585,0,0,0-.349-.086c-.9-.006-1.809,0-2.714,0m-1.165,2.193c.562,0,1.125,0,1.687,0,.275,0,.437-.134.437-.347s-.166-.353-.436-.354q-1.675,0-3.35,0c-.287,0-.452.141-.445.365s.159.335.444.336c.555,0,1.109,0,1.663,0m0,3.062c-.57,0-1.14,0-1.71,0-.253,0-.412.145-.41.351a.357.357,0,0,0,.393.347c1.14.005,2.28.007,3.421,0a.434.434,0,0,0,.312-.159.372.372,0,0,0,.02-.339.489.489,0,0,0-.339-.188c-.562-.019-1.124-.009-1.687-.009m-5-4.043c-.147-.129-.278-.25-.415-.363a.352.352,0,1,0-.468.523c.206.191.418.376.632.559a.371.371,0,0,0,.6-.045q.48-.56.953-1.127c.183-.218.188-.41.023-.558s-.377-.109-.563.108c-.253.3-.5.593-.768.9m0,3.76c-.143-.125-.259-.23-.377-.331-.211-.181-.412-.19-.558-.026s-.114.369.087.549.386.342.58.511c.249.217.423.206.637-.045q.471-.553.937-1.11c.183-.219.191-.409.028-.558s-.373-.117-.563.1c-.254.295-.5.593-.771.906" transform="translate(-35.181 -57.463)"/><path class="d" d="M91.8,36.991H84.435c0-.256-.005-.5.005-.751,0-.037.07-.086.118-.1a.487.487,0,0,1,.163,0c2.265,0,4.53,0,6.8-.006.246,0,.315.071.291.3-.018.183,0,.369,0,.563" transform="translate(-79.147 -33.864)"/><path class="d" d="M91.747,61.609c0,.092,0,.169,0,.245,0,.424-.1.528-.524.528h-6.18c-.62,0-.729-.128-.644-.774Z" transform="translate(-79.09 -57.751)"/><path class="d" d="M121.517,120.615a3.975,3.975,0,0,1,1.436,2.373,1.415,1.415,0,0,1-.649,1.5,1.366,1.366,0,0,1-1.566,0,1.421,1.421,0,0,1-.653-1.495,3.977,3.977,0,0,1,1.432-2.375" transform="translate(-112.547 -113.063)"/></g></g></svg>