<svg xmlns="http://www.w3.org/2000/svg" xmlns:xlink="http://www.w3.org/1999/xlink" width="24" height="24" viewBox="0 0 24 24"><defs><style>.a,.b{fill:#5238a0;}.b{opacity:0;}.c{clip-path:url(#a);}</style><clipPath id="a"><rect class="a" width="17.973" height="24"/></clipPath></defs><rect class="b" width="24" height="24"/><g transform="translate(3.014)"><g class="c"><path class="a" d="M11.331,0a1.123,1.123,0,0,1,.688.588,2.916,2.916,0,0,1,.111.636,2.767,2.767,0,0,1,0,.33h3.925a1.788,1.788,0,0,1,1.914,1.9q0,9.338,0,18.676a1.772,1.772,0,0,1-1.462,1.848,2.042,2.042,0,0,1-.4.024H1.862A1.767,1.767,0,0,1,0,22.2c0-.055,0-.109,0-.164Q0,12.778,0,3.522A1.875,1.875,0,0,1,.693,1.934a1.814,1.814,0,0,1,1.155-.38H5.856A1.261,1.261,0,0,1,6.643,0ZM4.587,3.841H2.721c-.35,0-.35,0-.35.343q0,8.59,0,17.179c0,.346,0,.346.344.346H15.256c.347,0,.348,0,.348-.343q0-8.59,0-17.179A.449.449,0,0,0,15.6,4c-.032-.063-.1-.153-.153-.154-.678-.01-1.355-.007-2.057-.007,0,.153,0,.283,0,.414a1.082,1.082,0,0,1-1.093,1.082c-.078,0-.156,0-.234,0H5.754A1.087,1.087,0,0,1,4.587,4.166c0-.1,0-.2,0-.325M13.4,3.1a.367.367,0,0,0,.07.022c.617,0,1.235.024,1.851,0a.908.908,0,0,1,1.013,1q-.011,8.659-.005,17.318a.881.881,0,0,1-.994,1q-6.352,0-12.7,0a1.333,1.333,0,0,1-.348-.038.792.792,0,0,1-.609-.641,1.777,1.777,0,0,1-.028-.349q0-8.636,0-17.271c0-.047,0-.094,0-.141a.837.837,0,0,1,.9-.864c.594,0,1.188,0,1.781,0h.245v-.85H4.308c-.8,0-1.61.024-2.414-.007A1.113,1.113,0,0,0,.72,3.455q.022,9.327,0,18.654A1.137,1.137,0,0,0,1.913,23.3q7.078-.015,14.157,0a1.131,1.131,0,0,0,1.183-1.179q-.02-9.339,0-18.677a1.111,1.111,0,0,0-1.182-1.173c-.812.026-1.625.005-2.437.006-.075,0-.151.008-.236.014Zm-8.066.011h7.31V2.3H5.315c0,.227,0,.436,0,.645,0,.053.01.106.017.173m0,.739c-.056.693.007.764.66.764h6.087a2.4,2.4,0,0,0,.28-.01.3.3,0,0,0,.3-.3c.009-.145,0-.292,0-.45ZM6.564,1.538h4.862V1.27c0-.477-.091-.567-.576-.567C9.664.7,8.478.715,7.293.7c-.723-.01-.789.1-.729.84" transform="translate(0)"/><path class="a" d="M111.169,113.741a2.179,2.179,0,0,1-2.088-2.78,4.976,4.976,0,0,1,1.788-2.619.468.468,0,0,1,.606,0,4.815,4.815,0,0,1,1.835,2.873,2.167,2.167,0,0,1-2.14,2.525m0-4.728a3.946,3.946,0,0,0-1.428,2.378,1.452,1.452,0,1,0,2.854-.021,4,4,0,0,0-1.425-2.357" transform="translate(-102.183 -101.455)"/><path class="a" d="M126.454,217.266q1.371,0,2.742,0c.092,0,.213-.012.27.039a.582.582,0,0,1,.223.338c0,.1-.127.233-.229.309a.545.545,0,0,1-.295.039q-2.7,0-5.391,0a1.253,1.253,0,0,1-.256-.02.324.324,0,0,1-.282-.348.331.331,0,0,1,.288-.345,1.036,1.036,0,0,1,.233-.014h2.7" transform="translate(-115.522 -203.663)"/><path class="a" d="M126.014,277.379h2.693a1.85,1.85,0,0,1,.234.008.352.352,0,0,1,.042.7.91.91,0,0,1-.232.017h-5.457c-.047,0-.094,0-.141,0a.382.382,0,0,1-.385-.363.365.365,0,0,1,.389-.353c.515-.007,1.03,0,1.546,0h1.312" transform="translate(-115.081 -260.011)"/><path class="a" d="M124.757,301.886h-1.546c-.055,0-.11,0-.164,0a.379.379,0,0,1-.386-.362.366.366,0,0,1,.385-.36q1.722-.008,3.444,0a.356.356,0,0,1,.382.359.367.367,0,0,1-.4.363c-.57.006-1.14,0-1.71,0" transform="translate(-114.981 -282.302)"/><path class="a" d="M124.912,241.147c.57,0,1.14,0,1.71,0,.183,0,.342.079.368.259a.6.6,0,0,1-.116.371.347.347,0,0,1-.254.085q-1.722.008-3.444,0a.369.369,0,0,1-.409-.358c0-.211.174-.358.435-.359.57,0,1.14,0,1.71,0" transform="translate(-115.08 -226.047)"/><path class="a" d="M61.35,280.277c.276-.325.538-.642.811-.951a.344.344,0,0,1,.613.092.467.467,0,0,1-.076.36c-.323.411-.664.807-1.007,1.2a.358.358,0,0,1-.586.035q-.311-.267-.616-.54a.374.374,0,0,1-.078-.553c.153-.168.345-.161.557.02.123.106.245.214.382.333" transform="translate(-56.544 -261.699)"/><path class="a" d="M61.319,220.262l.762-.9c.182-.214.4-.257.565-.114s.172.347-.019.574q-.459.547-.921,1.092c-.234.276-.4.289-.67.055-.2-.175-.4-.348-.6-.527a.36.36,0,0,1-.059-.536.351.351,0,0,1,.521-.008c.137.113.269.233.417.361" transform="translate(-56.512 -205.444)"/></g></g></svg>