<svg xmlns="http://www.w3.org/2000/svg" xmlns:xlink="http://www.w3.org/1999/xlink" width="24.073" height="24" viewBox="0 0 24.073 24"><defs><style>.a{fill:#fafafa;}.b{fill:#fff;opacity:0;}.c{clip-path:url(#a);}</style><clipPath id="a"><rect class="a" width="24.073" height="19.279"/></clipPath></defs><rect class="b" width="24" height="24" transform="translate(0.073)"/><g transform="translate(-909.076 -89.328)"><g transform="translate(909.076 91.659)"><g class="c"><path class="a" d="M24.073,3.344a.936.936,0,0,1-.979.563c-1.261-.017-2.522,0-3.783-.009a.252.252,0,0,0-.292.213,3.128,3.128,0,0,1-5.946.009c-.062-.19-.157-.221-.333-.221Q6.831,3.9.922,3.9a1.308,1.308,0,0,1-.479-.081.728.728,0,0,1-.436-.8A.739.739,0,0,1,.631,2.4a2.374,2.374,0,0,1,.374-.022q5.827,0,11.654,0a.379.379,0,0,0,.441-.3,3.125,3.125,0,0,1,5.916.079.269.269,0,0,0,.311.223c1.245-.007,2.491.007,3.736-.01a.97.97,0,0,1,1.01.552Zm-9.644-.213a1.619,1.619,0,1,0,3.239.014,1.643,1.643,0,0,0-1.629-1.633,1.625,1.625,0,0,0-1.61,1.62" transform="translate(0.001 -0.001)"/><path class="a" d="M24.147,210.62a.956.956,0,0,1-.987.552c-1.253-.016-2.506,0-3.759-.009a.268.268,0,0,0-.311.223,3.128,3.128,0,0,1-5.945-.01c-.06-.184-.15-.212-.318-.212q-5.874.006-11.748,0a2.416,2.416,0,0,1-.328-.014.741.741,0,0,1-.672-.768.754.754,0,0,1,.707-.741c.078-.008.157,0,.235,0q5.9,0,11.794,0c.177,0,.271-.032.333-.222a3.129,3.129,0,0,1,5.946.009.253.253,0,0,0,.291.213c1.261-.007,2.522.008,3.783-.01a.936.936,0,0,1,.979.563ZM14.5,210.4a1.627,1.627,0,0,0,1.62,1.633,1.644,1.644,0,0,0,1.619-1.621,1.626,1.626,0,0,0-1.607-1.625A1.608,1.608,0,0,0,14.5,210.4" transform="translate(-0.074 -194.255)"/><path class="a" d="M24.147,106.84a.89.89,0,0,1-.943.57c-3.932-.011-7.863-.005-11.8-.011-.182,0-.269.04-.329.226a3.127,3.127,0,0,1-5.97-.058c-.016-.052-.037-.1-.06-.164h-2c-.728,0-1.457,0-2.185,0a.752.752,0,1,1-.008-1.5c1.308,0,2.616-.005,3.924,0,.2,0,.291-.041.359-.249a3.121,3.121,0,0,1,5.934.014c.067.207.166.233.348.233,3.893,0,7.785,0,11.678-.011a1.019,1.019,0,0,1,1.045.525ZM8.1,105.037a1.615,1.615,0,1,0,.017,3.23,1.615,1.615,0,0,0-.017-3.23" transform="translate(-0.074 -97.009)"/></g></g></g></svg>