<svg xmlns="http://www.w3.org/2000/svg" xmlns:xlink="http://www.w3.org/1999/xlink" width="24" height="23.996" viewBox="0 0 24 23.996"><defs><style>.a{fill:#5238a0;}.b{clip-path:url(#a);}</style><clipPath id="a"><rect class="a" width="24" height="23.996"/></clipPath></defs><g class="b"><path class="a" d="M11.675,0h.656a3.321,3.321,0,0,1,1.675,1.081q4.453,4.474,8.927,8.926A3.2,3.2,0,0,1,24,11.716v.562a.432.432,0,0,0-.037.084A2.187,2.187,0,0,1,21.729,14.2h-.3v.319q0,3.386,0,6.772a2.583,2.583,0,0,1-2.693,2.7q-1.781,0-3.562,0c-.606,0-.863-.26-.864-.874q0-2.695,0-5.389a1.182,1.182,0,0,0-1.275-1.27c-.672,0-1.343,0-2.015,0A1.192,1.192,0,0,0,9.7,17.781q0,2.695,0,5.389a.728.728,0,0,1-.819.824c-1.211,0-2.421,0-3.632,0a3,3,0,0,1-.672-.072A2.558,2.558,0,0,1,2.58,21.362c-.005-2.289,0-4.577,0-6.866v-.261a.362.362,0,0,0-.073-.027c-.117,0-.234,0-.351-.006A2.152,2.152,0,0,1,.306,13.1a2.2,2.2,0,0,1,.418-2.74Q5.354,5.731,9.982,1.1A3.361,3.361,0,0,1,11.675,0" transform="translate(0)"/></g></svg>