<?xml version="1.0" encoding="UTF-8"?><svg id="Capa_1" xmlns="http://www.w3.org/2000/svg" xmlns:xlink="http://www.w3.org/1999/xlink" viewBox="0 0 28 28"><defs><style>.cls-1{fill:none;}.cls-2{fill:rgba(88,120,191,0);}.cls-3{fill:#5878bf;}.cls-4{clip-path:url(#clippath-1);}</style><clipPath id="clippath-1"><rect class="cls-1" x="4.97" y="3" width="18.07" height="22"/></clipPath></defs><rect id="Rectángulo_3001" class="cls-2" x="2" y="2" width="24" height="24"/><rect id="Rectángulo_3011" class="cls-2" x="2" y="2" width="24" height="24"/><g id="Grupo_2776"><g class="cls-4"><g id="Grupo_2776-2"><path id="Trazado_5281" class="cls-3" d="M14.99,16.9c.16-.03,.26-.18,.23-.34-.01-.39,0-.78,0-1.17,0-.32,.12-.44,.43-.44h6.97c.3,0,.41,.12,.42,.43v1.3c0,.34-.12,.46-.47,.46-1.09,0-2.17,0-3.26,0-.16-.02-.32,.07-.38,.23-.64,1.3-1.68,2.35-2.97,3.01-.18,.06-.29,.25-.26,.43,0,.15,0,.31,0,.46h2.1c.44,0,.53,.1,.53,.55v.87s0,.06,.02,.09h1.8c.32,0,.44,.12,.44,.43,0,.47,0,.93,0,1.39,.03,.2-.12,.38-.32,.41-.03,0-.05,0-.08,0H5.57c-.5,0-.6-.09-.6-.59v-1.12c0-.41,.11-.52,.51-.52h1.77v-.68c-.02-.85,.03-.84,.84-.83,.51,0,1.01,0,1.52,0h.28c0-.24,.01-.46,0-.68,0-.06-.1-.12-.16-.16-1.97-.95-3.35-2.8-3.68-4.96-.5-2.57,.55-5.2,2.68-6.72,.06-.05,.12-.09,.19-.14-.36-.49-.25-1.18,.24-1.54-.27-.22-.52-.42-.78-.62-.17-.11-.25-.33-.18-.52,.24-.86,.47-1.72,.71-2.58,.1-.35,.35-.44,.64-.21,.55,.44,1.1,.88,1.66,1.32,.19-.27,.49-.44,.82-.46,.28,0,.56,.11,.77,.3,1.42,1.13,2.84,2.27,4.26,3.4,.04,.03,.08,.06,.14,.11,.2-.25,.4-.5,.61-.74,.49-.61,1.38-.71,1.98-.22s.71,1.38,.22,1.98c-.02,.03-.05,.06-.07,.09-.56,.71-1.13,1.42-1.69,2.12-.87,1.08-1.73,2.17-2.59,3.25-.32,.44-.86,.66-1.4,.56-.52-.08-.94-.45-1.09-.95-.15-.43-.08-.91,.2-1.27,.06-.09,.13-.17,.21-.27-.49-.39-.97-.78-1.46-1.16-.07-.03-.15-.04-.22,0-1.38,.5-2.26,1.85-2.17,3.31,.04,.85,.43,1.65,1.06,2.22,1.17-1.11,3.02-1.06,4.13,.11,.03,.03,.05,.06,.08,.09m1.75-8.53s-.02-.04-.04-.05c-1.47-1.17-2.94-2.35-4.41-3.52-.21-.16-.33-.14-.5,.08-.74,.93-1.48,1.86-2.22,2.78-.25,.32-.24,.39,.08,.64l2.45,1.96,1.92,1.53,2.72-3.41m-5.35,2.22c-.61-.49-1.21-.97-1.81-1.44-.07-.03-.15-.03-.21,.01-.26,.18-.51,.38-.74,.58-2.51,2.3-2.67,6.2-.37,8.71,.2,.22,.42,.43,.65,.61,.29,.23,.62,.43,.98,.68-.13-.85,.02-1.71,.43-2.47-1.65-1.51-1.77-4.08-.25-5.73,.37-.4,.82-.73,1.32-.96m3.58,10.66v-2.81s0-.02,0-.02c-.2-1.2-1.33-2.01-2.53-1.82-1.06,.17-1.84,1.09-1.84,2.17-.01,.78,0,1.56,0,2.34,0,.05,.01,.1,.02,.14h4.35Zm-1.19-7.85c.02,.3,.2,.56,.48,.68,.3,.11,.63,.01,.82-.24,1.44-1.79,2.87-3.59,4.3-5.39,.26-.29,.24-.74-.05-1.01,0,0-.01-.01-.02-.02-.3-.25-.74-.21-.99,.09-.02,.02-.03,.04-.04,.06-1.44,1.79-2.87,3.59-4.3,5.39-.09,.14-.16,.28-.21,.44m6.11,10.08H5.71v.77h14.18v-.77Zm-11.93-.73h9.64v-.76H7.96v.76Zm14.37-7.1h-6.4v.73h6.4v-.73Zm-4.08,1.48c-.67,0-1.3,.02-1.93,0-.3-.04-.61,.07-.81,.31-.05,.06-.07,.14-.05,.22,.17,.44,.26,.91,.24,1.38v.67c1.08-.59,1.97-1.49,2.55-2.58M9.59,6.49l1.18-1.48-1.3-1.04c-.02,.08-.04,.13-.05,.18-.1,.36-.19,.72-.29,1.08q-.21,.77,.47,1.26"/><path id="Trazado_5282" class="cls-3" d="M12.78,20.28c-.74-.01-1.34-.62-1.33-1.37,.01-.74,.62-1.34,1.37-1.33,.74,.01,1.33,.61,1.33,1.35,0,.74-.6,1.34-1.34,1.35-.01,0-.02,0-.03,0m.65-1.34c0-.35-.27-.64-.63-.65,0,0,0,0,0,0-.36,0-.65,.29-.66,.64s.29,.65,.64,.66c.36,0,.64-.28,.65-.64,0,0,0,0,0,0"/></g></g></g></svg>