<svg xmlns="http://www.w3.org/2000/svg" xmlns:xlink="http://www.w3.org/1999/xlink" width="92" height="126.652" viewBox="0 0 92 126.652"><defs><style>.a{fill:none;}.b{clip-path:url(#a);}.c{fill:#5238a0;}.d{fill:#00bfbb;}</style><clipPath id="a"><rect class="a" width="92" height="126.652"/></clipPath></defs><g class="b"><path class="c" d="M138.178,16.764c5.973,0,9.22-2.934,9.22-8.383S144.151,0,138.073,0c-5.344,0-8.906,2.933-8.906,8.487,0,5.239,3.458,8.278,9.011,8.278" transform="translate(-55.399)"/><path class="c" d="M8.906,192.412C3.563,192.412,0,195.346,0,200.9c0,5.239,3.457,8.277,9.011,8.277,5.972,0,9.22-2.933,9.22-8.383s-3.248-8.382-9.326-8.382" transform="translate(0 -82.524)"/><path class="d" d="M77.039,93.948a11.191,11.191,0,0,1-22.382,0V72.869a25.7,25.7,0,1,0-51.4,0v46.774H17.768V72.869a11.191,11.191,0,1,1,22.381,0V93.948a25.7,25.7,0,0,0,51.4,0v-46.7H77.039Z" transform="translate(-1.399 -20.231)"/></g></svg>