<?xml version="1.0" encoding="UTF-8"?><svg id="Capa_1" xmlns="http://www.w3.org/2000/svg" xmlns:xlink="http://www.w3.org/1999/xlink" viewBox="0 0 35.18 35.18"><defs><style>.cls-1{fill:none;}.cls-2{clip-path:url(#clippath);}.cls-3{fill:#5238a0;}</style><clipPath id="clippath"><rect class="cls-1" x="4.74" y="2.6" width="25.69" height="30"/></clipPath></defs><g id="Grupo_1659"><g class="cls-2"><g id="Grupo_1657"><path id="Trazado_2111" class="cls-3" d="M17.12,32.6c-.63-.1-1.24-.32-1.79-.65-1-.62-1.69-1.63-1.9-2.78-.02-.08-.03-.15-.06-.26h-.32c-1.65,0-3.31,.02-4.96,0-1.86-.02-3.34-1.54-3.33-3.39,0-.53,.13-1.04,.37-1.51,.18-.32,.4-.61,.65-.86,.5-.54,1.02-1.06,1.56-1.57,.37-.34,.57-.83,.54-1.33,0-1.88-.08-3.76,.03-5.62,.14-3.58,2.32-6.76,5.6-8.19,.4-.2,.84-.34,1.29-.52-.27-1.54,.76-3,2.3-3.27,.21-.04,.42-.05,.63-.04,1.56,.08,2.77,1.41,2.68,2.98,0,.11-.02,.23-.04,.34,.34,.13,.7,.24,1.04,.4,3.62,1.48,5.95,5.03,5.87,8.94,.03,1.67,.01,3.34,0,5.01-.02,.49,.18,.97,.54,1.31,.58,.55,1.14,1.11,1.68,1.69,1.26,1.35,1.19,3.47-.15,4.73-.44,.41-.98,.7-1.57,.83-.3,.06-.61,.09-.91,.09-1.57,0-3.15,0-4.72,0h-.33c-.07,.27-.12,.54-.21,.79-.49,1.52-1.81,2.62-3.39,2.85-.06,.01-.11,.03-.17,.05h-.95Zm.48-5.74h1.07c2.75,0,5.5,0,8.25,0,.36,.02,.71-.1,.99-.33,.54-.46,.61-1.28,.14-1.82-.02-.02-.04-.04-.05-.06-.54-.57-1.1-1.13-1.66-1.67-.73-.69-1.13-1.65-1.11-2.65,.01-1.67,.01-3.34,0-5.01,0-.55-.05-1.09-.14-1.63-.84-4.12-4.86-6.79-8.99-5.95-.52,.11-1.03,.27-1.52,.48-2.85,1.14-4.69,3.94-4.6,7.01-.03,1.7-.01,3.4,0,5.1,.03,1-.38,1.97-1.11,2.65-.53,.51-1.05,1.04-1.56,1.57-.16,.16-.29,.34-.38,.55-.25,.69,.11,1.44,.79,1.69,.16,.06,.33,.08,.51,.08,3.13,0,6.25,0,9.38,0m-2.08,2.06c.23,.99,1.14,1.68,2.16,1.63,.96-.02,1.77-.69,1.98-1.63h-4.14Zm1.36-23.42h1.43c.01-.54-.31-.88-.77-.85-.39,.02-.69,.35-.67,.74,0,.04,0,.07,.01,.11"/></g></g></g></svg>