<svg xmlns="http://www.w3.org/2000/svg" xmlns:xlink="http://www.w3.org/1999/xlink" width="24" height="23.997" viewBox="0 0 24 23.997"><defs><style>.a{fill:#5878bf;}.b{clip-path:url(#a);}</style><clipPath id="a"><rect class="a" width="24" height="23.997"/></clipPath></defs><g class="b"><path class="a" d="M82.049,0a6.136,6.136,0,1,1-6.135,6.14A6.142,6.142,0,0,1,82.049,0m-.006,10.6a4.461,4.461,0,1,0-4.455-4.485A4.469,4.469,0,0,0,82.043,10.6" transform="translate(-70.608 0)"/><path class="a" d="M187.409,181.456a5.86,5.86,0,1,1-5.86-5.854,5.847,5.847,0,0,1,5.86,5.854m-1.675.005a4.185,4.185,0,1,0-4.182,4.189,4.187,4.187,0,0,0,4.182-4.189" transform="translate(-163.409 -163.327)"/><path class="a" d="M6.626,199.156q-2.3,0-4.6,0A1.882,1.882,0,0,1,.01,197.146a16.443,16.443,0,0,1,.043-2.012,4.41,4.41,0,0,1,1.712-2.815,10.489,10.489,0,0,1,3.631-1.909,19.259,19.259,0,0,1,6-.9.837.837,0,1,1,.014,1.671,19.264,19.264,0,0,0-3.536.323,11.49,11.49,0,0,0-4.418,1.66,7.756,7.756,0,0,0-1.292,1.166,1.946,1.946,0,0,0-.479,1.4c.01.453,0,.907,0,1.361,0,.363.028.391.387.391h9.156a2.523,2.523,0,0,1,.287.007.831.831,0,0,1,.764.871.815.815,0,0,1-.837.795c-1.6.005-3.209,0-4.813,0" transform="translate(0 -176.261)"/><path class="a" d="M221.614,223.2c-.37,0-.7,0-1.03,0a.841.841,0,1,1,.007-1.673c.329,0,.659,0,1.024,0,0-.387-.01-.75,0-1.113a.823.823,0,0,1,.6-.8.767.767,0,0,1,.882.287,1.248,1.248,0,0,1,.18.555c.03.329.012.662.016.993,0,.015.014.03.039.078.347,0,.711-.009,1.074,0a.822.822,0,0,1,.784.552.761.761,0,0,1-.234.9,1.3,1.3,0,0,1-.595.212c-.328.036-.661.013-.993.017-.016,0-.031.013-.086.037,0,.354.007.726,0,1.1a.821.821,0,0,1-.587.779.793.793,0,0,1-.917-.326,1.318,1.318,0,0,1-.159-.565c-.025-.329-.007-.661-.007-1.03" transform="translate(-204.311 -204.224)"/></g></svg>