<svg xmlns="http://www.w3.org/2000/svg" xmlns:xlink="http://www.w3.org/1999/xlink" width="24" height="24" viewBox="0 0 24 24"><defs><style>.a{fill:#5238a0;}.b{fill:#5878bf;opacity:0;}.c{clip-path:url(#a);}</style><clipPath id="a"><rect class="a" width="20.593" height="24"/></clipPath></defs><rect class="b" width="24" height="24"/><g transform="translate(1.704)"><g class="c"><path class="a" d="M20.921,181.2q-3.7,0-7.4,0a3.763,3.763,0,0,1-.527-.021c-1.137-.162-1.573-.657-1.607-1.839a8.08,8.08,0,0,1,1.04-4.218,9.291,9.291,0,0,1,7.685-5.061A9.483,9.483,0,0,1,30.2,177.674a11.079,11.079,0,0,1,.178,1.606,1.672,1.672,0,0,1-1.854,1.919c-2.536.007-5.071,0-7.607,0" transform="translate(-10.583 -158.011)"/><path class="a" d="M82.7,15.707a4.468,4.468,0,1,1,8.935-.077,4.468,4.468,0,1,1-8.935.077" transform="translate(-76.855 -10.374)"/></g></g></svg>