<svg xmlns="http://www.w3.org/2000/svg" xmlns:xlink="http://www.w3.org/1999/xlink" width="24" height="24" viewBox="0 0 24 24"><defs><style>.a,.b{fill:#5878bf;}.b{opacity:0;}.c{clip-path:url(#a);}</style><clipPath id="a"><rect class="a" width="22.781" height="22.844"/></clipPath></defs><rect class="b" width="24" height="24"/><g transform="translate(0.609 0.578)"><g class="c"><path class="a" d="M4.923,0a3.6,3.6,0,0,1,1.77,1.167c.871.9,1.769,1.764,2.621,2.677A2.094,2.094,0,0,1,9.322,6.72c-.559.616-1.159,1.195-1.751,1.78a.268.268,0,0,0-.077.372A12.173,12.173,0,0,0,9.375,11.6a17.064,17.064,0,0,0,3.6,3.172c.36.231.745.425,1.129.642.522-.523,1.028-1.036,1.542-1.54a4.643,4.643,0,0,1,.605-.525,2.1,2.1,0,0,1,2.72.2c1.077,1.036,2.138,2.09,3.169,3.171a2.245,2.245,0,0,1-.15,3.271q-.855.894-1.733,1.767a3.85,3.85,0,0,1-3.248,1.066,14,14,0,0,1-5.461-1.91,23.771,23.771,0,0,1-6.184-4.88,24.058,24.058,0,0,1-3.906-5.615A14.167,14.167,0,0,1,.136,6.653a4.982,4.982,0,0,1,.2-3,3.531,3.531,0,0,1,.593-.934c.636-.687,1.3-1.344,1.973-2A2.8,2.8,0,0,1,4.254,0ZM17.3,21.683a2.65,2.65,0,0,0,2.043-.657q.968-.939,1.885-1.93a1.063,1.063,0,0,0,0-1.64c-.989-1.019-2-2.019-3.013-3.012A.993.993,0,0,0,16.8,14.4a3.429,3.429,0,0,0-.281.254c-.553.551-1.1,1.1-1.658,1.654a.919.919,0,0,1-1.158.211,15.369,15.369,0,0,1-1.36-.757,18.463,18.463,0,0,1-4.215-3.815A12.072,12.072,0,0,1,6.322,9.13a.987.987,0,0,1,.244-1.287c.085-.083.176-.161.26-.245C7.35,7.073,7.89,6.56,8.394,6.015a.984.984,0,0,0-.014-1.457C7.368,3.519,6.339,2.5,5.3,1.483a1.217,1.217,0,0,0-.52-.279,1.16,1.16,0,0,0-1.148.433q-.818.806-1.625,1.624a2.708,2.708,0,0,0-.653.972,4.1,4.1,0,0,0-.071,2.22A13.214,13.214,0,0,0,2.522,9.919a23.768,23.768,0,0,0,5.906,7.437,21.79,21.79,0,0,0,5.99,3.635,8.9,8.9,0,0,0,2.88.692" transform="translate(0)"/></g></g></svg>