<svg xmlns="http://www.w3.org/2000/svg" xmlns:xlink="http://www.w3.org/1999/xlink" width="24" height="24" viewBox="0 0 24 24"><defs><style>.a,.b{fill:#5878bf;}.b{opacity:0.004;}.c{clip-path:url(#a);}</style><clipPath id="a"><rect class="a" width="17.539" height="22"/></clipPath></defs><rect class="b" width="24" height="24"/><g transform="translate(3.461 1)"><g class="c"><path class="a" d="M10.444,0a2.593,2.593,0,0,1,.213.4c.085.257.142.523.212.785a1.536,1.536,0,0,0,1.383,1.185,12.555,12.555,0,0,1,1.569.213,2.077,2.077,0,0,1,1.6,1.672c.04.174.106.214.268.209.343-.01.687-.008,1.031,0a.813.813,0,0,1,.814.822c0,.773,0,1.546,0,2.319,0,.232-.124.376-.316.381s-.329-.142-.329-.387c0-.723,0-1.446,0-2.169,0-.276-.046-.321-.326-.321H.988c-.292,0-.333.041-.333.335q0,7.784,0,15.569c0,.285.05.334.338.334H16.54c.3,0,.343-.048.343-.351q0-5.916,0-11.832c0-.079,0-.158,0-.236a.294.294,0,0,1,.3-.3.311.311,0,0,1,.338.287,1.7,1.7,0,0,1,0,.193c0,3.973-.007,7.945.008,11.918a.924.924,0,0,1-.965.971Q8.767,21.978.962,22A.92.92,0,0,1,0,21.048Q.019,13.221.008,5.393a.835.835,0,0,1,.923-.932c.322,0,.644-.006.966,0,.13,0,.188-.035.216-.167A2.214,2.214,0,0,1,4.221,2.489a10.428,10.428,0,0,0,1.214-.138A1.5,1.5,0,0,0,6.66,1.227C6.741.953,6.793.671,6.881.4A2.489,2.489,0,0,1,7.094,0h.258a.409.409,0,0,1,.172.517c-.087.279-.141.568-.222.848a2.155,2.155,0,0,1-1.709,1.62,9.316,9.316,0,0,1-1.255.146,1.616,1.616,0,0,0-1.474.935,3.109,3.109,0,0,0-.122.38H14.773A1.493,1.493,0,0,0,13.541,3.18c-.4-.055-.809-.1-1.215-.133a2.237,2.237,0,0,1-2.108-1.765c-.068-.255-.123-.514-.2-.765A.405.405,0,0,1,10.187,0Z" transform="translate(0)"/><path class="a" d="M23.205,114.5c.068,0,.11.01.152.01H27a1.846,1.846,0,0,0-.508-1.656,2.632,2.632,0,0,0-.454-.356,2.4,2.4,0,0,1-1.029-2.579,2.353,2.353,0,0,1,1.932-1.834,2.254,2.254,0,0,1,1.6.334l.451.283v-2.544a2.748,2.748,0,0,0-1.476.7c-.207.187-.4.392-.6.585-.184.177-.361.188-.508.039s-.12-.33.053-.509a4.523,4.523,0,0,1,1.645-1.244c.3-.11.61-.186.946-.287v-.95c.006.006,0-.011-.015-.012a3.377,3.377,0,0,0-2.985.955c-.136.147-.278.29-.428.422a.315.315,0,0,1-.446-.007.32.32,0,0,1-.016-.446,4.52,4.52,0,0,1,2.06-1.447,5.669,5.669,0,0,1,1.639-.143h.219l.045-1.02a9.642,9.642,0,0,0-2.118-.148,2.862,2.862,0,0,0-1.8.651c-.243.2-.457.433-.683.652-.2.193-.4.218-.541.066s-.124-.323.07-.523a5.154,5.154,0,0,1,1.45-1.158A4.689,4.689,0,0,1,27.86,102c.419.026.838.071,1.265.108a.908.908,0,0,1,.912-.813c.432-.012.7.238.905.812.421-.036.846-.081,1.272-.109a4.064,4.064,0,0,1,2.624.512,10.762,10.762,0,0,1,1.229,1.063.3.3,0,0,1,0,.459.319.319,0,0,1-.446,0,3,3,0,0,1-.291-.286,3.116,3.116,0,0,0-2.59-1.1c-.6.029-1.193.07-1.777.1v1.068c.2,0,.374.009.55,0a3.989,3.989,0,0,1,3.367,1.568.333.333,0,0,1,.009.464.32.32,0,0,1-.478-.01c-.24-.225-.46-.473-.711-.685a2.924,2.924,0,0,0-1.832-.683c-.284-.011-.57,0-.861,0v.985c.3.082.575.144.842.235a4.6,4.6,0,0,1,1.818,1.361.315.315,0,0,1-.025.445.3.3,0,0,1-.443,0c-.216-.2-.415-.416-.631-.614a2.786,2.786,0,0,0-1.5-.724v2.546c.193-.12.327-.207.464-.289a2.316,2.316,0,0,1,3.2.73.448.448,0,0,1,.1.291.415.415,0,0,1-.226.269.48.48,0,0,1-.35-.117,3.556,3.556,0,0,1-.277-.351,1.634,1.634,0,0,0-2.021-.308c-.255.144-.5.3-.743.47a.28.28,0,0,0-.1.206c.029,1.3.067,2.6.1,3.907.008.322,0,.644,0,.983H32.38a2.594,2.594,0,0,1,1.291-2.553,1.7,1.7,0,0,0,.775-1.229c.041-.253.182-.382.368-.355.2.029.315.2.277.455a2.316,2.316,0,0,1-1.105,1.705,1.9,1.9,0,0,0-.926,1.305,5.151,5.151,0,0,0-.036.673H36.84V100.866H23.205v.255q0,2.491,0,4.982a1.965,1.965,0,0,1,0,.215.3.3,0,0,1-.31.29.3.3,0,0,1-.329-.274.831.831,0,0,1,0-.171q0-2.76,0-5.519c0-.338.1-.439.429-.439H37.075c.332,0,.428.1.429.439q0,7.033,0,14.066c0,.351-.1.447-.442.447H22.995c-.337,0-.437-.1-.437-.43q0-3.533,0-7.065c0-.266.12-.413.331-.405a.3.3,0,0,1,.309.269,1.446,1.446,0,0,1,.007.236q0,3.232,0,6.464Zm4.469,0h1.156c0-.088,0-.165,0-.241.038-1.43.058-2.861.125-4.29.018-.386-.06-.636-.423-.786a3.981,3.981,0,0,1-.4-.245,1.57,1.57,0,0,0-1.072-.206,1.7,1.7,0,0,0-1.407,1.327,1.749,1.749,0,0,0,.774,1.914,3.311,3.311,0,0,1,.607.505,2.49,2.49,0,0,1,.641,2.022M29.5,114.5h1.053v-1H29.5Zm.023-2.626c0,.263,0,.534,0,.8,0,.044.065.121.1.122.268.01.537.008.8,0a.148.148,0,0,0,.1-.107c.008-.277,0-.555,0-.818Zm.062-1.624v.909a1.209,1.209,0,0,0,.913-.015l-.039-.894Zm.869-1.614h-.817c-.012.262-.031.513-.028.762,0,.06.074.166.122.171a3.423,3.423,0,0,0,.592,0,.184.184,0,0,0,.125-.129c.012-.269.006-.539.006-.806m-.811-1.622c0,.268,0,.531,0,.794,0,.214.183.169.3.176.165.009.417.065.454-.137a3.812,3.812,0,0,0-.018-.833Zm.041-1.623c0,.269-.006.538.005.807a.184.184,0,0,0,.111.138,2.286,2.286,0,0,0,.464,0,.166.166,0,0,0,.1-.124c.009-.275,0-.55,0-.818Zm.109-2.3h.469c0-.323,0-.609,0-.894a.218.218,0,0,0-.243-.239.215.215,0,0,0-.223.237c-.005.285,0,.571,0,.9m-.066.688c0,.251.01.492,0,.732-.009.158.05.226.2.223a1.4,1.4,0,0,0,.3-.017.174.174,0,0,0,.1-.127c.01-.268,0-.536,0-.81Z" transform="translate(-21.261 -94.455)"/><path class="a" d="M228.74,315.082c.172,0,.343,0,.515,0a.548.548,0,0,1,.58.557c.009.193.008.386,0,.579a.564.564,0,0,1-.588.578q-.5.01-1.009,0a.555.555,0,0,1-.584-.6c0-.193,0-.386,0-.579a.531.531,0,0,1,.527-.536c.186-.007.372,0,.558,0h0m-.44,1.037h.857v-.391h-.849c0,.065-.008.106-.008.148,0,.078,0,.156,0,.244" transform="translate(-214.588 -297)"/><path class="a" d="M43.64,312.284c-.157,0-.315.005-.472,0a.332.332,0,0,1-.354-.324.321.321,0,0,1,.342-.334q.492-.016.986,0a.322.322,0,0,1,.344.332.336.336,0,0,1-.353.327H43.64" transform="translate(-40.358 -293.735)"/><path class="a" d="M186.85,262.7a.308.308,0,0,1-.326.321.338.338,0,0,0-.351.247.305.305,0,0,1-.411.2.323.323,0,0,1-.2-.416.923.923,0,0,1,.966-.68.316.316,0,0,1,.321.329" transform="translate(-174.903 -247.309)"/><path class="a" d="M43.5,331.015c-.114,0-.229.007-.343,0a.324.324,0,0,1-.325-.329.3.3,0,0,1,.305-.322,6.141,6.141,0,0,1,.749,0,.314.314,0,0,1,.316.336.33.33,0,0,1-.338.318c-.121.008-.243,0-.364,0" transform="translate(-40.374 -311.393)"/><path class="a" d="M97.806,262.36A.931.931,0,0,1,98.7,263a.337.337,0,0,1-.187.459.313.313,0,0,1-.422-.216.315.315,0,0,0-.318-.228.315.315,0,0,1-.349-.342c.008-.194.153-.313.383-.314" transform="translate(-91.833 -247.305)"/></g></g></svg>