<svg xmlns="http://www.w3.org/2000/svg" xmlns:xlink="http://www.w3.org/1999/xlink" width="24" height="24" viewBox="0 0 24 24"><defs><style>.a,.b{fill:#5878bf;}.b{opacity:0;}.c{clip-path:url(#a);}</style><clipPath id="a"><rect class="a" width="22.993" height="20.372"/></clipPath></defs><rect class="b" width="24" height="24"/><g transform="translate(1.109 2.35)"><g class="c" transform="translate(-0.551 -1)"><path class="a" d="M17.752,16.731c-.142-.027-.272-.042-.4-.077a1.54,1.54,0,0,1-1.148-1.475q-.012-2.645,0-5.289a1.548,1.548,0,0,1,1.532-1.533c.511-.009,1.023,0,1.575,0a7.557,7.557,0,0,0-3.553-6.033,7.485,7.485,0,0,0-8.347-.106A7.572,7.572,0,0,0,3.686,8.355c.517,0,.995,0,1.473,0A1.563,1.563,0,0,1,6.8,9.982q.005,2.559,0,5.118a1.536,1.536,0,0,1-1.433,1.6,8.1,8.1,0,0,1-1.344,0A1.456,1.456,0,0,1,2.8,15.84a.282.282,0,0,0-.274-.183,2.553,2.553,0,0,1-2.49-2.394A7.824,7.824,0,0,1,.067,11.53,2.554,2.554,0,0,1,2.336,9.421l.286-.034a8.822,8.822,0,0,1,3.284-7.4A8.51,8.51,0,0,1,11.628,0,8.61,8.61,0,0,1,18,2.832a8.788,8.788,0,0,1,2.379,6.547c.193.028.37.042.542.08a2.538,2.538,0,0,1,2.048,2.323,7.558,7.558,0,0,1-.075,1.922,2.5,2.5,0,0,1-2.371,1.95.336.336,0,0,0-.33.215,1.494,1.494,0,0,1-1.146.822c-.072.012-.143.027-.164.031a7.279,7.279,0,0,1-.337,1.119,2.493,2.493,0,0,1-2.276,1.478c-.676.028-1.354.01-2.032,0a.276.276,0,0,0-.3.173,1.483,1.483,0,0,1-1.371.867q-1.052.017-2.105,0a1.562,1.562,0,0,1-.058-3.122c.733-.03,1.469-.026,2.2,0a1.484,1.484,0,0,1,1.34.881.245.245,0,0,0,.258.165c.653-.007,1.306,0,1.959-.005a1.547,1.547,0,0,0,1.591-1.553m-14.086-4.2c0,.84,0,1.68,0,2.52,0,.421.189.608.614.612.294,0,.587,0,.881,0a.526.526,0,0,0,.6-.584q.007-2.544,0-5.089A.537.537,0,0,0,5.165,9.4c-.285-.006-.571,0-.856,0-.449,0-.641.195-.642.64q0,1.248,0,2.5m15.671.035q0-1.26,0-2.52c0-.459-.192-.648-.656-.651-.253,0-.506,0-.758,0-.493,0-.678.187-.678.682q0,1.762,0,3.523c0,.481,0,.962,0,1.444,0,.426.191.615.61.62.285,0,.571,0,.856,0,.442,0,.625-.186.625-.626q0-1.236,0-2.471M2.609,14.607V10.474a1.5,1.5,0,0,0-1.535,1.352,11.073,11.073,0,0,0,0,1.416,1.518,1.518,0,0,0,1.535,1.365M20.4,10.475v4.133a1.519,1.519,0,0,0,1.533-1.37,10.99,10.99,0,0,0,0-1.416A1.49,1.49,0,0,0,20.4,10.475m-8.875,7.812H10.5a.521.521,0,1,0,0,1.038q1.013.008,2.026,0a.522.522,0,0,0,.548-.531.516.516,0,0,0-.545-.505c-.333-.007-.667,0-1,0" transform="translate(0 0)"/></g></g></svg>