<svg xmlns="http://www.w3.org/2000/svg" xmlns:xlink="http://www.w3.org/1999/xlink" width="24" height="24" viewBox="0 0 24 24"><defs><style>.a,.b{fill:#5878bf;}.b{opacity:0;}.c{clip-path:url(#a);}</style><clipPath id="a"><rect class="a" width="19.578" height="19.614"/></clipPath></defs><rect class="b" width="24" height="24"/><g transform="translate(2.211 2.193)"><g class="c"><path class="a" d="M9.178,0H10.4c.049.011.1.023.147.032a14.689,14.689,0,0,1,1.837.327,9.642,9.642,0,0,1,7.041,7.758c.073.354.1.718.151,1.077V10.42a1.125,1.125,0,0,0-.032.148,9.593,9.593,0,0,1-2.37,5.668,9.583,9.583,0,0,1-5.7,3.23c-.356.063-.716.1-1.074.149H9.178c-.283-.037-.567-.068-.849-.112A9.5,9.5,0,0,1,2.2,15.982,9.6,9.6,0,0,1,.234,7.69,9.789,9.789,0,0,1,8.084.152C8.448.092,8.814.05,9.178,0M1.372,9.8A8.418,8.418,0,1,0,9.8,1.372,8.431,8.431,0,0,0,1.372,9.8" transform="translate(0)"/><path class="a" d="M178.25,156.279c0-.918,0-1.837,0-2.755a.685.685,0,1,1,1.368,0c0,1.148,0,2.3,0,3.444,0,.7,0,1.39,0,2.086a.683.683,0,0,1-.892.684.7.7,0,0,1-.476-.707q0-1.378,0-2.755" transform="translate(-169.145 -144.996)"/><path class="a" d="M179.551,95.728c0,.14.006.28,0,.42a.683.683,0,0,1-1.366,0c-.009-.28-.009-.56,0-.84a.683.683,0,0,1,1.366,0c.006.14,0,.28,0,.42" transform="translate(-169.076 -89.794)"/></g></g></svg>