<svg xmlns="http://www.w3.org/2000/svg" width="24" height="24" viewBox="0 0 24 24"><defs><style>.a,.b{fill:#5878bf;}.a{opacity:0;}</style></defs><rect class="a" width="24" height="24"/><g transform="translate(1.571 -2.29)"><path class="b" d="M8.253,21.505a4.6,4.6,0,0,1-.531-.5c-1.672-2.148-3.346-4.294-4.995-6.458A18.439,18.439,0,0,1,.632,11.3,7.182,7.182,0,0,1,.02,7.7,7.889,7.889,0,0,1,1.353,3.758,8.3,8.3,0,0,1,4.577.914,8.318,8.318,0,0,1,8.738.009a8.385,8.385,0,0,1,5.8,2.564A7.839,7.839,0,0,1,16.7,6.678a7.546,7.546,0,0,1-.328,4.275,9.906,9.906,0,0,1-1.318,2.3c-1.823,2.413-3.665,4.812-5.5,7.217-.146.191-.283.39-.446.567s-.336.311-.505.465Zm.167-1.687c.06-.07.1-.116.14-.165,1.029-1.322,2.075-2.632,3.08-3.971s1.992-2.673,2.927-4.049A6.092,6.092,0,0,0,15.4,6.795a6.541,6.541,0,0,0-2.223-3.749A6.953,6.953,0,0,0,6.3,1.6,6.741,6.741,0,0,0,1.412,7.033a6.168,6.168,0,0,0,.152,3.093,8.627,8.627,0,0,0,1.377,2.528c1.163,1.565,2.35,3.112,3.534,4.662.635.831,1.283,1.652,1.944,2.5" transform="translate(2 3.538)"/><path class="b" d="M80.988,76.262a4.537,4.537,0,1,1-4.536-4.408,4.488,4.488,0,0,1,4.536,4.408m-4.54-3.148a3.151,3.151,0,1,0,3.244,3.15,3.205,3.205,0,0,0-3.244-3.15" transform="translate(-66.027 -64.536)"/></g></svg>