<?xml version="1.0" encoding="UTF-8"?><svg id="Capa_1" xmlns="http://www.w3.org/2000/svg" xmlns:xlink="http://www.w3.org/1999/xlink" viewBox="0 0 28 28"><defs><style>.cls-1{fill:rgba(177,177,177,0);}.cls-2{fill:none;}.cls-3{clip-path:url(#clippath);}.cls-4{fill:#b1b1b1;}</style><clipPath id="clippath"><rect class="cls-2" x="7.85" y="2.5" width="12.3" height="22"/></clipPath></defs><g id="Componente_75_1"><rect id="Rectángulo_2500" class="cls-1" x="1.5" y="1.5" width="25" height="25"/><g id="Grupo_2033"><g class="cls-3"><g id="Grupo_2031"><path id="Trazado_3557" class="cls-4" d="M10.87,13.49c.86,.88,1.7,1.75,2.56,2.6,2.09,2.09,4.19,4.17,6.29,6.25,.5,.43,.57,1.18,.16,1.7-.41,.52-1.16,.62-1.68,.21-.06-.04-.11-.09-.15-.14-.87-.85-1.73-1.72-2.6-2.58l-7.13-7.07c-.53-.42-.62-1.19-.2-1.72,.05-.07,.11-.13,.18-.18,3.23-3.2,6.46-6.41,9.69-9.61,.36-.43,.98-.56,1.48-.31,.49,.22,.76,.75,.65,1.28-.08,.3-.23,.58-.45,.8-2.44,2.45-4.9,4.89-7.36,7.32-.49,.48-.96,.97-1.44,1.45"/></g></g></g></g></svg>