<svg width="16" height="16" viewBox="0 0 16 16" fill="none" xmlns="http://www.w3.org/2000/svg">
<g id="Shape">
<path d="M5.24984 0.895264C4.87014 0.895264 4.56234 1.20307 4.56234 1.58276C4.56234 1.96246 4.87014 2.27026 5.24984 2.27026V0.895264ZM13.9582 1.58276L14.1857 0.934005C14.1126 0.908362 14.0357 0.895264 13.9582 0.895264V1.58276ZM14.4165 2.95776L14.9252 3.42022C14.948 3.39514 14.9689 3.36842 14.9878 3.34025L14.4165 2.95776ZM10.1962 6.57814C9.9408 6.8591 9.96151 7.2939 10.2425 7.54931C10.5234 7.80472 10.9582 7.78401 11.2136 7.50305L10.1962 6.57814ZM10.5206 9.83239C10.5206 9.4527 10.2128 9.14489 9.83306 9.14489C9.45337 9.14489 9.14556 9.4527 9.14556 9.83239H10.5206ZM9.83306 14.4157L9.42056 14.9657C9.62889 15.122 9.90761 15.1471 10.1405 15.0306C10.3734 14.9142 10.5206 14.6761 10.5206 14.4157H9.83306ZM6.1664 11.6657H5.4789C5.4789 11.8821 5.58078 12.0859 5.7539 12.2157L6.1664 11.6657ZM6.1664 7.99906H6.8539C6.8539 7.82803 6.79015 7.66315 6.6751 7.5366L6.1664 7.99906ZM1.58306 2.95739L1.01194 3.34011C1.03076 3.36819 1.05162 3.39484 1.07435 3.41985L1.58306 2.95739ZM2.19543 2.27309C2.48374 2.02601 2.51717 1.59199 2.27009 1.30369C2.02301 1.01538 1.589 0.981952 1.30069 1.22903L2.19543 2.27309ZM5.24984 2.27026H13.9582V0.895264H5.24984V2.27026ZM13.7306 2.23152C13.7975 2.25498 13.8498 2.30807 13.8722 2.37531L15.1766 1.94049C15.0198 1.46981 14.6539 1.0982 14.1857 0.934005L13.7306 2.23152ZM13.8722 2.37531C13.8946 2.44255 13.8847 2.51638 13.8452 2.57527L14.9878 3.34025C15.2638 2.92798 15.3335 2.41118 15.1766 1.94049L13.8722 2.37531ZM13.9078 2.49531L10.1962 6.57814L11.2136 7.50305L14.9252 3.42022L13.9078 2.49531ZM9.14556 9.83239V14.4157H10.5206V9.83239H9.14556ZM10.2456 13.8657L6.5789 11.1157L5.7539 12.2157L9.42056 14.9657L10.2456 13.8657ZM6.8539 11.6657V7.99906H5.4789V11.6657H6.8539ZM6.6751 7.5366L2.09177 2.49493L1.07435 3.41985L5.65769 8.46152L6.6751 7.5366ZM2.15418 2.57467C2.08954 2.47821 2.10727 2.34865 2.19543 2.27309L1.30069 1.22903C0.683507 1.75795 0.559458 2.66489 1.01194 3.34011L2.15418 2.57467Z" fill="#7367F0"/>
<path d="M5.24984 0.895264C4.87014 0.895264 4.56234 1.20307 4.56234 1.58276C4.56234 1.96246 4.87014 2.27026 5.24984 2.27026V0.895264ZM13.9582 1.58276L14.1857 0.934005C14.1126 0.908362 14.0357 0.895264 13.9582 0.895264V1.58276ZM14.4165 2.95776L14.9252 3.42022C14.948 3.39514 14.9689 3.36842 14.9878 3.34025L14.4165 2.95776ZM10.1962 6.57814C9.9408 6.8591 9.96151 7.2939 10.2425 7.54931C10.5234 7.80472 10.9582 7.78401 11.2136 7.50305L10.1962 6.57814ZM10.5206 9.83239C10.5206 9.4527 10.2128 9.14489 9.83306 9.14489C9.45337 9.14489 9.14556 9.4527 9.14556 9.83239H10.5206ZM9.83306 14.4157L9.42056 14.9657C9.62889 15.122 9.90761 15.1471 10.1405 15.0306C10.3734 14.9142 10.5206 14.6761 10.5206 14.4157H9.83306ZM6.1664 11.6657H5.4789C5.4789 11.8821 5.58078 12.0859 5.7539 12.2157L6.1664 11.6657ZM6.1664 7.99906H6.8539C6.8539 7.82803 6.79015 7.66315 6.6751 7.5366L6.1664 7.99906ZM1.58306 2.95739L1.01194 3.34011C1.03076 3.36819 1.05162 3.39484 1.07435 3.41985L1.58306 2.95739ZM2.19543 2.27309C2.48374 2.02601 2.51717 1.59199 2.27009 1.30369C2.02301 1.01538 1.589 0.981952 1.30069 1.22903L2.19543 2.27309ZM5.24984 2.27026H13.9582V0.895264H5.24984V2.27026ZM13.7306 2.23152C13.7975 2.25498 13.8498 2.30807 13.8722 2.37531L15.1766 1.94049C15.0198 1.46981 14.6539 1.0982 14.1857 0.934005L13.7306 2.23152ZM13.8722 2.37531C13.8946 2.44255 13.8847 2.51638 13.8452 2.57527L14.9878 3.34025C15.2638 2.92798 15.3335 2.41118 15.1766 1.94049L13.8722 2.37531ZM13.9078 2.49531L10.1962 6.57814L11.2136 7.50305L14.9252 3.42022L13.9078 2.49531ZM9.14556 9.83239V14.4157H10.5206V9.83239H9.14556ZM10.2456 13.8657L6.5789 11.1157L5.7539 12.2157L9.42056 14.9657L10.2456 13.8657ZM6.8539 11.6657V7.99906H5.4789V11.6657H6.8539ZM6.6751 7.5366L2.09177 2.49493L1.07435 3.41985L5.65769 8.46152L6.6751 7.5366ZM2.15418 2.57467C2.08954 2.47821 2.10727 2.34865 2.19543 2.27309L1.30069 1.22903C0.683507 1.75795 0.559458 2.66489 1.01194 3.34011L2.15418 2.57467Z" fill="white" fill-opacity="0.2"/>
</g>
</svg>
