<svg width="22" height="22" viewBox="0 0 22 22" fill="none" xmlns="http://www.w3.org/2000/svg">
<path d="M8.25008 6.41675H5.50008C4.48756 6.41675 3.66675 7.23756 3.66675 8.25008V16.5001C3.66675 17.5126 4.48756 18.3334 5.50008 18.3334H13.7501C14.7626 18.3334 15.5834 17.5126 15.5834 16.5001V13.7501" stroke="#4B465C" stroke-width="1.5" stroke-linecap="round" stroke-linejoin="round"/>
<path d="M8.25008 6.41675H5.50008C4.48756 6.41675 3.66675 7.23756 3.66675 8.25008V16.5001C3.66675 17.5126 4.48756 18.3334 5.50008 18.3334H13.7501C14.7626 18.3334 15.5834 17.5126 15.5834 16.5001V13.7501" stroke="white" stroke-opacity="0.5" stroke-width="1.5" stroke-linecap="round" stroke-linejoin="round"/>
<path d="M8.25 13.7499H11L18.7917 5.95822C19.5511 5.19882 19.5511 3.96761 18.7917 3.20822C18.0323 2.44882 16.8011 2.44882 16.0417 3.20822L8.25 10.9999V13.7499" stroke="#4B465C" stroke-width="1.5" stroke-linecap="round" stroke-linejoin="round"/>
<path d="M8.25 13.7499H11L18.7917 5.95822C19.5511 5.19882 19.5511 3.96761 18.7917 3.20822C18.0323 2.44882 16.8011 2.44882 16.0417 3.20822L8.25 10.9999V13.7499" stroke="white" stroke-opacity="0.2" stroke-width="1.5" stroke-linecap="round" stroke-linejoin="round"/>
<path d="M14.6667 4.58325L17.4167 7.33325" stroke="#4B465C" stroke-width="1.5" stroke-linecap="round" stroke-linejoin="round"/>
<path d="M14.6667 4.58325L17.4167 7.33325" stroke="white" stroke-opacity="0.2" stroke-width="1.5" stroke-linecap="round" stroke-linejoin="round"/>
</svg>
