<svg width="20" height="20" viewBox="0 0 20 20" fill="none" xmlns="http://www.w3.org/2000/svg">
<g id="mail-forward">
<g id="Path">
<path d="M10 15.0002H4.16667C3.24619 15.0002 2.5 14.254 2.5 13.3335V5.00016C2.5 4.07969 3.24619 3.3335 4.16667 3.3335H15.8333C16.7538 3.3335 17.5 4.07969 17.5 5.00016V11.2502" stroke="#7367F0" stroke-width="1.36364" stroke-linecap="round" stroke-linejoin="round"/>
<path d="M10 15.0002H4.16667C3.24619 15.0002 2.5 14.254 2.5 13.3335V5.00016C2.5 4.07969 3.24619 3.3335 4.16667 3.3335H15.8333C16.7538 3.3335 17.5 4.07969 17.5 5.00016V11.2502" stroke="#7367F0" stroke-width="1.36364" stroke-linecap="round" stroke-linejoin="round"/>
</g>
<g id="Path_2">
<path d="M2.5 5L10 10L17.5 5" stroke="#7367F0" stroke-width="1.36364" stroke-linecap="round" stroke-linejoin="round"/>
<path d="M2.5 5L10 10L17.5 5" stroke="#7367F0" stroke-width="1.36364" stroke-linecap="round" stroke-linejoin="round"/>
</g>
<g id="Path_3">
<path d="M12.5 15.0002H17.5" stroke="#7367F0" stroke-width="1.36364" stroke-linecap="round" stroke-linejoin="round"/>
<path d="M12.5 15.0002H17.5" stroke="#7367F0" stroke-width="1.36364" stroke-linecap="round" stroke-linejoin="round"/>
</g>
<g id="Path_4">
<path d="M15 12.5L17.5 15L15 17.5" stroke="#7367F0" stroke-width="1.36364" stroke-linecap="round" stroke-linejoin="round"/>
<path d="M15 12.5L17.5 15L15 17.5" stroke="#7367F0" stroke-width="1.36364" stroke-linecap="round" stroke-linejoin="round"/>
</g>
</g>
</svg>
