<svg width="22" height="22" viewBox="0 0 22 22" fill="none" xmlns="http://www.w3.org/2000/svg">
<path d="M11.9167 9.16675L18.6845 15.9666C19.4389 16.7182 19.4389 17.9356 18.6845 18.6863C17.93 19.4368 16.711 19.4368 15.9565 18.6863L9.16675 11.9167" stroke="#4B465C" stroke-width="1.375" stroke-linecap="round" stroke-linejoin="round"/>
<path d="M11.9167 9.16675L18.6845 15.9666C19.4389 16.7182 19.4389 17.9356 18.6845 18.6863C17.93 19.4368 16.711 19.4368 15.9565 18.6863L9.16675 11.9167" stroke="white" stroke-opacity="0.2" stroke-width="1.375" stroke-linecap="round" stroke-linejoin="round"/>
<path fill-rule="evenodd" clip-rule="evenodd" d="M5.76853 14.0185L3.39803 11.648C3.04018 11.2901 3.04018 10.7098 3.39803 10.3519L10.3519 3.39803C10.7098 3.04018 11.2901 3.04018 11.648 3.39803L14.0185 5.76853C14.3764 6.12648 14.3764 6.70673 14.0185 7.06469L7.06469 14.0185C6.70673 14.3764 6.12648 14.3764 5.76853 14.0185Z" stroke="#4B465C" stroke-width="1.375" stroke-linecap="round" stroke-linejoin="round"/>
<path fill-rule="evenodd" clip-rule="evenodd" d="M5.76853 14.0185L3.39803 11.648C3.04018 11.2901 3.04018 10.7098 3.39803 10.3519L10.3519 3.39803C10.7098 3.04018 11.2901 3.04018 11.648 3.39803L14.0185 5.76853C14.3764 6.12648 14.3764 6.70673 14.0185 7.06469L7.06469 14.0185C6.70673 14.3764 6.12648 14.3764 5.76853 14.0185Z" stroke="white" stroke-opacity="0.2" stroke-width="1.375" stroke-linecap="round" stroke-linejoin="round"/>
</svg>
