<svg width="31" height="30" viewBox="0 0 31 30" fill="none" xmlns="http://www.w3.org/2000/svg">
<rect x="0.333496" width="30" height="30" rx="15" fill="#7367F0" fill-opacity="0.16"/>
<path d="M8.91683 15H7.0835L15.3335 6.75L23.5835 15H21.7502" stroke="#7367F0" stroke-width="1.5" stroke-linecap="round" stroke-linejoin="round"/>
<path d="M8.91699 15V21.4167C8.91699 22.4292 9.7378 23.25 10.7503 23.25H19.917C20.9295 23.25 21.7503 22.4292 21.7503 21.4167V15" stroke="#7367F0" stroke-width="1.5" stroke-linecap="round" stroke-linejoin="round"/>
<path d="M12.5835 23.2501V17.7501C12.5835 16.7376 13.4043 15.9167 14.4168 15.9167H16.2502C17.2627 15.9167 18.0835 16.7376 18.0835 17.7501V23.2501" stroke="#7367F0" stroke-width="1.5" stroke-linecap="round" stroke-linejoin="round"/>
<path d="M12.5835 23.2501V17.7501C12.5835 16.7376 13.4043 15.9167 14.4168 15.9167H16.2502C17.2627 15.9167 18.0835 16.7376 18.0835 17.7501V23.2501" stroke="white" stroke-opacity="0.2" stroke-width="1.5" stroke-linecap="round" stroke-linejoin="round"/>
</svg>
