<svg width="38" height="52" viewBox="0 0 38 52" fill="none" xmlns="http://www.w3.org/2000/svg">
<path d="M33.6467 6.77589C36.0485 6.77589 37.3547 5.59455 37.3547 3.40064C37.3547 1.20673 36.0485 0.0253906 33.6045 0.0253906C31.4556 0.0253906 30.0229 1.20673 30.0229 3.44283C30.0229 5.55236 31.4134 6.77589 33.6467 6.77589Z" fill="#462C6B"/>
<path d="M3.93609 44.2749C1.78713 44.2749 0.354492 45.4562 0.354492 47.6923C0.354492 49.8019 1.74499 51.0254 3.97822 51.0254C6.38 51.0254 7.68623 49.8441 7.68623 47.6502C7.68623 45.4562 6.38 44.2749 3.93609 44.2749Z" fill="#462C6B"/>
<path d="M30.775 29.7107C30.775 32.1957 28.7567 34.2166 26.2748 34.2166C23.793 34.2166 21.7747 32.1957 21.7747 29.7107V25.4663V23.4643V21.2219C21.7747 15.5156 17.1376 10.8726 11.4386 10.8726C5.73965 10.8726 1.10254 15.5156 1.10254 21.2219V40.0579H6.93633V21.2219C6.93633 18.7369 8.95466 16.716 11.4365 16.716C13.9183 16.716 15.9367 18.7369 15.9367 21.2219V23.4643V25.4663V29.7107C15.9367 35.4169 20.5738 40.06 26.2727 40.06C31.9717 40.06 36.6088 35.4169 36.6088 29.7107V10.9063H30.775V29.7107Z" fill="#462C6B"/>
</svg>
