<svg width="70" height="24" viewBox="0 0 70 24" fill="none" xmlns="http://www.w3.org/2000/svg">
<path d="M0.00212709 0.180176H8.94842C14.3353 0.180176 16.2946 2.29875 16.2946 5.817C16.2946 8.84748 14.7922 10.7052 12.2124 11.3881V11.4538C15.2491 11.7147 17.4357 13.1801 17.4357 17.0249C17.4357 20.9991 14.8241 23.6076 8.68492 23.6076H0V0.180176H0.00212709ZM7.54379 9.79332C9.86218 9.79332 11.5261 8.97897 11.5261 6.76284C11.5261 4.67819 10.2851 4.22223 8.35979 4.22223H5.06178V9.79332H7.54379ZM8.06654 19.5676C10.6782 19.5676 12.2124 18.9166 12.2124 16.4714C12.2124 13.9626 10.1873 13.7018 8.48942 13.7018H5.06178V19.5676H8.06654Z" fill="#462C6B"/>
<path d="M25.2411 7.90381V23.6097H20.377V7.90381H25.2411Z" fill="#462C6B"/>
<path d="M33.3376 16.9929C33.4672 18.7191 34.4469 20.1209 37.4835 20.1209C39.1155 20.1209 41.2384 19.6332 42.3158 19.1433H42.4794L42.0544 22.9563C41.0429 23.4123 39.0496 23.9997 36.6994 23.9997C30.5624 23.9997 28.21 20.5451 28.21 15.7883C28.21 10.1197 31.7354 7.51123 36.0789 7.51123C41.1407 7.51123 43.034 10.6075 43.034 14.8107C43.034 15.3981 43.0022 16.4076 42.9682 16.9929H33.3376ZM33.3036 13.9963H38.3973C38.4291 12.041 37.7768 10.9659 36.013 10.9659C34.415 10.9659 33.3376 12.0092 33.3036 13.9963Z" fill="#462C6B"/>
<path d="M60.926 13.5722V23.6074H56.0619V14.2233C56.0619 12.3655 55.4732 11.4854 53.7435 11.4854C51.5887 11.4854 50.8046 12.8215 50.8046 14.2551V23.6074H45.9404V7.90144H50.3477L50.5113 9.66162L50.6091 9.69343C51.3273 8.48887 52.8616 7.51123 55.2459 7.51123C59.2919 7.51123 60.926 9.82491 60.926 13.5722Z" fill="#462C6B"/>
<path d="M69.4472 7.90381V23.6097H64.583V7.90381H69.4472Z" fill="#462C6B"/>
<path d="M22.8885 0C24.7819 0 25.7934 0.911904 25.7934 2.60635C25.7934 4.30079 24.7819 5.21269 22.9204 5.21269C21.1907 5.21269 20.1133 4.26685 20.1133 2.63815C20.1133 0.911903 21.2225 0 22.8885 0Z" fill="#462C6B"/>
<path d="M67.0956 0C68.989 0 70.0005 0.911904 70.0005 2.60635C70.0005 4.30079 68.989 5.21269 67.1275 5.21269C65.3977 5.21269 64.3203 4.26685 64.3203 2.63815C64.3203 0.911903 65.4296 0 67.0956 0Z" fill="#462C6B"/>
</svg>
