<svg width="22" height="22" viewBox="0 0 22 22" fill="none" xmlns="http://www.w3.org/2000/svg">
<path fill-rule="evenodd" clip-rule="evenodd" d="M4.58333 10.0833C5.59586 10.0833 6.41667 10.9041 6.41667 11.9166V13.75H15.5833V11.9166C15.5833 10.9041 16.4041 10.0833 17.4167 10.0833C18.4292 10.0833 19.25 10.9041 19.25 11.9166V15.5833C19.25 16.5958 18.4292 17.4166 17.4167 17.4166H4.58333C3.57081 17.4166 2.75 16.5958 2.75 15.5833V11.9166C2.75 10.9041 3.57081 10.0833 4.58333 10.0833Z" stroke="#4B465C" stroke-width="1.5" stroke-linecap="round" stroke-linejoin="round"/>
<path fill-rule="evenodd" clip-rule="evenodd" d="M4.58333 10.0833C5.59586 10.0833 6.41667 10.9041 6.41667 11.9166V13.75H15.5833V11.9166C15.5833 10.9041 16.4041 10.0833 17.4167 10.0833C18.4292 10.0833 19.25 10.9041 19.25 11.9166V15.5833C19.25 16.5958 18.4292 17.4166 17.4167 17.4166H4.58333C3.57081 17.4166 2.75 16.5958 2.75 15.5833V11.9166C2.75 10.9041 3.57081 10.0833 4.58333 10.0833Z" stroke="white" stroke-opacity="0.2" stroke-width="1.5" stroke-linecap="round" stroke-linejoin="round"/>
<path d="M4.58325 10.0833V5.5C4.58325 3.98122 5.81447 2.75 7.33325 2.75H14.6666C16.1854 2.75 17.4166 3.98122 17.4166 5.5V10.0833" stroke="#4B465C" stroke-width="1.5" stroke-linecap="round" stroke-linejoin="round"/>
<path d="M4.58325 10.0833V5.5C4.58325 3.98122 5.81447 2.75 7.33325 2.75H14.6666C16.1854 2.75 17.4166 3.98122 17.4166 5.5V10.0833" stroke="white" stroke-opacity="0.2" stroke-width="1.5" stroke-linecap="round" stroke-linejoin="round"/>
<path d="M5.50008 17.4167V19.25" stroke="#4B465C" stroke-width="1.5" stroke-linecap="round" stroke-linejoin="round"/>
<path d="M5.50008 17.4167V19.25" stroke="white" stroke-opacity="0.2" stroke-width="1.5" stroke-linecap="round" stroke-linejoin="round"/>
<path d="M16.5001 17.4167V19.25" stroke="#4B465C" stroke-width="1.5" stroke-linecap="round" stroke-linejoin="round"/>
<path d="M16.5001 17.4167V19.25" stroke="white" stroke-opacity="0.2" stroke-width="1.5" stroke-linecap="round" stroke-linejoin="round"/>
</svg>
