<svg width="22" height="22" viewBox="0 0 22 22" fill="none" xmlns="http://www.w3.org/2000/svg">
<rect x="2.75" y="6.41669" width="16.5" height="11.9167" rx="2" stroke="#4B465C" stroke-width="1.5" stroke-linecap="round" stroke-linejoin="round"/>
<rect x="2.75" y="6.41669" width="16.5" height="11.9167" rx="2" stroke="white" stroke-opacity="0.2" stroke-width="1.5" stroke-linecap="round" stroke-linejoin="round"/>
<path d="M7.33337 6.41667V4.58333C7.33337 3.57081 8.15419 2.75 9.16671 2.75H12.8334C13.8459 2.75 14.6667 3.57081 14.6667 4.58333V6.41667" stroke="#4B465C" stroke-width="1.5" stroke-linecap="round" stroke-linejoin="round"/>
<path d="M7.33337 6.41667V4.58333C7.33337 3.57081 8.15419 2.75 9.16671 2.75H12.8334C13.8459 2.75 14.6667 3.57081 14.6667 4.58333V6.41667" stroke="white" stroke-opacity="0.2" stroke-width="1.5" stroke-linecap="round" stroke-linejoin="round"/>
<path d="M11 11V11.0092" stroke="#4B465C" stroke-width="1.5" stroke-linecap="round" stroke-linejoin="round"/>
<path d="M11 11V11.0092" stroke="white" stroke-opacity="0.2" stroke-width="1.5" stroke-linecap="round" stroke-linejoin="round"/>
<path d="M2.75 11.9167C7.93921 14.5315 14.0608 14.5315 19.25 11.9167" stroke="#4B465C" stroke-width="1.5" stroke-linecap="round" stroke-linejoin="round"/>
<path d="M2.75 11.9167C7.93921 14.5315 14.0608 14.5315 19.25 11.9167" stroke="white" stroke-opacity="0.2" stroke-width="1.5" stroke-linecap="round" stroke-linejoin="round"/>
</svg>
