<svg width="22" height="22" viewBox="0 0 22 22" fill="none" xmlns="http://www.w3.org/2000/svg">
<path d="M10.8121 19.25H4.58333C3.57081 19.25 2.75 18.4292 2.75 17.4166V6.41665C2.75 5.40412 3.57081 4.58331 4.58333 4.58331H15.5833C16.5959 4.58331 17.4167 5.40412 17.4167 6.41665V10.0833" stroke="#6F6B7D" stroke-width="1.5" stroke-linecap="round" stroke-linejoin="round"/>
<path d="M10.8121 19.25H4.58333C3.57081 19.25 2.75 18.4292 2.75 17.4166V6.41665C2.75 5.40412 3.57081 4.58331 4.58333 4.58331H15.5833C16.5959 4.58331 17.4167 5.40412 17.4167 6.41665V10.0833" stroke="#6F6B7D" stroke-width="1.5" stroke-linecap="round" stroke-linejoin="round"/>
<circle cx="16.4999" cy="16.5" r="3.66667" stroke="#6F6B7D" stroke-width="1.5" stroke-linecap="round" stroke-linejoin="round"/>
<circle cx="16.4999" cy="16.5" r="3.66667" stroke="#6F6B7D" stroke-width="1.5" stroke-linecap="round" stroke-linejoin="round"/>
<path d="M13.7501 2.75V6.41667" stroke="#6F6B7D" stroke-width="1.5" stroke-linecap="round" stroke-linejoin="round"/>
<path d="M13.7501 2.75V6.41667" stroke="#6F6B7D" stroke-width="1.5" stroke-linecap="round" stroke-linejoin="round"/>
<path d="M6.41659 2.75V6.41667" stroke="#6F6B7D" stroke-width="1.5" stroke-linecap="round" stroke-linejoin="round"/>
<path d="M6.41659 2.75V6.41667" stroke="#6F6B7D" stroke-width="1.5" stroke-linecap="round" stroke-linejoin="round"/>
<path d="M2.75 10.0833H17.4167" stroke="#6F6B7D" stroke-width="1.5" stroke-linecap="round" stroke-linejoin="round"/>
<path d="M2.75 10.0833H17.4167" stroke="#6F6B7D" stroke-width="1.5" stroke-linecap="round" stroke-linejoin="round"/>
<path d="M16.5 15.1213V16.5L17.4167 17.4167" stroke="#6F6B7D" stroke-width="1.5" stroke-linecap="round" stroke-linejoin="round"/>
<path d="M16.5 15.1213V16.5L17.4167 17.4167" stroke="#6F6B7D" stroke-width="1.5" stroke-linecap="round" stroke-linejoin="round"/>
</svg>
