<svg width="22" height="22" viewBox="0 0 22 22" fill="none" xmlns="http://www.w3.org/2000/svg">
<g id="report-money">
<g id="Path">
<path d="M8.25065 4.5835H6.41732C5.4048 4.5835 4.58398 5.40431 4.58398 6.41683V17.4168C4.58398 18.4294 5.4048 19.2502 6.41732 19.2502H15.584C16.5965 19.2502 17.4173 18.4294 17.4173 17.4168V6.41683C17.4173 5.40431 16.5965 4.5835 15.584 4.5835H13.7507" stroke="#4B465C" stroke-width="1.5" stroke-linecap="round" stroke-linejoin="round"/>
<path d="M8.25065 4.5835H6.41732C5.4048 4.5835 4.58398 5.40431 4.58398 6.41683V17.4168C4.58398 18.4294 5.4048 19.2502 6.41732 19.2502H15.584C16.5965 19.2502 17.4173 18.4294 17.4173 17.4168V6.41683C17.4173 5.40431 16.5965 4.5835 15.584 4.5835H13.7507" stroke="white" stroke-opacity="0.2" stroke-width="1.5" stroke-linecap="round" stroke-linejoin="round"/>
</g>
<g id="Rectangle">
<rect x="8.25" y="2.75" width="5.5" height="3.66667" rx="1.83333" stroke="#4B465C" stroke-width="1.5" stroke-linecap="round" stroke-linejoin="round"/>
<rect x="8.25" y="2.75" width="5.5" height="3.66667" rx="1.83333" stroke="white" stroke-opacity="0.2" stroke-width="1.5" stroke-linecap="round" stroke-linejoin="round"/>
</g>
<g id="Path_2">
<path d="M12.8327 10.0835H10.541C9.78162 10.0835 9.16602 10.6991 9.16602 11.4585C9.16602 12.2179 9.78162 12.8335 10.541 12.8335H11.4577C12.2171 12.8335 12.8327 13.4491 12.8327 14.2085C12.8327 14.9679 12.2171 15.5835 11.4577 15.5835H9.16602" stroke="#4B465C" stroke-width="1.5" stroke-linecap="round" stroke-linejoin="round"/>
<path d="M12.8327 10.0835H10.541C9.78162 10.0835 9.16602 10.6991 9.16602 11.4585C9.16602 12.2179 9.78162 12.8335 10.541 12.8335H11.4577C12.2171 12.8335 12.8327 13.4491 12.8327 14.2085C12.8327 14.9679 12.2171 15.5835 11.4577 15.5835H9.16602" stroke="white" stroke-opacity="0.2" stroke-width="1.5" stroke-linecap="round" stroke-linejoin="round"/>
</g>
<g id="Shape">
<path d="M11.7493 15.5832C11.7493 15.169 11.4136 14.8332 10.9993 14.8332C10.5851 14.8332 10.2493 15.169 10.2493 15.5832H11.7493ZM10.2493 16.4998C10.2493 16.9141 10.5851 17.2498 10.9993 17.2498C11.4136 17.2498 11.7493 16.9141 11.7493 16.4998H10.2493ZM11.7493 9.1665C11.7493 8.75229 11.4136 8.4165 10.9993 8.4165C10.5851 8.4165 10.2493 8.75229 10.2493 9.1665H11.7493ZM10.2493 10.0832C10.2493 10.4974 10.5851 10.8332 10.9993 10.8332C11.4136 10.8332 11.7493 10.4974 11.7493 10.0832H10.2493ZM10.2493 15.5832V16.4998H11.7493V15.5832H10.2493ZM10.2493 9.1665V10.0832H11.7493V9.1665H10.2493Z" fill="#4B465C"/>
<path d="M11.7493 15.5832C11.7493 15.169 11.4136 14.8332 10.9993 14.8332C10.5851 14.8332 10.2493 15.169 10.2493 15.5832H11.7493ZM10.2493 16.4998C10.2493 16.9141 10.5851 17.2498 10.9993 17.2498C11.4136 17.2498 11.7493 16.9141 11.7493 16.4998H10.2493ZM11.7493 9.1665C11.7493 8.75229 11.4136 8.4165 10.9993 8.4165C10.5851 8.4165 10.2493 8.75229 10.2493 9.1665H11.7493ZM10.2493 10.0832C10.2493 10.4974 10.5851 10.8332 10.9993 10.8332C11.4136 10.8332 11.7493 10.4974 11.7493 10.0832H10.2493ZM10.2493 15.5832V16.4998H11.7493V15.5832H10.2493ZM10.2493 9.1665V10.0832H11.7493V9.1665H10.2493Z" fill="white" fill-opacity="0.2"/>
</g>
</g>
</svg>
