<svg width="22" height="22" viewBox="0 0 22 22" fill="none" xmlns="http://www.w3.org/2000/svg">
<g id="bell">
<g id="Path">
<path d="M9.16602 4.58333C9.16602 3.57081 9.98683 2.75 10.9993 2.75C12.0119 2.75 12.8327 3.57081 12.8327 4.58333C14.9778 5.59767 16.3881 7.71306 16.4993 10.0833V12.8333C16.6392 13.9891 17.3197 15.0097 18.3327 15.5833H3.66602C4.67904 15.0097 5.35945 13.9891 5.49935 12.8333V10.0833C5.6106 7.71306 7.02086 5.59767 9.16602 4.58333" stroke="#4B465C" stroke-width="1.5" stroke-linecap="round" stroke-linejoin="round"/>
<path d="M9.16602 4.58333C9.16602 3.57081 9.98683 2.75 10.9993 2.75C12.0119 2.75 12.8327 3.57081 12.8327 4.58333C14.9778 5.59767 16.3881 7.71306 16.4993 10.0833V12.8333C16.6392 13.9891 17.3197 15.0097 18.3327 15.5833H3.66602C4.67904 15.0097 5.35945 13.9891 5.49935 12.8333V10.0833C5.6106 7.71306 7.02086 5.59767 9.16602 4.58333" stroke="white" stroke-opacity="0.2" stroke-width="1.5" stroke-linecap="round" stroke-linejoin="round"/>
</g>
<g id="Path_2">
<path d="M8.25 15.5833V16.4999C8.25 18.0187 9.48122 19.2499 11 19.2499C12.5188 19.2499 13.75 18.0187 13.75 16.4999V15.5833" stroke="#4B465C" stroke-width="1.5" stroke-linecap="round" stroke-linejoin="round"/>
<path d="M8.25 15.5833V16.4999C8.25 18.0187 9.48122 19.2499 11 19.2499C12.5188 19.2499 13.75 18.0187 13.75 16.4999V15.5833" stroke="white" stroke-opacity="0.2" stroke-width="1.5" stroke-linecap="round" stroke-linejoin="round"/>
</g>
</g>
</svg>
