<svg width="22" height="22" viewBox="0 0 22 22" fill="none" xmlns="http://www.w3.org/2000/svg">
<g id="report-search">
<g id="Path">
<path d="M7.33268 4.5835H5.49935C4.48683 4.5835 3.66602 5.40431 3.66602 6.41683V17.4168C3.66602 18.4294 4.48683 19.2502 5.49935 19.2502H10.7216" stroke="#4B465C" stroke-width="1.375" stroke-linecap="round" stroke-linejoin="round"/>
<path d="M7.33268 4.5835H5.49935C4.48683 4.5835 3.66602 5.40431 3.66602 6.41683V17.4168C3.66602 18.4294 4.48683 19.2502 5.49935 19.2502H10.7216" stroke="white" stroke-opacity="0.2" stroke-width="1.375" stroke-linecap="round" stroke-linejoin="round"/>
</g>
<g id="Path_2">
<path d="M16.5007 11.0002V6.41683C16.5007 5.40431 15.6798 4.5835 14.6673 4.5835H12.834" stroke="#4B465C" stroke-width="1.375" stroke-linecap="round" stroke-linejoin="round"/>
<path d="M16.5007 11.0002V6.41683C16.5007 5.40431 15.6798 4.5835 14.6673 4.5835H12.834" stroke="white" stroke-opacity="0.2" stroke-width="1.375" stroke-linecap="round" stroke-linejoin="round"/>
</g>
<g id="Rectangle">
<rect x="7.33398" y="2.75" width="5.5" height="3.66667" rx="1.83333" stroke="#4B465C" stroke-width="1.375" stroke-linecap="round" stroke-linejoin="round"/>
<rect x="7.33398" y="2.75" width="5.5" height="3.66667" rx="1.83333" stroke="white" stroke-opacity="0.2" stroke-width="1.375" stroke-linecap="round" stroke-linejoin="round"/>
</g>
<g id="Path_3">
<path d="M7.33398 10.0833H11.0007" stroke="#4B465C" stroke-width="1.375" stroke-linecap="round" stroke-linejoin="round"/>
<path d="M7.33398 10.0833H11.0007" stroke="white" stroke-opacity="0.2" stroke-width="1.375" stroke-linecap="round" stroke-linejoin="round"/>
</g>
<g id="Path_4">
<path d="M7.33398 13.7498H10.084" stroke="#4B465C" stroke-width="1.375" stroke-linecap="round" stroke-linejoin="round"/>
<path d="M7.33398 13.7498H10.084" stroke="white" stroke-opacity="0.2" stroke-width="1.375" stroke-linecap="round" stroke-linejoin="round"/>
</g>
<g id="Oval">
<circle cx="15.1257" cy="16.0417" r="2.29167" stroke="#4B465C" stroke-width="1.375" stroke-linecap="round" stroke-linejoin="round"/>
<circle cx="15.1257" cy="16.0417" r="2.29167" stroke="white" stroke-opacity="0.2" stroke-width="1.375" stroke-linecap="round" stroke-linejoin="round"/>
</g>
<g id="Path_5">
<path d="M16.959 17.875L19.2507 20.1667" stroke="#4B465C" stroke-width="1.375" stroke-linecap="round" stroke-linejoin="round"/>
<path d="M16.959 17.875L19.2507 20.1667" stroke="white" stroke-opacity="0.2" stroke-width="1.375" stroke-linecap="round" stroke-linejoin="round"/>
</g>
</g>
</svg>
