<svg width="22" height="22" viewBox="0 0 22 22" fill="none" xmlns="http://www.w3.org/2000/svg">
<g id="shape-2">
<g id="Oval">
<circle cx="4.58333" cy="4.58333" r="1.83333" stroke="#4B465C" stroke-width="1.5" stroke-linecap="round" stroke-linejoin="round"/>
<circle cx="4.58333" cy="4.58333" r="1.83333" stroke="white" stroke-opacity="0.2" stroke-width="1.5" stroke-linecap="round" stroke-linejoin="round"/>
</g>
<g id="Oval_2">
<circle cx="17.4173" cy="17.4168" r="1.83333" stroke="#4B465C" stroke-width="1.5" stroke-linecap="round" stroke-linejoin="round"/>
<circle cx="17.4173" cy="17.4168" r="1.83333" stroke="white" stroke-opacity="0.2" stroke-width="1.5" stroke-linecap="round" stroke-linejoin="round"/>
</g>
<g id="Oval_3">
<ellipse cx="17.4173" cy="4.58333" rx="1.83333" ry="1.83333" stroke="#4B465C" stroke-width="1.5" stroke-linecap="round" stroke-linejoin="round"/>
<ellipse cx="17.4173" cy="4.58333" rx="1.83333" ry="1.83333" stroke="white" stroke-opacity="0.2" stroke-width="1.5" stroke-linecap="round" stroke-linejoin="round"/>
</g>
<g id="Oval_4">
<ellipse cx="4.58333" cy="17.4168" rx="1.83333" ry="1.83333" stroke="#4B465C" stroke-width="1.5" stroke-linecap="round" stroke-linejoin="round"/>
<ellipse cx="4.58333" cy="17.4168" rx="1.83333" ry="1.83333" stroke="white" stroke-opacity="0.2" stroke-width="1.5" stroke-linecap="round" stroke-linejoin="round"/>
</g>
<g id="Shape">
<path d="M5.42865 15.5115C5.13576 15.8044 5.13576 16.2793 5.42865 16.5722C5.72155 16.8651 6.19642 16.8651 6.48931 16.5722L5.42865 15.5115ZM16.5726 6.48883C16.8655 6.19593 16.8655 5.72106 16.5726 5.42817C16.2798 5.13527 15.8049 5.13527 15.512 5.42817L16.5726 6.48883ZM5.33398 6.41683C5.33398 6.00262 4.9982 5.66683 4.58398 5.66683C4.16977 5.66683 3.83398 6.00262 3.83398 6.41683H5.33398ZM3.83398 15.5835C3.83398 15.9977 4.16977 16.3335 4.58398 16.3335C4.9982 16.3335 5.33398 15.9977 5.33398 15.5835H3.83398ZM18.1673 6.41683C18.1673 6.00262 17.8315 5.66683 17.4173 5.66683C17.0031 5.66683 16.6673 6.00262 16.6673 6.41683H18.1673ZM16.6673 15.5835C16.6673 15.9977 17.0031 16.3335 17.4173 16.3335C17.8315 16.3335 18.1673 15.9977 18.1673 15.5835H16.6673ZM6.48931 16.5722L16.5726 6.48883L15.512 5.42817L5.42865 15.5115L6.48931 16.5722ZM3.83398 6.41683V15.5835H5.33398V6.41683H3.83398ZM16.6673 6.41683V15.5835H18.1673V6.41683H16.6673Z" fill="#4B465C"/>
<path d="M5.42865 15.5115C5.13576 15.8044 5.13576 16.2793 5.42865 16.5722C5.72155 16.8651 6.19642 16.8651 6.48931 16.5722L5.42865 15.5115ZM16.5726 6.48883C16.8655 6.19593 16.8655 5.72106 16.5726 5.42817C16.2798 5.13527 15.8049 5.13527 15.512 5.42817L16.5726 6.48883ZM5.33398 6.41683C5.33398 6.00262 4.9982 5.66683 4.58398 5.66683C4.16977 5.66683 3.83398 6.00262 3.83398 6.41683H5.33398ZM3.83398 15.5835C3.83398 15.9977 4.16977 16.3335 4.58398 16.3335C4.9982 16.3335 5.33398 15.9977 5.33398 15.5835H3.83398ZM18.1673 6.41683C18.1673 6.00262 17.8315 5.66683 17.4173 5.66683C17.0031 5.66683 16.6673 6.00262 16.6673 6.41683H18.1673ZM16.6673 15.5835C16.6673 15.9977 17.0031 16.3335 17.4173 16.3335C17.8315 16.3335 18.1673 15.9977 18.1673 15.5835H16.6673ZM6.48931 16.5722L16.5726 6.48883L15.512 5.42817L5.42865 15.5115L6.48931 16.5722ZM3.83398 6.41683V15.5835H5.33398V6.41683H3.83398ZM16.6673 6.41683V15.5835H18.1673V6.41683H16.6673Z" fill="white" fill-opacity="0.2"/>
</g>
</g>
</svg>
