<svg width="22" height="22" viewBox="0 0 22 22" fill="none" xmlns="http://www.w3.org/2000/svg">
<g id="speakerphone">
<g id="Path">
<path d="M16.5 7.3335C18.0188 7.3335 19.25 8.56471 19.25 10.0835C19.25 11.6023 18.0188 12.8335 16.5 12.8335" stroke="#4B465C" stroke-width="1.375" stroke-linecap="round" stroke-linejoin="round"/>
<path d="M16.5 7.3335C18.0188 7.3335 19.25 8.56471 19.25 10.0835C19.25 11.6023 18.0188 12.8335 16.5 12.8335" stroke="white" stroke-opacity="0.2" stroke-width="1.375" stroke-linecap="round" stroke-linejoin="round"/>
</g>
<g id="Path_2">
<path d="M9.16602 7.3335V17.4168C9.16602 17.9231 8.75561 18.3335 8.24935 18.3335H7.33268C6.82642 18.3335 6.41602 17.9231 6.41602 17.4168V12.8335" stroke="#4B465C" stroke-width="1.375" stroke-linecap="round" stroke-linejoin="round"/>
<path d="M9.16602 7.3335V17.4168C9.16602 17.9231 8.75561 18.3335 8.24935 18.3335H7.33268C6.82642 18.3335 6.41602 17.9231 6.41602 17.4168V12.8335" stroke="white" stroke-opacity="0.2" stroke-width="1.375" stroke-linecap="round" stroke-linejoin="round"/>
</g>
<g id="Path_3">
<path d="M11 7.33346V7.33346L15.147 3.87762C15.393 3.67272 15.7353 3.62865 16.0252 3.76455C16.3151 3.90046 16.5002 4.1918 16.5 4.51196V15.655C16.5002 15.9751 16.3151 16.2665 16.0252 16.4024C15.7353 16.5383 15.393 16.4942 15.147 16.2893L11 12.8335H3.66667C3.16041 12.8335 2.75 12.4231 2.75 11.9168V8.25012C2.75 7.74386 3.16041 7.33346 3.66667 7.33346H11" stroke="#4B465C" stroke-width="1.375" stroke-linecap="round" stroke-linejoin="round"/>
<path d="M11 7.33346V7.33346L15.147 3.87762C15.393 3.67272 15.7353 3.62865 16.0252 3.76455C16.3151 3.90046 16.5002 4.1918 16.5 4.51196V15.655C16.5002 15.9751 16.3151 16.2665 16.0252 16.4024C15.7353 16.5383 15.393 16.4942 15.147 16.2893L11 12.8335H3.66667C3.16041 12.8335 2.75 12.4231 2.75 11.9168V8.25012C2.75 7.74386 3.16041 7.33346 3.66667 7.33346H11" stroke="white" stroke-opacity="0.2" stroke-width="1.375" stroke-linecap="round" stroke-linejoin="round"/>
</g>
</g>
</svg>
