<svg xmlns="http://www.w3.org/2000/svg" version="1.1" xmlns:xlink="http://www.w3.org/1999/xlink" xmlns:svgjs="http://svgjs.dev/svgjs" width="1440" height="560" preserveAspectRatio="none" viewBox="0 0 1440 560"><g mask="url(&quot;#SvgjsMask1053&quot;)" fill="none"><rect width="1440" height="560" x="0" y="0" fill="rgba(44, 51, 99, 1)"></rect><path d="M0,497.566C93.065,494.841,124.013,364.861,199.131,309.854C267.599,259.717,372.164,262.221,418.487,191.117C466.003,118.182,461.919,21.228,442.44,-63.613C423.823,-144.7,363.62,-205.14,312.449,-270.739C258.357,-340.082,217.055,-427.797,134.566,-458.291C50.645,-489.315,-46.122,-471.067,-127.221,-433.275C-202.614,-398.142,-248.002,-324.548,-296.874,-257.243C-341.814,-195.353,-384.887,-132.484,-400.069,-57.521C-415.849,20.391,-420.639,104.789,-384.541,175.614C-348.989,245.368,-266.798,271.478,-206.768,321.738C-135.964,381.018,-92.304,500.269,0,497.566" fill="#23294f"></path><path d="M1440 1214.81C1565.521 1216.321 1707.009 1201.346 1794.017 1110.862 1879.112 1022.3679999999999 1840.304 876.8009999999999 1877.5230000000001 759.81 1908.785 661.543 2009.078 582.359 1994.637 480.255 1980.193 378.134 1863.805 328.527 1804.58 244.08999999999997 1736.163 146.54899999999998 1720.092 11.279999999999973 1620.174-53.61500000000001 1509.763-125.32399999999996 1361.622-172.04999999999995 1239.472-122.93600000000004 1117.52-73.90099999999995 1070.946 72.17700000000002 1013.4069999999999 190.35500000000002 967.76 284.109 948.4929999999999 384.312 941.835 488.375 935.633 585.314 953.2139999999999 677.431 976.2049999999999 771.808 1004.3969999999999 887.5350000000001 1005.2850000000001 1020.133 1091.4180000000001 1102.404 1181.527 1188.473 1315.399 1213.31 1440 1214.81" fill="#353d77"></path></g><defs><mask id="SvgjsMask1053"><rect width="1440" height="560" fill="#ffffff"></rect></mask></defs></svg>