<svg width="46" height="63" viewBox="0 0 46 63" fill="none" xmlns="http://www.w3.org/2000/svg">
<path d="M41.3901 8.33885C44.3761 8.33885 46 6.87955 46 4.16942C46 1.4593 44.3761 0 41.3377 0C38.666 0 36.8849 1.4593 36.8849 4.22155C36.8849 6.82744 38.6136 8.33885 41.3901 8.33885Z" fill="#462C6B"/>
<path d="M4.4528 54.6621C1.78112 54.6621 0 56.1214 0 58.8837C0 61.4895 1.72873 63.001 4.50518 63.001C7.49117 63.001 9.11514 61.5417 9.11514 58.8315C9.11514 56.1214 7.49117 54.6621 4.4528 54.6621Z" fill="#462C6B"/>
<path d="M37.82 36.671C37.82 39.7407 35.3107 42.2372 32.2252 42.2372C29.1396 42.2372 26.6304 39.7407 26.6304 36.671V31.4279V28.9549V26.1849C26.6304 19.136 20.8653 13.4004 13.7801 13.4004C6.69493 13.4004 0.929871 19.136 0.929871 26.1849V49.4529H8.18269V26.1849C8.18269 23.1151 10.692 20.6187 13.7775 20.6187C16.863 20.6187 19.3723 23.1151 19.3723 26.1849V28.9549V31.4279V36.671C19.3723 43.7199 25.1374 49.4555 32.2225 49.4555C39.3077 49.4555 45.0728 43.7199 45.0728 36.671V13.4421H37.82V36.671Z" fill="#007890"/>
</svg>
