<svg width="24" height="24" viewBox="0 0 24 24" fill="none" xmlns="http://www.w3.org/2000/svg">
<path fill-rule="evenodd" clip-rule="evenodd" d="M19.5 7.625V19.5C19.5 20.163 19.2366 20.7989 18.7678 21.2678C18.2989 21.7366 17.663 22 17 22H15.75V20.75H17C17.3315 20.75 17.6495 20.6183 17.8839 20.3839C18.1183 20.1495 18.25 19.8315 18.25 19.5V7.625H15.75C15.2527 7.625 14.7758 7.42746 14.4242 7.07583C14.0725 6.72419 13.875 6.24728 13.875 5.75V3.25H7C6.66848 3.25 6.35054 3.3817 6.11612 3.61612C5.8817 3.85054 5.75 4.16848 5.75 4.5V15.75H4.5V4.5C4.5 3.83696 4.76339 3.20107 5.23223 2.73223C5.70107 2.26339 6.33696 2 7 2H13.875L19.5 7.625ZM4 16.8125H2V21.8113H2.98875V20.1338H3.9925C4.35083 20.1338 4.65583 20.0617 4.9075 19.9175C5.16167 19.7717 5.35458 19.5742 5.48625 19.325C5.62349 19.0644 5.69271 18.7733 5.6875 18.4788C5.6875 18.1663 5.62167 17.8842 5.49 17.6325C5.3581 17.3837 5.15883 17.1771 4.915 17.0363C4.665 16.8863 4.36 16.8117 4 16.8125ZM4.68125 18.4788C4.6855 18.6434 4.649 18.8066 4.575 18.9538C4.50865 19.082 4.4049 19.187 4.2775 19.255C4.13188 19.3267 3.971 19.3619 3.80875 19.3575H2.985V17.6H3.81C4.0825 17.6 4.29583 17.6754 4.45 17.8263C4.60417 17.9788 4.68125 18.1962 4.68125 18.4788ZM6.2025 16.8125V21.8113H8.0275C8.52917 21.8113 8.945 21.7125 9.275 21.515C9.60895 21.3152 9.86972 21.0132 10.0188 20.6538C10.1821 20.2787 10.2638 19.8271 10.2638 19.2987C10.2638 18.7738 10.1821 18.3258 10.0188 17.955C9.87117 17.5998 9.61297 17.3017 9.2825 17.105C8.9525 16.91 8.53375 16.8125 8.02625 16.8125H6.2025ZM7.19125 17.6187H7.895C8.20417 17.6187 8.45792 17.6821 8.65625 17.8088C8.86191 17.9444 9.01736 18.1437 9.09875 18.3762C9.19708 18.6279 9.24625 18.9417 9.24625 19.3175C9.25013 19.5668 9.22155 19.8156 9.16125 20.0575C9.11813 20.2488 9.0346 20.4286 8.91625 20.585C8.80749 20.7252 8.6634 20.8339 8.49875 20.9C8.30581 20.9721 8.10093 21.0069 7.895 21.0025H7.19125V17.6187ZM11.87 19.8225V21.8113H10.8825V16.8125H14.0675V17.6287H11.87V19.025H13.8775V19.8225H11.87Z" fill="#6F6B7D"/>
</svg>
