<svg xmlns="http://www.w3.org/2000/svg" xmlns:xlink="http://www.w3.org/1999/xlink" width="24" height="24" viewBox="0 0 24 24"><defs><style>.a,.b{fill:#5238a0;}.b{opacity:0;}.c{clip-path:url(#a);}</style><clipPath id="a"><rect class="a" width="24" height="23.335"/></clipPath></defs><rect class="b" width="24" height="24"/><g transform="translate(0 0.333)"><g class="c"><path class="a" d="M8.157,15.147A5.063,5.063,0,0,1,6.54,16.168,4.82,4.82,0,1,1,4.065,6.9a4.666,4.666,0,0,1,3.688.948.287.287,0,0,0,.364.032q3.021-1.575,6.05-3.132a.364.364,0,0,0,.218-.338,4.816,4.816,0,1,1,5.467,5.194,1.111,1.111,0,0,1-.17.011c-.153,0-.209.063-.208.222q.008,1.829,0,3.658c0,.163.065.206.213.219a4.817,4.817,0,1,1-5.237,5.6,1.125,1.125,0,0,0-.646-.93c-1.826-1.023-3.632-2.084-5.445-3.13-.062-.036-.126-.069-.2-.11M18.869,9.671a4.925,4.925,0,0,1-4.514-4.348L8.406,8.4a4.908,4.908,0,0,1,.193,6.3l5.753,3.321a4.93,4.93,0,0,1,4.517-4.363Zm3.078-1.686a4.183,4.183,0,0,0,1.224-4.554,4.227,4.227,0,0,0-8.136.58,4.06,4.06,0,0,0,1.4,3.958c0-.32-.02-.612,0-.9a1.744,1.744,0,0,1,1.621-1.6.556.556,0,0,1,.381.141,1.009,1.009,0,0,0,1.545,0,.533.533,0,0,1,.358-.138,1.768,1.768,0,0,1,1.606,1.7c.007.264,0,.528,0,.815M2.052,14.843c0-.3,0-.545,0-.794a1.806,1.806,0,0,1,1.471-1.732.525.525,0,0,1,.542.108.984.984,0,0,0,1.551.017.521.521,0,0,1,.338-.135,1.744,1.744,0,0,1,1.6,1.535c.026.31,0,.624,0,.981a4.106,4.106,0,0,0,1.393-4.009,4.221,4.221,0,1,0-6.9,4.029m19.9,6.818A4.162,4.162,0,0,0,23.2,17.207a4.229,4.229,0,0,0-8.086.142,4.162,4.162,0,0,0,1.311,4.317c0-.328-.019-.617,0-.9a1.789,1.789,0,0,1,1.506-1.62.534.534,0,0,1,.543.174.955.955,0,0,0,1.442.008.527.527,0,0,1,.541-.177,1.805,1.805,0,0,1,1.482,1.8c0,.232,0,.464,0,.716M17,21.395l.022,0c0,.195-.012.391.006.584a.315.315,0,0,0,.128.222,4.131,4.131,0,0,0,4.066,0,.308.308,0,0,0,.132-.223c.014-.348.016-.7,0-1.047a1.2,1.2,0,0,0-.71-1.1.352.352,0,0,0-.438.051,1.542,1.542,0,0,1-1.934.059c-.307-.221-.427-.249-.715,0a1.664,1.664,0,0,0-.473.649,3.172,3.172,0,0,0-.087.814M17,7.725l.022,0c0,.195-.011.391.005.584a.292.292,0,0,0,.115.208,4.151,4.151,0,0,0,4.091,0,.282.282,0,0,0,.121-.206c.012-.357.018-.715,0-1.072a1.187,1.187,0,0,0-.743-1.105.314.314,0,0,0-.388.055,1.567,1.567,0,0,1-1.956.063c-.28-.208-.381-.215-.678-.028a1.05,1.05,0,0,0-.514.681A7.753,7.753,0,0,0,17,7.725M6.981,14.564h0c0-.17.005-.341,0-.511a1.17,1.17,0,0,0-.715-1.07.336.336,0,0,0-.414.051,1.563,1.563,0,0,1-1.956.055c-.272-.2-.369-.213-.657-.036a1.078,1.078,0,0,0-.561.838c-.033.4-.017.794-.037,1.191a.3.3,0,0,0,.2.318,4.258,4.258,0,0,0,3.685.139c.344-.139.545-.312.464-.707a1.361,1.361,0,0,1,0-.267" transform="translate(0 0)"/><path class="a" d="M272.755,26.832a5.732,5.732,0,0,1-.08.748,1.593,1.593,0,0,1-1.773,1.187,1.564,1.564,0,0,1-1.422-1.58,5.767,5.767,0,0,1,.032-1.045,1.586,1.586,0,0,1,1.727-1.284,1.61,1.61,0,0,1,1.494,1.581c.006.13,0,.26,0,.39l.021,0m-.631-.011h0c0-.138,0-.276,0-.414a1.025,1.025,0,0,0-2-.226,4.7,4.7,0,0,0-.053.944.987.987,0,0,0,1.026,1.052.971.971,0,0,0,1.031-1.038c0-.106,0-.211,0-.317" transform="translate(-251.918 -23.234)"/><path class="a" d="M52.118,131.774a5.32,5.32,0,0,1-.118.862,1.627,1.627,0,0,1-3.163-.447,5.546,5.546,0,0,1,.031-1.045,1.62,1.62,0,0,1,3.216.236c0,.13,0,.26,0,.39l.033,0m-2.678-.007h0c0,.13,0,.26,0,.39a1.023,1.023,0,0,0,2.013.2,4.7,4.7,0,0,0,.042-.945.982.982,0,0,0-1.052-1,.964.964,0,0,0-1,1.015c0,.114,0,.227,0,.341" transform="translate(-45.646 -121.342)"/><path class="a" d="M269.407,236.781a4.561,4.561,0,0,1,.039-.679,1.627,1.627,0,0,1,3.214.224,5.216,5.216,0,0,1-.029,1.093,1.621,1.621,0,0,1-3.213-.223c0-.138,0-.276,0-.415h-.011m2.655,0h0c0-.138,0-.276,0-.414a1.022,1.022,0,0,0-2-.222,3.96,3.96,0,0,0-.029,1.16.965.965,0,0,0,1.1.837.974.974,0,0,0,.932-1.02c0-.114,0-.227,0-.341" transform="translate(-251.857 -219.517)"/></g></g></svg>