<svg xmlns="http://www.w3.org/2000/svg" xmlns:xlink="http://www.w3.org/1999/xlink" width="24" height="24" viewBox="0 0 24 24"><defs><style>.a,.b{fill:#fff;}.b{opacity:0;}.c{clip-path:url(#a);}</style><clipPath id="a"><rect class="a" width="22.516" height="17.675"/></clipPath></defs><rect class="b" width="24" height="24"/><g transform="translate(0.742 3.163)"><g class="c"><path class="a" d="M3.4,3.278c0-.495-.016-.972,0-1.447A1.9,1.9,0,0,1,5.3,0,2.582,2.582,0,0,1,6.51.163,1.932,1.932,0,0,1,7.665,1.93c.018.444,0,.888,0,1.35h7.155c0-.372-.01-.741,0-1.109a3.481,3.481,0,0,1,.083-.743A1.866,1.866,0,0,1,16.74.01a3.666,3.666,0,0,1,1.12.128,1.9,1.9,0,0,1,1.253,1.889c.006.412,0,.823,0,1.281.294,0,.566-.008.838,0a2.7,2.7,0,0,1,2.535,2.43c.017.218.026.436.026.654q0,4.189,0,8.378a2.862,2.862,0,0,1-.534,1.778A2.71,2.71,0,0,1,19.7,17.671q-8.449.006-16.9,0a2.709,2.709,0,0,1-2.773-2.32A2.553,2.553,0,0,1,0,14.89q0-4.407,0-8.815A2.679,2.679,0,0,1,2.265,3.34,8.948,8.948,0,0,1,3.4,3.278M11.252,16.87c2.808,0,5.616-.02,8.423.009a2,2,0,0,0,2.05-2.036c-.027-2.913-.009-5.827-.01-8.741a2.2,2.2,0,0,0-.028-.434,1.918,1.918,0,0,0-1.951-1.585q-8.447,0-16.895,0A1.943,1.943,0,0,0,.778,6.151C.778,9.024.8,11.9.77,14.77a2.033,2.033,0,0,0,2.108,2.112c2.791-.037,5.583-.012,8.374-.012M6.864,3.257c0-.48.021-.955-.006-1.429a1.037,1.037,0,0,0-.869-1A2.809,2.809,0,0,0,5.01.841,1.089,1.089,0,0,0,4.177,1.9c-.006.4,0,.808,0,1.211a1.192,1.192,0,0,0,.026.168H6.734a.812.812,0,0,0,.13-.023M18.3,3.268a.828.828,0,0,0,.016-.1c0-.4,0-.793,0-1.189A1.148,1.148,0,0,0,17.348.8a1.372,1.372,0,0,0-1.641.7.537.537,0,0,0-.059.184c0,.523,0,1.046,0,1.583Z" transform="translate(0 0)"/><path class="a" d="M39.156,173.409c-.784,0-1.568,0-2.352,0a1.2,1.2,0,0,1-1.341-1.352,6.034,6.034,0,0,1,.085-1.251,1.88,1.88,0,0,1,1.834-1.449q1.77-.017,3.541,0A1.91,1.91,0,0,1,42.83,171.1a7.246,7.246,0,0,1-.006,1.329,1.051,1.051,0,0,1-.978.951c-.7.04-1.405.025-2.108.032-.194,0-.388,0-.582,0m-.01-.8c.816,0,1.633,0,2.449,0,.341,0,.461-.124.464-.469q0-.388,0-.776a1.139,1.139,0,0,0-1.212-1.214c-.461-.005-.922,0-1.382,0-.663,0-1.326,0-1.989,0a1.137,1.137,0,0,0-1.216,1.21q0,.4,0,.8c0,.325.129.448.459.448.808,0,1.617,0,2.425,0" transform="translate(-33.162 -158.364)"/><path class="a" d="M214.853,92.829c0-.179,0-.331,0-.482a.878.878,0,0,1,.956-.948c.178,0,.356,0,.534,0a.883.883,0,0,1,.9.884c.006.169,0,.338,0,.545.165,0,.315,0,.465,0a.908.908,0,0,1,.975.968,4.707,4.707,0,0,1-.012.606.885.885,0,0,1-.89.824c-.168.007-.337,0-.538,0,0,.184,0,.351,0,.518a.884.884,0,0,1-.876.911,5.807,5.807,0,0,1-.7-.006.847.847,0,0,1-.8-.8c-.015-.2,0-.4,0-.628-.188,0-.339,0-.491,0a.9.9,0,0,1-.957-.955q0-.243,0-.486a.892.892,0,0,1,.929-.958c.16-.006.32,0,.51,0m.79,2.423c0,.641,0,.636.6.625.157,0,.219-.054.216-.209-.005-.275-.008-.551,0-.825a.381.381,0,0,1,.393-.406c.153-.013.307,0,.461-.006.688-.018.56.135.577-.618,0-.134-.045-.189-.183-.186-.251.007-.5,0-.753,0-.358,0-.494-.142-.5-.5,0-.243.009-.486-.007-.728-.005-.075-.084-.208-.127-.207a4.659,4.659,0,0,0-.666.078.533.533,0,0,0-.011.162c0,.235,0,.47,0,.7,0,.338-.152.489-.488.494-.259,0-.518,0-.777,0-.135,0-.189.054-.187.188.011.73-.093.6.564.616h.073c.787,0,.816.029.816.821" transform="translate(-199.572 -85.469)"/><path class="a" d="M62.243,91.424a2.089,2.089,0,1,1-2.11,2.079,2.09,2.09,0,0,1,2.11-2.079m1.284,2.1a1.3,1.3,0,1,0-1.3,1.3,1.3,1.3,0,0,0,1.3-1.3" transform="translate(-56.232 -85.494)"/><path class="a" d="M200.372,186.9c-1.051,0-2.1,0-3.154,0a.571.571,0,0,1-.326-.051.652.652,0,0,1-.234-.357.322.322,0,0,1,.262-.359,1.134,1.134,0,0,1,.287-.031q3.166,0,6.333,0a1.244,1.244,0,0,1,.217.013.37.37,0,0,1,.339.38.378.378,0,0,1-.328.392,1.046,1.046,0,0,1-.241.015h-3.154" transform="translate(-183.898 -174.031)"/><path class="a" d="M200.328,218.108h-3.105a2.642,2.642,0,0,1-.266-.009.36.36,0,0,1-.349-.367.373.373,0,0,1,.315-.4,1.012,1.012,0,0,1,.241-.012h6.332c.048,0,.1,0,.146,0a.405.405,0,0,1,.414.39.385.385,0,0,1-.4.393c-.291.011-.582.005-.873.005h-2.45" transform="translate(-183.854 -203.222)"/></g></g></svg>