<svg xmlns="http://www.w3.org/2000/svg" xmlns:xlink="http://www.w3.org/1999/xlink" width="24" height="24" viewBox="0 0 24 24"><defs><style>.a,.b{fill:#fff;}.b{opacity:0;}.c{clip-path:url(#a);}</style><clipPath id="a"><rect class="a" width="18.84" height="22"/></clipPath></defs><rect class="b" width="24" height="24"/><g transform="translate(2.58 1)"><g class="c"><path class="a" d="M9.074,22a3.729,3.729,0,0,1-1.315-.479,3.055,3.055,0,0,1-1.4-2.04c-.011-.056-.026-.112-.044-.189H6.088c-1.212,0-2.425.012-3.637,0A2.464,2.464,0,0,1,.285,15.693a3.086,3.086,0,0,1,.478-.634c.369-.394.75-.779,1.143-1.15a1.248,1.248,0,0,0,.4-.979c-.006-1.375-.062-2.754.024-4.124a6.84,6.84,0,0,1,4.1-6c.3-.147.616-.248.948-.379A2.072,2.072,0,0,1,9.531,0a2.079,2.079,0,0,1,1.941,2.429c.252.1.516.174.762.29A6.936,6.936,0,0,1,16.54,9.278c.024,1.224.011,2.449,0,3.674a1.227,1.227,0,0,0,.4.957c.422.4.837.816,1.235,1.242a2.453,2.453,0,0,1-1.264,4.073,3.071,3.071,0,0,1-.669.066c-1.154.006-2.308,0-3.462,0h-.245c-.052.2-.086.4-.153.583a3.064,3.064,0,0,1-2.486,2.087A1.017,1.017,0,0,0,9.771,22Zm.351-4.211h.784q3.026,0,6.053,0a1.019,1.019,0,0,0,.722-.242.949.949,0,0,0,.064-1.382c-.4-.418-.8-.827-1.218-1.228a2.571,2.571,0,0,1-.812-1.946c.008-1.224.01-2.449,0-3.673a7.207,7.207,0,0,0-.1-1.195A5.589,5.589,0,0,0,7.2,4.115,5.371,5.371,0,0,0,3.83,9.259c-.022,1.245-.009,2.492,0,3.737a2.572,2.572,0,0,1-.815,1.945q-.583.564-1.143,1.15a1.308,1.308,0,0,0-.279.4.967.967,0,0,0,.955,1.293q3.44,0,6.88,0M7.9,19.3a1.548,1.548,0,0,0,1.581,1.194A1.527,1.527,0,0,0,10.937,19.3Zm1-17.17H9.952c.009-.4-.228-.648-.565-.626A.52.52,0,0,0,8.9,2.13" transform="translate(0 0)"/></g></g></svg>