<svg xmlns="http://www.w3.org/2000/svg" xmlns:xlink="http://www.w3.org/1999/xlink" width="16" height="16" viewBox="0 0 16 16"><defs><style>.a,.b{fill:#5878bf;}.b{opacity:0;}.c{clip-path:url(#a);}</style><clipPath id="a"><rect class="a" width="14.874" height="14.285"/></clipPath></defs><rect class="b" width="16" height="16"/><g transform="translate(0.563 0.857)"><g class="c"><path class="a" d="M10.283,13.794H13.4c0-.056.007-.108.007-.16q0-3.538,0-7.075a.687.687,0,0,0-.772-.753H11c-.165,0-.257-.078-.264-.217a.221.221,0,0,1,.238-.246c.639,0,1.279-.015,1.916.026a1.09,1.09,0,0,1,.988,1.083c.006.64,0,1.28,0,1.92q0,2.644,0,5.288V13.8h.2c.185,0,.37,0,.554,0,.17.005.248.084.246.232s-.08.219-.252.228h-.045c-1.168.007-2.336.019-3.5.02q-3.01,0-6.019,0-1.857,0-3.714,0c-.359,0-.719-.007-1.078-.011-.132,0-.237-.04-.258-.189a.211.211,0,0,1,.218-.269c.2-.009.4,0,.6,0H1V13.6Q1,8.567,1,3.538A1.129,1.129,0,0,1,1.892,2.4a1.332,1.332,0,0,1,.3-.031c.554,0,1.109,0,1.663,0a.3.3,0,0,1,.215.068.3.3,0,0,1,.045.251.287.287,0,0,1-.217.133c-.544.011-1.089,0-1.633.008a1.252,1.252,0,0,0-.311.035.653.653,0,0,0-.478.611c0,.074,0,.148,0,.222q0,4.941,0,9.882v.208H4.592V13.6q0-6.2,0-12.408a1.143,1.143,0,0,1,.9-1.165,1.1,1.1,0,0,1,.617.027Q7.786.613,9.462,1.165A1.14,1.14,0,0,1,10.283,2.3q0,5.643,0,11.285ZM9.8,13.781V2.355c0-.034,0-.069,0-.1a.658.658,0,0,0-.452-.629Q7.689,1.073,6.025.529a.7.7,0,0,0-.954.689q0,6.2,0,12.408v.151H6.224c0-.073,0-.137,0-.2,0-.384-.009-.769.015-1.152a1.187,1.187,0,0,1,1.3-1.094A1.215,1.215,0,0,1,8.666,12.5c.008.374,0,.748,0,1.123,0,.052,0,.1,0,.161Zm-1.613,0c0-.444.012-.872,0-1.3a.754.754,0,0,0-.705-.681.7.7,0,0,0-.767.628c-.032.356-.017.717-.021,1.076,0,.092,0,.183,0,.277Z" transform="translate(-0.001 0)"/><path class="a" d="M54.9,91.641c-.209,0-.418,0-.627,0-.151,0-.23-.075-.239-.206a.212.212,0,0,1,.223-.254q.642-.012,1.284,0a.213.213,0,0,1,.232.246c-.005.138-.087.212-.246.214-.209,0-.418,0-.627,0" transform="translate(-51.873 -87.578)"/><path class="a" d="M54.923,129.14c.2,0,.408,0,.612,0,.157,0,.238.079.242.218a.21.21,0,0,1-.221.242q-.65.012-1.3,0a.209.209,0,0,1-.219-.243c0-.139.085-.215.243-.217.214,0,.428,0,.642,0" transform="translate(-51.875 -124.045)"/><path class="a" d="M54.912,167.861c-.2,0-.4,0-.6,0s-.274-.082-.273-.237.088-.23.278-.23q.59,0,1.18,0c.192,0,.279.073.281.228s-.09.239-.286.24-.388,0-.583,0" transform="translate(-51.878 -160.788)"/><path class="a" d="M54.907,205.548c-.209,0-.418,0-.627,0-.158,0-.238-.077-.242-.217a.208.208,0,0,1,.221-.24q.649-.011,1.3,0a.208.208,0,0,1,.22.242c0,.139-.086.214-.244.216-.209,0-.418,0-.627,0" transform="translate(-51.875 -196.993)"/><path class="a" d="M54.917,243.006c.2,0,.408,0,.612,0,.157,0,.241.076.247.213a.215.215,0,0,1-.23.249q-.642.011-1.284,0a.214.214,0,0,1-.225-.253c.008-.136.091-.207.252-.208.209,0,.418,0,.627,0" transform="translate(-51.875 -233.419)"/><path class="a" d="M54.906,281.016c-.209,0-.418,0-.627,0-.155,0-.238-.08-.243-.219a.211.211,0,0,1,.22-.243q.65-.011,1.3,0a.231.231,0,1,1-.022.462c-.209,0-.418,0-.627,0" transform="translate(-51.873 -269.48)"/><path class="a" d="M54.911,318.537c.209,0,.418,0,.627,0,.152,0,.23.074.239.205a.21.21,0,0,1-.223.252q-.649.012-1.3,0a.2.2,0,0,1-.217-.243c.005-.139.084-.211.246-.214.209,0,.418,0,.627,0" transform="translate(-51.875 -305.97)"/><path class="a" d="M275.565,165.129c.2,0,.408,0,.612,0,.157,0,.241.077.247.214a.216.216,0,0,1-.229.25q-.627.011-1.254,0a.219.219,0,0,1-.234-.247c.006-.138.09-.215.246-.217.2,0,.408,0,.612,0" transform="translate(-263.713 -158.614)"/><path class="a" d="M275.578,268.483c.2,0,.4,0,.6,0,.163,0,.248.083.249.229a.219.219,0,0,1-.243.237q-.612.007-1.224,0a.225.225,0,0,1-.25-.247c.006-.142.094-.218.26-.22.2,0,.408,0,.612,0" transform="translate(-263.712 -257.89)"/><path class="a" d="M275.563,191.087c-.194,0-.388,0-.582,0s-.274-.088-.271-.241.094-.226.268-.227q.59,0,1.18,0c.179,0,.266.075.27.224s-.086.241-.267.244c-.2,0-.4,0-.6,0" transform="translate(-263.716 -183.097)"/><path class="a" d="M275.566,216.8c.2,0,.408,0,.612,0,.156,0,.24.079.246.216a.216.216,0,0,1-.23.248q-.627.009-1.254,0a.22.22,0,0,1-.233-.248c.007-.137.091-.214.247-.216.2,0,.408,0,.612,0" transform="translate(-263.713 -208.247)"/><path class="a" d="M275.571,242.287c.2,0,.4,0,.6,0,.173,0,.259.085.258.236s-.089.23-.264.231q-.6,0-1.195,0c-.17,0-.261-.089-.26-.237s.093-.229.265-.231c.2,0,.4,0,.6,0" transform="translate(-263.715 -232.728)"/><path class="a" d="M275.564,294.433c-.2,0-.4,0-.6,0-.169,0-.261-.089-.259-.237a.223.223,0,0,1,.251-.23q.612,0,1.224,0a.218.218,0,0,1,.242.237c0,.145-.087.227-.25.229-.2,0-.408,0-.612,0" transform="translate(-263.715 -282.366)"/><path class="a" d="M275.566,320.635c-.194,0-.388,0-.582,0s-.276-.086-.274-.238.093-.228.266-.229q.6,0,1.195,0c.166,0,.253.079.257.221s-.083.241-.25.245c-.2,0-.408,0-.612,0" transform="translate(-263.717 -307.536)"/><path class="a" d="M147.225,55.663h-1.318c-.189,0-.286-.076-.291-.223s.1-.243.291-.243q1.318,0,2.637,0c.189,0,.3.093.292.243s-.1.223-.291.223h-1.318" transform="translate(-139.788 -53.019)"/><path class="a" d="M147.24,89.532h1.316c.184,0,.284.081.288.228s-.1.24-.292.24H145.92c-.192,0-.3-.086-.3-.237s.1-.231.3-.231h1.316" transform="translate(-139.797 -85.999)"/><path class="a" d="M147.225,260.758h-1.316c-.185,0-.284-.081-.289-.227s.1-.241.291-.241h2.631c.193,0,.3.085.3.236s-.1.232-.3.233h-1.316" transform="translate(-139.793 -250.021)"/><path class="a" d="M147.228,123.946h1.333c.176,0,.271.077.276.22s-.1.242-.276.243q-1.333,0-2.666,0c-.177,0-.281-.1-.276-.242s.1-.22.276-.221h1.333" transform="translate(-139.791 -119.056)"/><path class="a" d="M147.228,157.645h1.333c.177,0,.271.077.277.22s-.1.242-.276.243q-1.333,0-2.666,0c-.178,0-.281-.1-.276-.242s.1-.22.276-.221h1.333" transform="translate(-139.791 -151.426)"/><path class="a" d="M147.228,226.45h-1.333c-.176,0-.271-.077-.276-.221s.1-.242.276-.242q1.333,0,2.666,0c.177,0,.282.1.276.242s-.1.22-.276.221h-1.333" transform="translate(-139.791 -217.07)"/><path class="a" d="M147.249,192.293c-.449,0-.9,0-1.348,0-.211,0-.316-.14-.253-.314a.22.22,0,0,1,.234-.146h.674c.669,0,1.338,0,2.006,0,.186,0,.285.083.287.228s-.1.232-.282.233c-.439,0-.878,0-1.318,0" transform="translate(-139.802 -184.262)"/></g></g></svg>