<svg xmlns="http://www.w3.org/2000/svg" xmlns:xlink="http://www.w3.org/1999/xlink" width="24" height="24" viewBox="0 0 24 24"><defs><style>.a,.b{fill:#5878bf;}.b{opacity:0.001;}.c{clip-path:url(#a);}</style><clipPath id="a"><rect class="a" width="17.658" height="22"/></clipPath></defs><rect class="b" width="24" height="24"/><g transform="translate(3.171 1)"><g class="c"><path class="a" d="M14.421,0c.227.057.457.1.68.174a3.685,3.685,0,0,1-.646,7.164,3.611,3.611,0,0,1-2.639-.672.232.232,0,0,0-.3-.037Q9.328,7.905,7.132,9.166c-.036.021-.069.047-.112.077a3.734,3.734,0,0,1-.174,3.524L11.3,15.724a9.156,9.156,0,0,1,.866-.609,3.522,3.522,0,0,1,3.734.067,3.5,3.5,0,0,1,1.751,3.279,3.68,3.68,0,0,1-7.3.506,3.511,3.511,0,0,1,.166-1.9.191.191,0,0,0-.091-.275q-2.195-1.448-4.382-2.908a.2.2,0,0,0-.263,0,3.682,3.682,0,1,1,.3-5.837c.033.027.068.051.108.081l4.511-2.6a12.637,12.637,0,0,1-.366-1.338A3.677,3.677,0,0,1,13.375.045c.063-.01.124-.029.186-.044Zm1.862,3.674A2.307,2.307,0,1,0,13.992,6a2.307,2.307,0,0,0,2.29-2.322m0,14.655a2.308,2.308,0,1,0-2.362,2.294,2.309,2.309,0,0,0,2.362-2.294m-14.9-7.5A2.307,2.307,0,1,0,3.7,8.541a2.3,2.3,0,0,0-2.316,2.292" transform="translate(0 -0.001)"/></g></g></svg>