<svg xmlns="http://www.w3.org/2000/svg" xmlns:xlink="http://www.w3.org/1999/xlink" width="24" height="24" viewBox="0 0 24 24"><defs><style>.a,.b{fill:#5878bf;}.b{opacity:0;}.c{clip-path:url(#a);}</style><clipPath id="a"><rect class="a" width="22.252" height="22.293"/></clipPath></defs><rect class="b" width="24" height="24"/><g transform="translate(0.874 0.854)"><g class="c"><path class="a" d="M10.439,0h1.392a2.11,2.11,0,0,0,.211.038,10.566,10.566,0,0,1,5.8,2.218A10.864,10.864,0,0,1,22.18,12.445a10.537,10.537,0,0,1-3.207,6.587A10.936,10.936,0,0,1,6.84,21.391,10.843,10.843,0,0,1,.171,13.054c-.08-.4-.115-.815-.171-1.223V10.439c.013-.063.028-.126.037-.189.075-.508.124-1.021.228-1.523A11.134,11.134,0,0,1,9.195.172C9.608.1,10.024.057,10.439,0M19.28,16.622A9.821,9.821,0,1,0,3,16.608,10.954,10.954,0,0,1,11.126,13.1a10.973,10.973,0,0,1,8.154,3.522M3.826,17.685a9.777,9.777,0,0,0,14.619-.009,9.781,9.781,0,0,0-14.619.009"/><path class="a" d="M172.733,65.37a5.756,5.756,0,0,1-.23,1.911,3.931,3.931,0,0,1-4.044,2.626,3.867,3.867,0,0,1-3.524-3.4,7.53,7.53,0,0,1,.128-2.956,3.907,3.907,0,0,1,7.612.648c.046.387.04.78.058,1.171m-1.261.01-.061-.009c0-.239,0-.478,0-.717a2.625,2.625,0,0,0-2.4-2.557,2.585,2.585,0,0,0-2.77,2.188,12.885,12.885,0,0,0-.045,1.734,2.614,2.614,0,0,0,2.131,2.551,2.562,2.562,0,0,0,2.921-1.7,9,9,0,0,0,.226-1.489" transform="translate(-157.667 -58.134)"/></g></g></svg>