<svg xmlns="http://www.w3.org/2000/svg" xmlns:xlink="http://www.w3.org/1999/xlink" width="24" height="24" viewBox="0 0 24 24"><defs><style>.a,.b{fill:#5878bf;}.b{opacity:0;}.c{clip-path:url(#a);}</style><clipPath id="a"><rect class="a" width="24" height="22.844"/></clipPath></defs><rect class="b" width="24" height="24"/><g transform="translate(0 0.578)"><g class="c"><path class="a" d="M0,8,.726,8A.351.351,0,0,0,.8,7.972V7.733C.8,6.14.816,4.546.79,2.953A2.061,2.061,0,0,1,2.323.865.35.35,0,0,0,2.518.694,1.205,1.205,0,0,1,3.926.043,1.228,1.228,0,0,1,4.82,1.27,1.207,1.207,0,0,1,3.736,2.408a1.135,1.135,0,0,1-1.16-.591c-.088-.151-.166-.152-.295-.085A1.165,1.165,0,0,0,1.606,2.8c-.012,1.7,0,3.405,0,5.108A.417.417,0,0,0,1.627,8H2.821A3.5,3.5,0,0,0,3.9,11.162a3.39,3.39,0,0,0,2.423.819A3.326,3.326,0,0,0,8.88,10.77a3.764,3.764,0,0,0,.709-2.763h.792c.007-.087.016-.147.016-.207q-.014-2.472-.031-4.944A1.112,1.112,0,0,0,9.6,1.7a4.478,4.478,0,0,1-.725.584,1.158,1.158,0,0,1-1.555-.575A1.2,1.2,0,0,1,9.463.651c.047.087.127.195.211.216a2.041,2.041,0,0,1,1.52,2.078c0,1.593,0,3.187.006,4.78,0,.084,0,.168,0,.27h.791a7.455,7.455,0,0,1-.112,1.941,5.651,5.651,0,0,1-3.953,4.155c-.259.087-.348.188-.336.461a6.2,6.2,0,0,1-.044,1.142A1.2,1.2,0,0,1,6.42,16.816a6.115,6.115,0,0,0,.143,1.9,4.352,4.352,0,0,0,2.586,3.037,3.962,3.962,0,0,0,4.5-1.14,4.942,4.942,0,0,0,1.147-3.3c0-2.507,0-5.014,0-7.522A3.707,3.707,0,0,1,15.844,7.09a3.257,3.257,0,0,1,5.213.649A3.892,3.892,0,0,1,21.6,9.7c0,.241,0,.482,0,.719a2.795,2.795,0,1,1-.821,0,3.8,3.8,0,0,0-.361-2.155,2.455,2.455,0,0,0-2.328-1.372,2.491,2.491,0,0,0-2.171,1.479A2.863,2.863,0,0,0,15.6,9.716q0,3.843,0,7.686a5.526,5.526,0,0,1-1.761,4.163,4.74,4.74,0,0,1-6.193.247,5.36,5.36,0,0,1-2.03-3.956c-.023-.342-.031-.684-.046-1.024a1.363,1.363,0,0,1-1.164-1.512c-.009-.366,0-.733,0-1.084-.41-.163-.813-.289-1.185-.477A5.588,5.588,0,0,1,.074,9.724C.05,9.6.025,9.483,0,9.363V8m.8.8a4.513,4.513,0,0,0,1.5,3.355,5.226,5.226,0,0,0,4.426,1.371,4.982,4.982,0,0,0,4.117-3.021,4.122,4.122,0,0,0,.341-1.693h-.777a4.033,4.033,0,0,1-3.637,3.945,4.246,4.246,0,0,1-2.815-.56,3.962,3.962,0,0,1-1.976-3.4Zm20.374,6.376a1.986,1.986,0,1,0-1.969-2.007,1.977,1.977,0,0,0,1.969,2.007m-16-.821c.024.437.03.833.074,1.225.034.307.163.4.467.4.195,0,.39-.007.584,0a.367.367,0,0,0,.426-.34c.049-.42.062-.845.091-1.291-.313.018-.569.044-.824.044s-.51-.026-.817-.044M3.986,1.195a.378.378,0,0,0-.4-.374.371.371,0,0,0-.374.392.372.372,0,0,0,.391.375.379.379,0,0,0,.377-.392m4.794.017A.373.373,0,0,0,8.406.82a.383.383,0,1,0-.018.767.374.374,0,0,0,.392-.375" transform="translate(0 0.001)"/><path class="a" d="M319.373,192.773a1.2,1.2,0,1,1,1.212,1.2,1.212,1.212,0,0,1-1.212-1.2m1.2.378a.382.382,0,0,0,.382-.389.387.387,0,0,0-.774.01.384.384,0,0,0,.393.379" transform="translate(-299.378 -179.566)"/></g></g></svg>