<?xml version="1.0" encoding="UTF-8"?><svg id="Capa_1" xmlns="http://www.w3.org/2000/svg" xmlns:xlink="http://www.w3.org/1999/xlink" viewBox="0 0 28 28"><defs><style>.cls-1{fill:none;}.cls-2{fill:rgba(88,120,191,0);}.cls-3{clip-path:url(#clippath);}.cls-4{fill:#5878bf;}</style><clipPath id="clippath"><rect class="cls-1" x="2.3" y="4.35" width="22.04" height="19.28"/></clipPath></defs><rect id="Rectángulo_3007" class="cls-2" x="1.31" y="2" width="24" height="24"/><g id="Componente_88_15"><rect id="Rectángulo_2077" class="cls-2" x="2.37" y="3.6" width="21.96" height="20.8"/><g id="Grupo_2716"><g id="Grupo_2717"><g class="cls-3"><g id="Grupo_2716-2"><path id="Trazado_5089" class="cls-4" d="M24.33,7.69c-.13,.38-.51,.61-.9,.56-1.15-.02-2.31,0-3.46,0-.15,0-.22,.05-.27,.21-.36,1.5-1.87,2.43-3.38,2.07-1.02-.25-1.82-1.04-2.07-2.06-.02-.14-.15-.24-.29-.22,0,0,0,0-.01,0-3.6,0-7.21,0-10.81,0-.15,0-.3-.02-.44-.08-.3-.15-.46-.47-.4-.8,.03-.31,.27-.56,.57-.62,.11-.02,.23-.03,.34-.02H13.88c.23,0,.32-.06,.4-.3,.37-1.25,1.53-2.1,2.83-2.08,1.23,.11,2.26,.96,2.59,2.15,.05,.18,.12,.22,.28,.22,1.14,0,2.28,0,3.42,0,.4-.05,.78,.18,.92,.55v.43Zm-8.83-.21c-.07,.82,.53,1.54,1.35,1.62s1.54-.53,1.62-1.35c0-.08,0-.17,0-.26,.03-.86-.63-1.59-1.49-1.63-.85,.05-1.51,.77-1.47,1.62"/><path id="Trazado_5090" class="cls-4" d="M24.33,20.72c-.14,.37-.51,.59-.9,.55-1.15-.02-2.29,0-3.44,0-.16,0-.23,.04-.28,.22-.37,1.5-1.88,2.42-3.39,2.05-1.02-.25-1.81-1.05-2.06-2.06-.02-.14-.14-.23-.28-.21,0,0-.01,0-.02,0-3.58,0-7.17,0-10.75,0-.1,0-.2,0-.3-.01-.38-.05-.64-.39-.62-.77,0-.38,.27-.7,.65-.74,.07,0,.14,0,.22,0H13.97c.14,.02,.27-.07,.3-.21,0,0,0,0,0,0,.37-1.5,1.88-2.42,3.38-2.06,1.02,.25,1.81,1.05,2.06,2.07,.05,.17,.11,.21,.27,.21,1.15,0,2.31,0,3.46,0,.39-.05,.77,.19,.9,.56v.43Zm-8.84-.22c-.04,.86,.62,1.59,1.48,1.63,.9-.08,1.56-.87,1.48-1.77-.07-.78-.69-1.4-1.47-1.48-.85,.03-1.52,.74-1.49,1.59,0,0,0,.02,0,.03"/><path id="Trazado_5091" class="cls-4" d="M24.33,14.18c-.11,.37-.48,.61-.86,.57-3.6-.01-7.2,0-10.8-.01-.14-.02-.28,.07-.3,.21,0,0,0,0,0,.01-.33,1.26-1.45,2.14-2.75,2.17-1.3-.06-2.4-.97-2.72-2.23-.01-.05-.03-.1-.05-.16H3.02c-.41-.03-.73-.39-.7-.8,.03-.37,.32-.67,.69-.7,1.2,0,2.4,0,3.59,0,.18,0,.27-.04,.33-.25,.33-1.24,1.44-2.11,2.72-2.15,1.28,.04,2.38,.92,2.71,2.16,.06,.21,.15,.23,.32,.23,3.56,0,7.13,0,10.69-.01,.4-.06,.79,.16,.96,.53v.42Zm-14.69-1.8c-.89,.08-1.55,.87-1.47,1.76,.07,.79,.7,1.41,1.48,1.47,.89-.08,1.55-.87,1.47-1.76-.07-.79-.7-1.41-1.48-1.47"/></g></g></g></g></g></svg>