<svg xmlns="http://www.w3.org/2000/svg" width="26.721" height="26.721" viewBox="0 0 26.721 26.721"><defs><style>.a{fill:#fff;}.b{fill:#35226e;}</style></defs><g transform="translate(-101 -601)"><path class="a" d="M13.36,0A13.36,13.36,0,1,1,0,13.36,13.36,13.36,0,0,1,13.36,0Z" transform="translate(101 601)"/><g transform="translate(105.845 605.401)"><path class="b" d="M16.1,7.955v2.21h5.215a6.174,6.174,0,0,1-6.1,5.3A6.678,6.678,0,0,1,8.585,8.839,6.678,6.678,0,0,1,15.214,2.21a6.2,6.2,0,0,1,4.6,2.033L21.4,2.652A8.679,8.679,0,0,0,15.214,0a8.839,8.839,0,0,0,0,17.678c4.862,0,8.4-3.978,8.4-8.839V7.955Z" transform="translate(-6.375)"/></g></g></svg>