<svg xmlns="http://www.w3.org/2000/svg" xmlns:xlink="http://www.w3.org/1999/xlink" width="24" height="24" viewBox="0 0 24 24"><defs><style>.a,.b{fill:#5878bf;}.b{opacity:0;}.c{clip-path:url(#a);}</style><clipPath id="a"><rect class="a" width="18.066" height="22"/></clipPath></defs><rect class="b" width="24" height="24"/><g transform="translate(2.967 1)"><g class="c"><path class="a" d="M10.024,13.9a.292.292,0,0,0,.229-.341c-.01-.39,0-.78,0-1.17,0-.318.12-.44.43-.44q3.485,0,6.97,0c.3,0,.414.121.415.426q0,.647,0,1.295c0,.339-.121.461-.465.462-1.087,0-2.174.005-3.261,0a.355.355,0,0,0-.379.226,6.76,6.76,0,0,1-2.968,3.015.381.381,0,0,0-.256.434,3.945,3.945,0,0,1,0,.459h2.1c.438,0,.532.1.534.546q0,.436,0,.871a.764.764,0,0,0,.017.09h.227c.523,0,1.045,0,1.568,0,.319,0,.443.118.445.427q.005.7,0,1.394a.364.364,0,0,1-.393.408c-.058,0-.116,0-.174,0H.6c-.505,0-.6-.092-.6-.59q0-.56,0-1.12c0-.408.112-.521.512-.521H2.283c0-.237,0-.458,0-.679-.021-.849.025-.839.841-.83.506.006,1.012,0,1.518,0h.277c0-.24.011-.462-.008-.681,0-.057-.1-.12-.162-.155a6.641,6.641,0,0,1-3.683-4.961A6.694,6.694,0,0,1,3.751,5.74c.058-.046.118-.089.192-.145a1.108,1.108,0,0,1,.235-1.54c-.269-.216-.518-.423-.775-.619a.435.435,0,0,1-.176-.518c.241-.86.469-1.723.707-2.584.1-.351.354-.435.641-.209C5.128.56,5.677,1,6.237,1.448A1.1,1.1,0,0,1,7.059.983a1.139,1.139,0,0,1,.767.3q2.126,1.7,4.258,3.4c.039.031.079.06.144.108.2-.251.4-.5.609-.744A1.412,1.412,0,1,1,14.965,5.9q-.843,1.063-1.692,2.12-1.3,1.624-2.591,3.249a1.391,1.391,0,0,1-1.4.559,1.344,1.344,0,0,1-1.086-.949,1.363,1.363,0,0,1,.2-1.273c.061-.088.13-.171.211-.275-.489-.39-.969-.779-1.459-1.157a.285.285,0,0,0-.223-.007,3.3,3.3,0,0,0-2.17,3.311,3.183,3.183,0,0,0,1.061,2.216,2.922,2.922,0,0,1,4.209.2m1.748-8.528a.284.284,0,0,0-.036-.053Q9.53,3.552,7.323,1.79c-.207-.165-.327-.141-.5.077Q5.713,3.258,4.605,4.651c-.253.319-.245.385.078.643L7.133,7.25,9.052,8.778l2.72-3.409M6.421,7.587C5.808,7.1,5.214,6.619,4.613,6.15a.226.226,0,0,0-.209.012,9.239,9.239,0,0,0-.743.582,6.162,6.162,0,0,0,.285,9.321c.293.232.615.428.977.678a3.944,3.944,0,0,1,.433-2.467,4.058,4.058,0,0,1,1.065-6.69M10,18.249c0-.954,0-1.881,0-2.809a.138.138,0,0,0,0-.024,2.2,2.2,0,0,0-4.371.351c-.013.779,0,1.559,0,2.339a1,1,0,0,0,.021.143ZM8.808,10.4a.781.781,0,0,0,.479.677.721.721,0,0,0,.825-.239q2.153-2.691,4.3-5.387a.713.713,0,0,0-.071-1.023.7.7,0,0,0-1.029.146q-2.154,2.69-4.3,5.39a2.129,2.129,0,0,0-.208.435m6.109,10.084H.741v.775H14.918ZM2.99,19.752h9.638v-.765H2.99Zm14.37-7.1h-6.4v.734h6.4ZM13.284,14.13c-.674,0-1.3.017-1.928-.007a.889.889,0,0,0-.807.309.268.268,0,0,0-.05.219,3.448,3.448,0,0,1,.241,1.382c0,.21,0,.42,0,.673a6.293,6.293,0,0,0,2.545-2.577M4.622,3.489,5.8,2.009,4.5.973c-.023.084-.037.132-.05.179-.1.359-.194.718-.293,1.076-.211.765-.212.765.466,1.261" transform="translate(0 0.001)"/><path class="a" d="M98.58,221.92a1.349,1.349,0,1,1,1.368-1.345,1.341,1.341,0,0,1-1.368,1.345m.65-1.343a.639.639,0,0,0-.635-.652.648.648,0,1,0-.011,1.3.643.643,0,0,0,.646-.644" transform="translate(-90.768 -204.643)"/></g></g></svg>