<svg xmlns="http://www.w3.org/2000/svg" xmlns:xlink="http://www.w3.org/1999/xlink" width="24" height="24" viewBox="0 0 24 24"><defs><style>.a,.b{fill:#fff;}.b{opacity:0;}.c{clip-path:url(#a);}</style><clipPath id="a"><rect class="a" width="20.269" height="22.755"/></clipPath></defs><rect class="b" width="24" height="24"/><g transform="translate(1.778 0.622)"><g class="c"><path class="a" d="M4.737,14.44c-.01-.236.169-.326.41-.39q.988-.263,1.965-.56a.445.445,0,0,0,.27-.229c.12-.388.212-.784.3-1.18a.266.266,0,0,0-.1-.212A4.406,4.406,0,0,1,6.108,9.495a.381.381,0,0,0-.188-.233,1.269,1.269,0,0,1-.873-1.007,2.741,2.741,0,0,1-.017-.769A1.147,1.147,0,0,1,5.6,6.63a5,5,0,0,1-.774-2.042A2.944,2.944,0,0,1,5.936,1.655a3.068,3.068,0,0,1,1.682-.608.708.708,0,0,0,.46-.194A3.447,3.447,0,0,1,10.9.028a5.543,5.543,0,0,1,2.61.957,3.542,3.542,0,0,1,1.526,3.5,6.734,6.734,0,0,1-.582,2.077.952.952,0,0,1,.682.691,3.429,3.429,0,0,1,.015,1.132,1.165,1.165,0,0,1-.8.866.384.384,0,0,0-.209.212,4.472,4.472,0,0,1-1.51,2.434.263.263,0,0,0-.078.224c.091.4.189.79.311,1.177a.4.4,0,0,0,.248.193q.978.292,1.965.558c.237.064.427.15.418.382.482.076.952.111,1.4.227a4.342,4.342,0,0,1,3.37,4.2c.013,1.15,0,2.3,0,3.452,0,.359-.094.444-.478.444H.573c-.5,0-.569-.057-.567-.525,0-1.229-.025-2.459.021-3.686a4.347,4.347,0,0,1,3.458-3.917c.4-.09.806-.122,1.252-.187M7.795,3.494a9.564,9.564,0,0,0-.764.961,3.58,3.58,0,0,0-.448,2.268.347.347,0,0,1-.349.435c-.346.033-.5.176-.521.514a1.887,1.887,0,0,0,.019.42.61.61,0,0,0,.594.571c.284.042.376.194.435.436a5.851,5.851,0,0,0,.355,1.115,3.409,3.409,0,0,0,5.557.7,3.7,3.7,0,0,0,.816-1.838.442.442,0,0,1,.444-.417.533.533,0,0,0,.505-.365,2.779,2.779,0,0,0,.026-.827c-.023-.228-.222-.311-.46-.305-.312.008-.423-.1-.45-.4a2.712,2.712,0,0,0-.624-1.6,1.36,1.36,0,0,0-1.148-.526,6,6,0,0,1-2.108-.194,5.676,5.676,0,0,1-1.881-.949m9.117,11.848a5.234,5.234,0,0,1,.55,1.939.408.408,0,0,0,.3.406,1.238,1.238,0,0,1,.753,1.377,1.353,1.353,0,0,1-1.245,1.054,1.4,1.4,0,0,1-1.434-.891,1.2,1.2,0,0,1,.6-1.477c.323-.147.388-.31.3-.591a.3.3,0,0,1,0-.047,3.946,3.946,0,0,0-.651-1.778.5.5,0,0,0-.393-.2c-.41-.057-.67.067-.779.449a1.274,1.274,0,0,1-.121.231c-.294.55-.294.55.152,1.013.244.253.255.353.064.641l-2.88,4.348c-.055.083-.106.167-.169.265h7.589c0-.065.01-.118.01-.171,0-1.057.022-2.114-.006-3.17a3.55,3.55,0,0,0-2.154-3.208c-.135-.069-.284-.115-.48-.193m-14.6,4.721c.044-.011.09-.026.138-.035.238-.044.4.033.455.223s-.049.33-.241.4c-.115.045-.238.075-.351.124a.367.367,0,0,1-.477-.137,1.937,1.937,0,0,1,.515-2.879.372.372,0,0,0,.135-.242c.046-.356.047-.719.116-1.07a7.8,7.8,0,0,1,.295-.913c-.093.043-.16.068-.221.1A3.522,3.522,0,0,0,.725,18.73C.7,19.794.718,20.859.719,21.924a1.368,1.368,0,0,0,.017.155H8.274c-.064-.1-.112-.182-.164-.261L5.229,17.471c-.2-.3-.187-.38.062-.64a3.738,3.738,0,0,0,.329-.354.276.276,0,0,0,.039-.239c-.161-.334-.339-.662-.519-.988a.232.232,0,0,0-.142-.1,1.134,1.134,0,0,0-1.373.6,2.677,2.677,0,0,0-.292.693c-.084.334-.117.679-.173,1.024.1.007.122.011.146.01a2.077,2.077,0,0,1,2.154,2.363.354.354,0,0,1-.441.3c-.082-.012-.166-.02-.249-.028-.213-.021-.382-.107-.4-.32s.118-.314.325-.356a.177.177,0,0,0,.055-.035,1.366,1.366,0,0,0-.932-1.2,1.3,1.3,0,0,0-1.381.371,1.231,1.231,0,0,0-.129,1.494M14.056,5.629a4.9,4.9,0,0,0,.3-1.722,2.806,2.806,0,0,0-1.3-2.417A4.928,4.928,0,0,0,10.807.682a2.661,2.661,0,0,0-2.363.774.668.668,0,0,1-.538.235A2.242,2.242,0,0,0,5.6,3.324a3.472,3.472,0,0,0,.241,2.29c.006.014.035.021.056.032a3.78,3.78,0,0,1,1.629-2.7c.323-.221.42-.209.724.027A4.675,4.675,0,0,0,11.52,3.983a2.218,2.218,0,0,1,1.959.781,8.079,8.079,0,0,1,.577.865M11,22.088l.877-5.422H8.356l.878,5.422ZM8.241,15.943a18.05,18.05,0,0,0,3.748,0c.073-.453.12-.888.218-1.314a1.777,1.777,0,0,0-.143-1.418.853.853,0,0,1-.07-.248c-.048-.2-.1-.391-.148-.609a4.444,4.444,0,0,1-3.461,0c-.023.1-.037.182-.063.262-.109.343-.226.683-.33,1.027a.926.926,0,0,0-.063.381c.092.633.2,1.264.313,1.926m3.69,4.8.063.01q.984-1.484,1.968-2.968c.123-.185.34-.383.326-.562s-.265-.338-.412-.506l-.033-.036a.354.354,0,0,1-.063-.471c.242-.437.473-.879.707-1.32.046-.087.086-.177.135-.279L13,14.155l-1.066,6.587M5.6,14.623c.21.395.409.764.6,1.136.434.825.449.628-.183,1.3a.211.211,0,0,0-.029.319c.729,1.087,1.448,2.179,2.171,3.269.032.048.072.091.148.187L7.233,14.156l-1.393.389c-.071.02-.139.046-.237.078m11.536,3.591a.651.651,0,0,0-.664.633.68.68,0,0,0,1.355-.024.657.657,0,0,0-.691-.609" transform="translate(0 0)"/></g></g></svg>