<?xml version="1.0" encoding="UTF-8"?><svg id="Capa_1" xmlns="http://www.w3.org/2000/svg" xmlns:xlink="http://www.w3.org/1999/xlink" viewBox="0 0 28 28"><defs><style>.cls-1{fill:none;}.cls-2{fill:rgba(82,56,160,0);}.cls-3{clip-path:url(#clippath);}.cls-4{fill:#5238a0;}</style><clipPath id="clippath"><rect class="cls-1" x="4.54" y="2.62" width="18.92" height="23.38"/></clipPath></defs><rect id="Rectángulo_3007" class="cls-2" x="2" y="2.31" width="24" height="24"/><g id="Grupo_3181"><g id="Grupo_3182"><g class="cls-3"><g id="Grupo_3181-2"><path id="Trazado_7286" class="cls-4" d="M8.43,23.06V3.57c0-.13,0-.26,.04-.38,.1-.37,.45-.61,.83-.56,.37,.05,.65,.34,.68,.71,0,.1,0,.19,0,.29V23.05c.09-.1,.15-.16,.2-.23,.75-.9,1.51-1.81,2.26-2.71,.18-.27,.51-.4,.83-.33,.42,.09,.68,.5,.59,.92-.03,.13-.09,.25-.18,.35-.62,.76-1.25,1.51-1.88,2.26l-1.9,2.28c-.22,.38-.71,.52-1.09,.3-.12-.07-.22-.17-.29-.29-1.25-1.51-2.51-3.02-3.77-4.53-.3-.31-.29-.8,.02-1.1,.1-.1,.22-.16,.36-.2,.32-.08,.65,.05,.84,.31,.67,.81,1.35,1.62,2.02,2.43l.44,.53"/><path id="Trazado_7287" class="cls-4" d="M19.57,5.56V25.05c0,.13,0,.26-.04,.39-.1,.37-.45,.61-.83,.56-.37-.05-.65-.35-.68-.72,0-.1,0-.19,0-.29V5.57c-.09,.1-.15,.16-.2,.23-.75,.9-1.51,1.81-2.26,2.71-.18,.27-.51,.4-.83,.33-.42-.09-.68-.5-.59-.92,.03-.13,.09-.25,.18-.35,.62-.76,1.25-1.51,1.88-2.27l1.9-2.28c.22-.38,.71-.51,1.09-.29,.12,.07,.22,.16,.29,.28,1.26,1.51,2.51,3.02,3.77,4.53,.3,.31,.29,.8-.02,1.1-.1,.09-.22,.16-.35,.2-.32,.08-.65-.05-.84-.31-.67-.81-1.35-1.62-2.02-2.43l-.44-.53"/></g></g></g></g></svg>