<svg xmlns="http://www.w3.org/2000/svg" xmlns:xlink="http://www.w3.org/1999/xlink" width="24" height="24" viewBox="0 0 24 24"><defs><style>.a,.b{fill:#5238a0;}.b{opacity:0;}.c{clip-path:url(#a);}</style><clipPath id="a"><rect class="a" width="20.636" height="24"/></clipPath></defs><rect class="b" width="24" height="24"/><g transform="translate(1.682)"><g class="c"><path class="a" d="M14.818,193.232l-5,0H5.941l-2.932,0a3.059,3.059,0,0,1-2.336-.759A3.093,3.093,0,0,1,0,190.079a10.321,10.321,0,0,1,20.548-.6l.023.227c.024.223.047.447.056.671a2.532,2.532,0,0,1-2.7,2.843Q16.374,193.233,14.818,193.232Zm-5-.871,5,0q1.552,0,3.1-.009a1.677,1.677,0,0,0,1.844-1.942c-.008-.205-.03-.41-.052-.615l-.024-.234a9.455,9.455,0,0,0-18.82.548,2.361,2.361,0,0,0,.428,1.754,2.326,2.326,0,0,0,1.712.493l2.931,0Z" transform="translate(0.001 -169.232)"/><path class="a" d="M86.411,0a5.3,5.3,0,0,1,.019,10.6h0a5.309,5.309,0,0,1-5.307-5.29A5.315,5.315,0,0,1,86.4,0ZM86.4,9.738a4.435,4.435,0,1,0,.013-8.87V.434L86.4.867a4.447,4.447,0,0,0-4.415,4.448A4.443,4.443,0,0,0,86.4,9.738Z" transform="translate(-76.101 -0.001)"/></g></g></svg>