<svg xmlns="http://www.w3.org/2000/svg" xmlns:xlink="http://www.w3.org/1999/xlink" width="24" height="24" viewBox="0 0 24 24"><defs><style>.a,.b{fill:#5878bf;}.b{opacity:0;}.c{clip-path:url(#a);}</style><clipPath id="a"><rect class="a" width="18.09" height="23.702"/></clipPath></defs><rect class="b" width="24" height="24"/><g transform="translate(2.955 0.149)"><g class="c"><path class="a" d="M8.849,23.7c-.24-.1-.482-.194-.72-.3A12.881,12.881,0,0,1,.264,13.847a12.689,12.689,0,0,1-.246-2.5C-.015,9.06.006,6.776.007,4.492A.71.71,0,0,1,.791,3.7,10.382,10.382,0,0,0,8.141.6C8.262.484,8.38.362,8.5.244a.706.706,0,0,1,1.065,0c.481.444.944.914,1.46,1.315a9.988,9.988,0,0,0,5.028,2.057c.42.05.845.068,1.268.088a.7.7,0,0,1,.737.745c0,2.423.079,4.849-.021,7.267a12.792,12.792,0,0,1-6.147,10.7,12.32,12.32,0,0,1-2.556,1.232.945.945,0,0,0-.117.062ZM1.4,5.07v.195c0,2.044-.01,4.089.007,6.133a10.157,10.157,0,0,0,.146,1.773,11.5,11.5,0,0,0,7.288,9.013.567.567,0,0,0,.386.007,11.639,11.639,0,0,0,7.448-10.852c.01-2.014,0-4.027,0-6.041V5.077a11.969,11.969,0,0,1-7.644-3.4,11.773,11.773,0,0,1-3.5,2.388,11.717,11.717,0,0,1-4.132,1" transform="translate(0 0)"/><path class="a" d="M92.462,160.659c.07-.066.132-.122.19-.18q1.489-1.488,2.978-2.976a.693.693,0,0,1,1.2.284.658.658,0,0,1-.186.658q-1.845,1.852-3.7,3.7a.672.672,0,0,1-.994-.01q-.924-.908-1.832-1.832a.692.692,0,1,1,.981-.978c.4.386.787.783,1.181,1.175.053.053.11.1.175.163" transform="translate(-84.351 -147.536)"/></g></g></svg>