<svg xmlns="http://www.w3.org/2000/svg" xmlns:xlink="http://www.w3.org/1999/xlink" width="26.721" height="26.721" viewBox="0 0 26.721 26.721"><defs><style>.a{fill:#35226e;}.b{fill:#fff;}.c{clip-path:url(#a);}</style><clipPath id="a"><rect class="a" width="10.905" height="19.237"/></clipPath></defs><path class="b" d="M13.36,0A13.36,13.36,0,1,1,0,13.36,13.36,13.36,0,0,1,13.36,0Z"/><g transform="translate(7.908 3.742)"><g transform="translate(0 0)"><g class="c"><path class="a" d="M9.7,0a1.739,1.739,0,0,1,.759.384,1.448,1.448,0,0,1,.443,1.08q0,.761,0,1.521,0,7.363,0,14.725a1.386,1.386,0,0,1-.8,1.373,1.577,1.577,0,0,1-.65.146q-4,.014-8,0A1.4,1.4,0,0,1,.008,17.728q0-6.856,0-13.711c0-.77.021-1.541-.006-2.31A1.508,1.508,0,0,1,1.21,0ZM1.074,14.783H9.838V2.369H1.074ZM5.475.854c-.632,0-1.264.007-1.9,0-.2,0-.291.076-.3.333s.086.345.309.345H7.324c.223,0,.317-.1.31-.344C7.627.97,7.568.844,7.315.85c-.613.013-1.226,0-1.84,0m-.01,16.994a.888.888,0,1,0-.9-.884.9.9,0,0,0,.9.884" transform="translate(0)"/></g></g></g></svg>