<svg xmlns="http://www.w3.org/2000/svg" xmlns:xlink="http://www.w3.org/1999/xlink" width="24.894" height="24.894" viewBox="0 0 24.894 24.894"><defs><style>.a,.b{fill:#fff;}.b{opacity:0;}.c{clip-path:url(#a);}</style><clipPath id="a"><rect class="a" width="17.604" height="17.601" transform="translate(0 0)"/></clipPath></defs><rect class="b" width="24" height="24" transform="translate(0.447 0.447)"/><g transform="translate(0 12.448) rotate(-45)"><g class="c" transform="translate(0 0)"><path class="a" d="M17.6,8.971a1.058,1.058,0,0,1-.585.76,1.725,1.725,0,0,1-.614.121c-2.148.008-4.3.005-6.445.005H9.715v.231q0,3.162,0,6.323a1.129,1.129,0,0,1-.34.9,1.009,1.009,0,0,1-1.086.214,1,1,0,0,1-.668-.824A1.931,1.931,0,0,1,7.6,16.4q0-3.153,0-6.306V9.857H7.378q-3.1,0-6.2,0a1.085,1.085,0,0,1-1.009-.5A1.056,1.056,0,0,1,1.12,7.743c.4-.007.791,0,1.186,0h5.3c0-.081,0-.152,0-.223Q7.6,4.331,7.594,1.144A1.065,1.065,0,0,1,8.208.1c.081-.04.168-.067.252-.1H8.8a1.142,1.142,0,0,1,.9,1.269C9.692,3.364,9.7,5.459,9.7,7.555v.211h.228l6.493-.025a1.251,1.251,0,0,1,.675.16,1.2,1.2,0,0,1,.507.726Z" transform="translate(-0.001 0)"/></g></g></svg>